solid OpenSCAD_Model
  facet normal 0 0 1
    outer loop
      vertex -4 15 8
      vertex -11.5 11 8
      vertex -4 12 8
    endloop
  endfacet
  facet normal -0 0 1
    outer loop
      vertex -15.5 15 8
      vertex -11.5 11 8
      vertex -4 15 8
    endloop
  endfacet
  facet normal 0 0 1
    outer loop
      vertex -11.5 11 8
      vertex -15.5 15 8
      vertex -13.0307 10.6955 8
    endloop
  endfacet
  facet normal 0 0 1
    outer loop
      vertex -15.5 15 8
      vertex -14.3284 9.82843 8
      vertex -13.0307 10.6955 8
    endloop
  endfacet
  facet normal -0 0 1
    outer loop
      vertex -17.0307 14.6955 8
      vertex -14.3284 9.82843 8
      vertex -15.5 15 8
    endloop
  endfacet
  facet normal -0 0 1
    outer loop
      vertex -18.3284 13.8284 8
      vertex -14.3284 9.82843 8
      vertex -17.0307 14.6955 8
    endloop
  endfacet
  facet normal 0 0 1
    outer loop
      vertex -15.1955 8.53073 8
      vertex -19.5 11 8
      vertex -15.5 7 8
    endloop
  endfacet
  facet normal 0 0 1
    outer loop
      vertex -15.5 7 8
      vertex -19.5 11 8
      vertex -15.5 -7 8
    endloop
  endfacet
  facet normal -0 0 1
    outer loop
      vertex -19.1955 12.5307 8
      vertex -14.3284 9.82843 8
      vertex -18.3284 13.8284 8
    endloop
  endfacet
  facet normal 0 0 1
    outer loop
      vertex -19.5 -11 8
      vertex -15.5 -7 8
      vertex -19.5 11 8
    endloop
  endfacet
  facet normal -0 0 1
    outer loop
      vertex -19.5 11 8
      vertex -14.3284 9.82843 8
      vertex -19.1955 12.5307 8
    endloop
  endfacet
  facet normal 0 0 1
    outer loop
      vertex -15.5 -7 8
      vertex -19.5 -11 8
      vertex -15.5 -15 8
    endloop
  endfacet
  facet normal 0 0 1
    outer loop
      vertex -14.3284 9.82843 8
      vertex -19.5 11 8
      vertex -15.1955 8.53073 8
    endloop
  endfacet
  facet normal 0 0 1
    outer loop
      vertex -15.5 -15 8
      vertex -19.5 -11 8
      vertex -17.0307 -14.6955 8
    endloop
  endfacet
  facet normal 0 0 1
    outer loop
      vertex -17.0307 -14.6955 8
      vertex -19.5 -11 8
      vertex -18.3284 -13.8284 8
    endloop
  endfacet
  facet normal 0 0 1
    outer loop
      vertex -18.3284 -13.8284 8
      vertex -19.5 -11 8
      vertex -19.1955 -12.5307 8
    endloop
  endfacet
  facet normal 0 0 1
    outer loop
      vertex 11.5 -11 8
      vertex -4 -12 8
      vertex 4 -12 8
    endloop
  endfacet
  facet normal -0 0 1
    outer loop
      vertex -11.5 -11 8
      vertex -4 -12 8
      vertex 11.5 -11 8
    endloop
  endfacet
  facet normal 0 0 1
    outer loop
      vertex -11.5 -11 8
      vertex -4 -15 8
      vertex -4 -12 8
    endloop
  endfacet
  facet normal 0 0 1
    outer loop
      vertex -15.5 -15 8
      vertex -11.5 -11 8
      vertex -13.0307 -10.6955 8
    endloop
  endfacet
  facet normal 0 0 1
    outer loop
      vertex -11.5 -11 8
      vertex -15.5 -15 8
      vertex -4 -15 8
    endloop
  endfacet
  facet normal 0 0 1
    outer loop
      vertex -14.3284 -9.82843 8
      vertex -15.5 -15 8
      vertex -13.0307 -10.6955 8
    endloop
  endfacet
  facet normal 0 0 1
    outer loop
      vertex -15.1955 -8.53073 8
      vertex -15.5 -15 8
      vertex -14.3284 -9.82843 8
    endloop
  endfacet
  facet normal 0 0 1
    outer loop
      vertex -15.5 -15 8
      vertex -15.1955 -8.53073 8
      vertex -15.5 -7 8
    endloop
  endfacet
  facet normal 0 0 1
    outer loop
      vertex 19.5 11 8
      vertex 15.1955 8.53073 8
      vertex 15.5 7 8
    endloop
  endfacet
  facet normal 0 0 1
    outer loop
      vertex 17.0307 14.6955 8
      vertex 14.3284 9.82843 8
      vertex 15.1955 8.53073 8
    endloop
  endfacet
  facet normal 0 0 1
    outer loop
      vertex 15.5 15 8
      vertex 13.0307 10.6955 8
      vertex 14.3284 9.82843 8
    endloop
  endfacet
  facet normal 0 0 1
    outer loop
      vertex 15.5 15 8
      vertex 11.5 11 8
      vertex 13.0307 10.6955 8
    endloop
  endfacet
  facet normal -0 0 1
    outer loop
      vertex 4 15 8
      vertex 11.5 11 8
      vertex 15.5 15 8
    endloop
  endfacet
  facet normal -0 0 1
    outer loop
      vertex 4 12 8
      vertex 11.5 11 8
      vertex 4 15 8
    endloop
  endfacet
  facet normal -0 0 1
    outer loop
      vertex -4 12 8
      vertex 11.5 11 8
      vertex 4 12 8
    endloop
  endfacet
  facet normal 0 0 1
    outer loop
      vertex 11.5 11 8
      vertex -4 12 8
      vertex -11.5 11 8
    endloop
  endfacet
  facet normal 0 0 1
    outer loop
      vertex 15.1955 8.53073 8
      vertex 19.5 11 8
      vertex 19.1955 12.5307 8
    endloop
  endfacet
  facet normal 0 0 1
    outer loop
      vertex 19.5 11 8
      vertex 15.5 7 8
      vertex 19.5 -11 8
    endloop
  endfacet
  facet normal 0 0 1
    outer loop
      vertex 15.1955 8.53073 8
      vertex 19.1955 12.5307 8
      vertex 18.3284 13.8284 8
    endloop
  endfacet
  facet normal -0 0 1
    outer loop
      vertex 15.5 -7 8
      vertex 19.5 -11 8
      vertex 15.5 7 8
    endloop
  endfacet
  facet normal 0 0 1
    outer loop
      vertex 15.1955 8.53073 8
      vertex 18.3284 13.8284 8
      vertex 17.0307 14.6955 8
    endloop
  endfacet
  facet normal -0 0 1
    outer loop
      vertex 15.1955 -8.53073 8
      vertex 19.5 -11 8
      vertex 15.5 -7 8
    endloop
  endfacet
  facet normal 0 0 1
    outer loop
      vertex 14.3284 9.82843 8
      vertex 17.0307 14.6955 8
      vertex 15.5 15 8
    endloop
  endfacet
  facet normal -0 0 1
    outer loop
      vertex 14.3284 -9.82843 8
      vertex 19.5 -11 8
      vertex 15.1955 -8.53073 8
    endloop
  endfacet
  facet normal 0 0 1
    outer loop
      vertex 19.5 -11 8
      vertex 14.3284 -9.82843 8
      vertex 19.1955 -12.5307 8
    endloop
  endfacet
  facet normal 0 0 1
    outer loop
      vertex 19.1955 -12.5307 8
      vertex 14.3284 -9.82843 8
      vertex 18.3284 -13.8284 8
    endloop
  endfacet
  facet normal 0 0 1
    outer loop
      vertex 18.3284 -13.8284 8
      vertex 14.3284 -9.82843 8
      vertex 17.0307 -14.6955 8
    endloop
  endfacet
  facet normal 0 0 1
    outer loop
      vertex 17.0307 -14.6955 8
      vertex 14.3284 -9.82843 8
      vertex 15.5 -15 8
    endloop
  endfacet
  facet normal -0 0 1
    outer loop
      vertex 13.0307 -10.6955 8
      vertex 15.5 -15 8
      vertex 14.3284 -9.82843 8
    endloop
  endfacet
  facet normal -0 0 1
    outer loop
      vertex 11.5 -11 8
      vertex 15.5 -15 8
      vertex 13.0307 -10.6955 8
    endloop
  endfacet
  facet normal 0 0 1
    outer loop
      vertex 4 -15 8
      vertex 11.5 -11 8
      vertex 4 -12 8
    endloop
  endfacet
  facet normal 0 0 1
    outer loop
      vertex 11.5 -11 8
      vertex 4 -15 8
      vertex 15.5 -15 8
    endloop
  endfacet
  facet normal -0.195086 -0.980786 -0
    outer loop
      vertex -17.0307 -14.6955 3
      vertex -17.0307 -14.6955 0
      vertex -17 -14.7016 3
    endloop
  endfacet
  facet normal -0.195091 -0.980785 0
    outer loop
      vertex -17.0307 -14.6955 4.03073
      vertex -15.5 -15 8
      vertex -17.0307 -14.6955 8
    endloop
  endfacet
  facet normal -0.195087 -0.980786 -1.3974e-06
    outer loop
      vertex -17 -14.7016 4
      vertex -15.5 -15 8
      vertex -17.0307 -14.6955 4.03073
    endloop
  endfacet
  facet normal -0.195091 -0.980785 0
    outer loop
      vertex -15.5 -15 0
      vertex -17 -14.7016 4
      vertex -17 -14.7016 3
    endloop
  endfacet
  facet normal -0.195091 -0.980785 5.14361e-08
    outer loop
      vertex -15.5 -15 0
      vertex -17 -14.7016 3
      vertex -17.0307 -14.6955 0
    endloop
  endfacet
  facet normal -0.195091 -0.980785 0
    outer loop
      vertex -17 -14.7016 4
      vertex -15.5 -15 0
      vertex -15.5 -15 8
    endloop
  endfacet
  facet normal 0 0 -1
    outer loop
      vertex 15.5 -15 0
      vertex 19.5 -11 0
      vertex 19.1955 -12.5307 0
    endloop
  endfacet
  facet normal 0 0 -1
    outer loop
      vertex 19.5 -11 0
      vertex 11.5 -4.5 0
      vertex 19.5 11 0
    endloop
  endfacet
  facet normal 0 0 -1
    outer loop
      vertex 15.5 -15 0
      vertex 19.1955 -12.5307 0
      vertex 18.3284 -13.8284 0
    endloop
  endfacet
  facet normal 0 0 -1
    outer loop
      vertex 11.5 4.5 0
      vertex 19.5 11 0
      vertex 11.5 -4.5 0
    endloop
  endfacet
  facet normal 0 0 -1
    outer loop
      vertex 15.5 -15 0
      vertex 18.3284 -13.8284 0
      vertex 17.0307 -14.6955 0
    endloop
  endfacet
  facet normal 0 0 -1
    outer loop
      vertex 11.3097 5.45671 0
      vertex 19.5 11 0
      vertex 11.5 4.5 0
    endloop
  endfacet
  facet normal -0 0 -1
    outer loop
      vertex 19.5 -11 0
      vertex 15.5 -15 0
      vertex 10.7678 -6.26777 0
    endloop
  endfacet
  facet normal 0 0 -1
    outer loop
      vertex 10.7678 6.26777 0
      vertex 19.5 11 0
      vertex 11.3097 5.45671 0
    endloop
  endfacet
  facet normal 0 -0 -1
    outer loop
      vertex 15.5 15 0
      vertex 19.5 11 0
      vertex 10.7678 6.26777 0
    endloop
  endfacet
  facet normal 0 0 -1
    outer loop
      vertex 19.5 -11 0
      vertex 11.3097 -5.45671 0
      vertex 11.5 -4.5 0
    endloop
  endfacet
  facet normal 0 0 -1
    outer loop
      vertex 19.5 -11 0
      vertex 10.7678 -6.26777 0
      vertex 11.3097 -5.45671 0
    endloop
  endfacet
  facet normal 0 0 -1
    outer loop
      vertex 15.5 -15 0
      vertex 9.95671 -6.8097 0
      vertex 10.7678 -6.26777 0
    endloop
  endfacet
  facet normal 0 0 -1
    outer loop
      vertex 15.5 -15 0
      vertex 9 -7 0
      vertex 9.95671 -6.8097 0
    endloop
  endfacet
  facet normal 0 0 -1
    outer loop
      vertex 15.5 -15 0
      vertex 8.04329 -6.8097 0
      vertex 9 -7 0
    endloop
  endfacet
  facet normal 0 0 -1
    outer loop
      vertex 0.956708 -6.8097 0
      vertex 8.04329 -6.8097 0
      vertex 15.5 -15 0
    endloop
  endfacet
  facet normal 0 0 -1
    outer loop
      vertex 6.5 -4.5 0
      vertex 2.5 -4.5 0
      vertex 6.5 4.5 0
    endloop
  endfacet
  facet normal 0 0 -1
    outer loop
      vertex 6.6903 -5.45671 0
      vertex 2.5 -4.5 0
      vertex 6.5 -4.5 0
    endloop
  endfacet
  facet normal 0 0 -1
    outer loop
      vertex 2.3097 -5.45671 0
      vertex 6.6903 -5.45671 0
      vertex 7.23223 -6.26777 0
    endloop
  endfacet
  facet normal 0 0 -1
    outer loop
      vertex 8.04329 -6.8097 0
      vertex 0.956708 -6.8097 0
      vertex 7.23223 -6.26777 0
    endloop
  endfacet
  facet normal 0 0 -1
    outer loop
      vertex 6.6903 -5.45671 0
      vertex 2.3097 -5.45671 0
      vertex 2.5 -4.5 0
    endloop
  endfacet
  facet normal 0 0 -1
    outer loop
      vertex 7.23223 -6.26777 0
      vertex 1.76777 -6.26777 0
      vertex 2.3097 -5.45671 0
    endloop
  endfacet
  facet normal -0 0 -1
    outer loop
      vertex 7.23223 -6.26777 0
      vertex 0.956708 -6.8097 0
      vertex 1.76777 -6.26777 0
    endloop
  endfacet
  facet normal 0 0 -1
    outer loop
      vertex 15.5 -15 0
      vertex 0 -7 0
      vertex 0.956708 -6.8097 0
    endloop
  endfacet
  facet normal 0 0 -1
    outer loop
      vertex -15.5 -15 0
      vertex 0 -7 0
      vertex 15.5 -15 0
    endloop
  endfacet
  facet normal 0 0 -1
    outer loop
      vertex -2.5 -4.5 0
      vertex -6.5 -4.5 0
      vertex -2.5 4.5 0
    endloop
  endfacet
  facet normal 0 0 -1
    outer loop
      vertex -2.3097 -5.45671 0
      vertex -6.5 -4.5 0
      vertex -2.5 -4.5 0
    endloop
  endfacet
  facet normal 0 0 -1
    outer loop
      vertex -6.6903 -5.45671 0
      vertex -2.3097 -5.45671 0
      vertex -1.76777 -6.26777 0
    endloop
  endfacet
  facet normal 0 0 -1
    outer loop
      vertex -7.23223 -6.26777 0
      vertex -1.76777 -6.26777 0
      vertex -0.956708 -6.8097 0
    endloop
  endfacet
  facet normal -0 0 -1
    outer loop
      vertex 0 -7 0
      vertex -15.5 -15 0
      vertex -0.956708 -6.8097 0
    endloop
  endfacet
  facet normal 0 0 -1
    outer loop
      vertex -2.3097 -5.45671 0
      vertex -6.6903 -5.45671 0
      vertex -6.5 -4.5 0
    endloop
  endfacet
  facet normal 0 0 -1
    outer loop
      vertex -1.76777 -6.26777 0
      vertex -7.23223 -6.26777 0
      vertex -6.6903 -5.45671 0
    endloop
  endfacet
  facet normal 0 0 -1
    outer loop
      vertex -0.956708 -6.8097 0
      vertex -8.04329 -6.8097 0
      vertex -7.23223 -6.26777 0
    endloop
  endfacet
  facet normal -0 0 -1
    outer loop
      vertex -0.956708 -6.8097 0
      vertex -15.5 -15 0
      vertex -8.04329 -6.8097 0
    endloop
  endfacet
  facet normal 0 0 -1
    outer loop
      vertex -8.04329 -6.8097 0
      vertex -15.5 -15 0
      vertex -9 -7 0
    endloop
  endfacet
  facet normal -0 0 -1
    outer loop
      vertex -11.3097 -5.45671 0
      vertex -19.5 -11 0
      vertex -11.5 -4.5 0
    endloop
  endfacet
  facet normal -0 0 -1
    outer loop
      vertex -10.7678 -6.26777 0
      vertex -19.5 -11 0
      vertex -11.3097 -5.45671 0
    endloop
  endfacet
  facet normal 0 0 -1
    outer loop
      vertex -19.5 -11 0
      vertex -10.7678 -6.26777 0
      vertex -15.5 -15 0
    endloop
  endfacet
  facet normal -0 0 -1
    outer loop
      vertex -9.95671 -6.8097 0
      vertex -15.5 -15 0
      vertex -10.7678 -6.26777 0
    endloop
  endfacet
  facet normal -0 0 -1
    outer loop
      vertex -9 -7 0
      vertex -15.5 -15 0
      vertex -9.95671 -6.8097 0
    endloop
  endfacet
  facet normal 0 0 -1
    outer loop
      vertex 19.5 11 0
      vertex 15.5 15 0
      vertex 19.1955 12.5307 0
    endloop
  endfacet
  facet normal 0 0 -1
    outer loop
      vertex 19.1955 12.5307 0
      vertex 15.5 15 0
      vertex 18.3284 13.8284 0
    endloop
  endfacet
  facet normal 0 0 -1
    outer loop
      vertex 18.3284 13.8284 0
      vertex 15.5 15 0
      vertex 17.0307 14.6955 0
    endloop
  endfacet
  facet normal 0 0 -1
    outer loop
      vertex 9.95671 6.8097 0
      vertex 15.5 15 0
      vertex 10.7678 6.26777 0
    endloop
  endfacet
  facet normal 0 0 -1
    outer loop
      vertex 9 7 0
      vertex 15.5 15 0
      vertex 9.95671 6.8097 0
    endloop
  endfacet
  facet normal 0 0 -1
    outer loop
      vertex 8.04329 6.8097 0
      vertex 15.5 15 0
      vertex 9 7 0
    endloop
  endfacet
  facet normal 0 0 -1
    outer loop
      vertex 0.956708 6.8097 0
      vertex 8.04329 6.8097 0
      vertex 7.23223 6.26777 0
    endloop
  endfacet
  facet normal 0 0 -1
    outer loop
      vertex 2.5 4.5 0
      vertex 6.5 4.5 0
      vertex 2.5 -4.5 0
    endloop
  endfacet
  facet normal 0 0 -1
    outer loop
      vertex 6.5 4.5 0
      vertex 2.5 4.5 0
      vertex 6.6903 5.45671 0
    endloop
  endfacet
  facet normal 0 0 -1
    outer loop
      vertex 2.3097 5.45671 0
      vertex 6.6903 5.45671 0
      vertex 2.5 4.5 0
    endloop
  endfacet
  facet normal 0 0 -1
    outer loop
      vertex 6.6903 5.45671 0
      vertex 2.3097 5.45671 0
      vertex 7.23223 6.26777 0
    endloop
  endfacet
  facet normal 0 0 -1
    outer loop
      vertex 1.76777 6.26777 0
      vertex 7.23223 6.26777 0
      vertex 2.3097 5.45671 0
    endloop
  endfacet
  facet normal 0 0 -1
    outer loop
      vertex 0.956708 6.8097 0
      vertex 7.23223 6.26777 0
      vertex 1.76777 6.26777 0
    endloop
  endfacet
  facet normal 0 0 -1
    outer loop
      vertex 8.04329 6.8097 0
      vertex 0.956708 6.8097 0
      vertex 15.5 15 0
    endloop
  endfacet
  facet normal 0 0 -1
    outer loop
      vertex 0 7 0
      vertex 15.5 15 0
      vertex 0.956708 6.8097 0
    endloop
  endfacet
  facet normal 0 0 -1
    outer loop
      vertex -15.5 15 0
      vertex 0 7 0
      vertex -0.956708 6.8097 0
    endloop
  endfacet
  facet normal 0 0 -1
    outer loop
      vertex -6.5 4.5 0
      vertex -2.5 4.5 0
      vertex -6.5 -4.5 0
    endloop
  endfacet
  facet normal 0 0 -1
    outer loop
      vertex -2.5 4.5 0
      vertex -6.5 4.5 0
      vertex -2.3097 5.45671 0
    endloop
  endfacet
  facet normal 0 0 -1
    outer loop
      vertex -6.6903 5.45671 0
      vertex -2.3097 5.45671 0
      vertex -6.5 4.5 0
    endloop
  endfacet
  facet normal 0 0 -1
    outer loop
      vertex -2.3097 5.45671 0
      vertex -6.6903 5.45671 0
      vertex -1.76777 6.26777 0
    endloop
  endfacet
  facet normal 0 0 -1
    outer loop
      vertex -7.23223 6.26777 0
      vertex -1.76777 6.26777 0
      vertex -6.6903 5.45671 0
    endloop
  endfacet
  facet normal 0 0 -1
    outer loop
      vertex -1.76777 6.26777 0
      vertex -7.23223 6.26777 0
      vertex -0.956708 6.8097 0
    endloop
  endfacet
  facet normal 0 0 -1
    outer loop
      vertex -8.04329 6.8097 0
      vertex -0.956708 6.8097 0
      vertex -7.23223 6.26777 0
    endloop
  endfacet
  facet normal 0 0 -1
    outer loop
      vertex -15.5 15 0
      vertex -0.956708 6.8097 0
      vertex -8.04329 6.8097 0
    endloop
  endfacet
  facet normal 0 0 -1
    outer loop
      vertex -15.5 15 0
      vertex -8.04329 6.8097 0
      vertex -9 7 0
    endloop
  endfacet
  facet normal 0 0 -1
    outer loop
      vertex -15.5 15 0
      vertex -9 7 0
      vertex -9.95671 6.8097 0
    endloop
  endfacet
  facet normal -0 0 -1
    outer loop
      vertex -11.5 -4.5 0
      vertex -19.5 -11 0
      vertex -11.5 4.5 0
    endloop
  endfacet
  facet normal 0 0 -1
    outer loop
      vertex 0 7 0
      vertex -15.5 15 0
      vertex 15.5 15 0
    endloop
  endfacet
  facet normal 0 0 -1
    outer loop
      vertex -10.7678 6.26777 0
      vertex -15.5 15 0
      vertex -9.95671 6.8097 0
    endloop
  endfacet
  facet normal 0 0 -1
    outer loop
      vertex -19.5 11 0
      vertex -10.7678 6.26777 0
      vertex -11.3097 5.45671 0
    endloop
  endfacet
  facet normal 0 0 -1
    outer loop
      vertex -19.5 11 0
      vertex -11.5 4.5 0
      vertex -19.5 -11 0
    endloop
  endfacet
  facet normal 0 0 -1
    outer loop
      vertex -19.5 -11 0
      vertex -15.5 -15 0
      vertex -17.0307 -14.6955 0
    endloop
  endfacet
  facet normal 0 0 -1
    outer loop
      vertex -11.5 4.5 0
      vertex -19.5 11 0
      vertex -11.3097 5.45671 0
    endloop
  endfacet
  facet normal 0 0 -1
    outer loop
      vertex -19.5 -11 0
      vertex -17.0307 -14.6955 0
      vertex -18.3284 -13.8284 0
    endloop
  endfacet
  facet normal 0 0 -1
    outer loop
      vertex -10.7678 6.26777 0
      vertex -19.5 11 0
      vertex -15.5 15 0
    endloop
  endfacet
  facet normal 0 0 -1
    outer loop
      vertex -19.5 -11 0
      vertex -18.3284 -13.8284 0
      vertex -19.1955 -12.5307 0
    endloop
  endfacet
  facet normal 0 0 -1
    outer loop
      vertex -15.5 15 0
      vertex -19.5 11 0
      vertex -17.0307 14.6955 0
    endloop
  endfacet
  facet normal 0 0 -1
    outer loop
      vertex -17.0307 14.6955 0
      vertex -19.5 11 0
      vertex -18.3284 13.8284 0
    endloop
  endfacet
  facet normal 0 0 -1
    outer loop
      vertex -18.3284 13.8284 0
      vertex -19.5 11 0
      vertex -19.1955 12.5307 0
    endloop
  endfacet
  facet normal -0.55557 -0.83147 0
    outer loop
      vertex -18.3284 -13.8284 0
      vertex -17.0307 -14.6955 3
      vertex -18.3284 -13.8284 3
    endloop
  endfacet
  facet normal -0.55557 -0.83147 -0
    outer loop
      vertex -17.0307 -14.6955 3
      vertex -18.3284 -13.8284 0
      vertex -17.0307 -14.6955 0
    endloop
  endfacet
  facet normal -0.55557 -0.83147 0
    outer loop
      vertex -18.3284 -13.8284 5.32843
      vertex -17.0307 -14.6955 8
      vertex -18.3284 -13.8284 8
    endloop
  endfacet
  facet normal -0.55557 -0.83147 -0
    outer loop
      vertex -17.0307 -14.6955 8
      vertex -18.3284 -13.8284 5.32843
      vertex -17.0307 -14.6955 4.03073
    endloop
  endfacet
  facet normal -0.980785 -0.19509 -0
    outer loop
      vertex -19.1955 -12.5307 8
      vertex -19.5 -11 6.5
      vertex -19.1955 -12.5307 6.19552
    endloop
  endfacet
  facet normal -0.980785 -0.19509 0
    outer loop
      vertex -19.5 -11 6.5
      vertex -19.1955 -12.5307 8
      vertex -19.5 -11 8
    endloop
  endfacet
  facet normal -0.980785 -0.19509 0
    outer loop
      vertex -19.1955 -12.5307 0
      vertex -19.5 -11 3
      vertex -19.5 -11 0
    endloop
  endfacet
  facet normal -0.980785 -0.19509 0
    outer loop
      vertex -19.5 -11 3
      vertex -19.1955 -12.5307 0
      vertex -19.1955 -12.5307 3
    endloop
  endfacet
  facet normal -0.831469 -0.555571 0
    outer loop
      vertex -18.3284 -13.8284 0
      vertex -19.1955 -12.5307 3
      vertex -19.1955 -12.5307 0
    endloop
  endfacet
  facet normal -0.831469 -0.555571 0
    outer loop
      vertex -19.1955 -12.5307 3
      vertex -18.3284 -13.8284 0
      vertex -18.3284 -13.8284 3
    endloop
  endfacet
  facet normal -0.831469 -0.555571 -0
    outer loop
      vertex -18.3284 -13.8284 8
      vertex -19.1955 -12.5307 6.19552
      vertex -18.3284 -13.8284 5.32843
    endloop
  endfacet
  facet normal -0.831469 -0.555571 0
    outer loop
      vertex -19.1955 -12.5307 6.19552
      vertex -18.3284 -13.8284 8
      vertex -19.1955 -12.5307 8
    endloop
  endfacet
  facet normal -0.980785 0.19509 0
    outer loop
      vertex -19.5 11 0
      vertex -19.1955 12.5307 3
      vertex -19.1955 12.5307 0
    endloop
  endfacet
  facet normal -0.980785 0.19509 0
    outer loop
      vertex -19.1955 12.5307 3
      vertex -19.5 11 0
      vertex -19.5 11 3
    endloop
  endfacet
  facet normal -0.980785 0.19509 0
    outer loop
      vertex -19.5 11 6.5
      vertex -19.1955 12.5307 8
      vertex -19.1955 12.5307 6.19552
    endloop
  endfacet
  facet normal -0.980785 0.19509 0
    outer loop
      vertex -19.1955 12.5307 8
      vertex -19.5 11 6.5
      vertex -19.5 11 8
    endloop
  endfacet
  facet normal -0.55557 0.83147 0
    outer loop
      vertex -17.0307 14.6955 8
      vertex -18.3284 13.8284 5.32843
      vertex -18.3284 13.8284 8
    endloop
  endfacet
  facet normal -0.55557 0.83147 0
    outer loop
      vertex -18.3284 13.8284 5.32843
      vertex -17.0307 14.6955 8
      vertex -17.0307 14.6955 4.03073
    endloop
  endfacet
  facet normal -0.55557 0.83147 0
    outer loop
      vertex -17.0307 14.6955 0
      vertex -18.3284 13.8284 3
      vertex -17.0307 14.6955 3
    endloop
  endfacet
  facet normal -0.55557 0.83147 0
    outer loop
      vertex -18.3284 13.8284 3
      vertex -17.0307 14.6955 0
      vertex -18.3284 13.8284 0
    endloop
  endfacet
  facet normal -0.831469 0.555571 0
    outer loop
      vertex -19.1955 12.5307 0
      vertex -18.3284 13.8284 3
      vertex -18.3284 13.8284 0
    endloop
  endfacet
  facet normal -0.831469 0.555571 0
    outer loop
      vertex -18.3284 13.8284 3
      vertex -19.1955 12.5307 0
      vertex -19.1955 12.5307 3
    endloop
  endfacet
  facet normal -0.831469 0.555571 0
    outer loop
      vertex -19.1955 12.5307 6.19552
      vertex -18.3284 13.8284 8
      vertex -18.3284 13.8284 5.32843
    endloop
  endfacet
  facet normal -0.831469 0.555571 0
    outer loop
      vertex -18.3284 13.8284 8
      vertex -19.1955 12.5307 6.19552
      vertex -19.1955 12.5307 8
    endloop
  endfacet
  facet normal -0.195091 0.980785 0
    outer loop
      vertex -15.5 15 8
      vertex -17.0307 14.6955 4.03073
      vertex -17.0307 14.6955 8
    endloop
  endfacet
  facet normal -0.195087 0.980786 -1.3974e-06
    outer loop
      vertex -15.5 15 8
      vertex -17 14.7016 4
      vertex -17.0307 14.6955 4.03073
    endloop
  endfacet
  facet normal -0.195091 0.980785 0
    outer loop
      vertex -15.5 15 0
      vertex -17 14.7016 4
      vertex -15.5 15 8
    endloop
  endfacet
  facet normal -0.195091 0.980785 0
    outer loop
      vertex -17 14.7016 4
      vertex -15.5 15 0
      vertex -17 14.7016 3
    endloop
  endfacet
  facet normal -0.195091 0.980785 5.14361e-08
    outer loop
      vertex -17.0307 14.6955 0
      vertex -17 14.7016 3
      vertex -15.5 15 0
    endloop
  endfacet
  facet normal -0.195086 0.980786 0
    outer loop
      vertex -17 14.7016 3
      vertex -17.0307 14.6955 0
      vertex -17.0307 14.6955 3
    endloop
  endfacet
  facet normal 0.195091 -0.980785 0
    outer loop
      vertex 15.5 -15 8
      vertex 17.0307 -14.6955 4.03073
      vertex 17.0307 -14.6955 8
    endloop
  endfacet
  facet normal 0.195087 -0.980786 -1.3974e-06
    outer loop
      vertex 15.5 -15 8
      vertex 17 -14.7016 4
      vertex 17.0307 -14.6955 4.03073
    endloop
  endfacet
  facet normal 0.195091 -0.980785 0
    outer loop
      vertex 15.5 -15 0
      vertex 17 -14.7016 4
      vertex 15.5 -15 8
    endloop
  endfacet
  facet normal 0.195091 -0.980785 0
    outer loop
      vertex 17 -14.7016 4
      vertex 15.5 -15 0
      vertex 17 -14.7016 3
    endloop
  endfacet
  facet normal 0.195091 -0.980785 5.14361e-08
    outer loop
      vertex 17.0307 -14.6955 0
      vertex 17 -14.7016 3
      vertex 15.5 -15 0
    endloop
  endfacet
  facet normal 0.195086 -0.980786 0
    outer loop
      vertex 17 -14.7016 3
      vertex 17.0307 -14.6955 0
      vertex 17.0307 -14.6955 3
    endloop
  endfacet
  facet normal 0.980785 -0.19509 0
    outer loop
      vertex 19.1955 -12.5307 8
      vertex 19.5 -11 6.5
      vertex 19.5 -11 8
    endloop
  endfacet
  facet normal 0.980785 -0.19509 0
    outer loop
      vertex 19.5 -11 6.5
      vertex 19.1955 -12.5307 8
      vertex 19.1955 -12.5307 6.19552
    endloop
  endfacet
  facet normal 0.980785 -0.19509 0
    outer loop
      vertex 19.1955 -12.5307 3
      vertex 19.5 -11 0
      vertex 19.5 -11 3
    endloop
  endfacet
  facet normal 0.980785 -0.19509 0
    outer loop
      vertex 19.5 -11 0
      vertex 19.1955 -12.5307 3
      vertex 19.1955 -12.5307 0
    endloop
  endfacet
  facet normal 0.55557 -0.83147 0
    outer loop
      vertex 17.0307 -14.6955 0
      vertex 18.3284 -13.8284 3
      vertex 17.0307 -14.6955 3
    endloop
  endfacet
  facet normal 0.55557 -0.83147 0
    outer loop
      vertex 18.3284 -13.8284 3
      vertex 17.0307 -14.6955 0
      vertex 18.3284 -13.8284 0
    endloop
  endfacet
  facet normal 0.55557 -0.83147 0
    outer loop
      vertex 17.0307 -14.6955 8
      vertex 18.3284 -13.8284 5.32843
      vertex 18.3284 -13.8284 8
    endloop
  endfacet
  facet normal 0.55557 -0.83147 0
    outer loop
      vertex 18.3284 -13.8284 5.32843
      vertex 17.0307 -14.6955 8
      vertex 17.0307 -14.6955 4.03073
    endloop
  endfacet
  facet normal 0.831469 -0.555571 0
    outer loop
      vertex 18.3284 -13.8284 8
      vertex 19.1955 -12.5307 6.19552
      vertex 19.1955 -12.5307 8
    endloop
  endfacet
  facet normal 0.831469 -0.555571 0
    outer loop
      vertex 19.1955 -12.5307 6.19552
      vertex 18.3284 -13.8284 8
      vertex 18.3284 -13.8284 5.32843
    endloop
  endfacet
  facet normal 0.831469 -0.555571 0
    outer loop
      vertex 18.3284 -13.8284 3
      vertex 19.1955 -12.5307 0
      vertex 19.1955 -12.5307 3
    endloop
  endfacet
  facet normal 0.831469 -0.555571 0
    outer loop
      vertex 19.1955 -12.5307 0
      vertex 18.3284 -13.8284 3
      vertex 18.3284 -13.8284 0
    endloop
  endfacet
  facet normal 0.980785 0.19509 -0
    outer loop
      vertex 19.5 11 6.5
      vertex 19.1955 12.5307 8
      vertex 19.5 11 8
    endloop
  endfacet
  facet normal 0.980785 0.19509 0
    outer loop
      vertex 19.1955 12.5307 8
      vertex 19.5 11 6.5
      vertex 19.1955 12.5307 6.19552
    endloop
  endfacet
  facet normal 0.980785 0.19509 0
    outer loop
      vertex 19.5 11 3
      vertex 19.1955 12.5307 0
      vertex 19.1955 12.5307 3
    endloop
  endfacet
  facet normal 0.980785 0.19509 0
    outer loop
      vertex 19.1955 12.5307 0
      vertex 19.5 11 3
      vertex 19.5 11 0
    endloop
  endfacet
  facet normal 0.55557 0.83147 -0
    outer loop
      vertex 18.3284 13.8284 0
      vertex 17.0307 14.6955 3
      vertex 18.3284 13.8284 3
    endloop
  endfacet
  facet normal 0.55557 0.83147 0
    outer loop
      vertex 17.0307 14.6955 3
      vertex 18.3284 13.8284 0
      vertex 17.0307 14.6955 0
    endloop
  endfacet
  facet normal 0.55557 0.83147 -0
    outer loop
      vertex 18.3284 13.8284 5.32843
      vertex 17.0307 14.6955 8
      vertex 18.3284 13.8284 8
    endloop
  endfacet
  facet normal 0.55557 0.83147 0
    outer loop
      vertex 17.0307 14.6955 8
      vertex 18.3284 13.8284 5.32843
      vertex 17.0307 14.6955 4.03073
    endloop
  endfacet
  facet normal 0.831469 0.555571 0
    outer loop
      vertex 19.1955 12.5307 3
      vertex 18.3284 13.8284 0
      vertex 18.3284 13.8284 3
    endloop
  endfacet
  facet normal 0.831469 0.555571 0
    outer loop
      vertex 18.3284 13.8284 0
      vertex 19.1955 12.5307 3
      vertex 19.1955 12.5307 0
    endloop
  endfacet
  facet normal 0.831469 0.555571 -0
    outer loop
      vertex 19.1955 12.5307 6.19552
      vertex 18.3284 13.8284 8
      vertex 19.1955 12.5307 8
    endloop
  endfacet
  facet normal 0.831469 0.555571 0
    outer loop
      vertex 18.3284 13.8284 8
      vertex 19.1955 12.5307 6.19552
      vertex 18.3284 13.8284 5.32843
    endloop
  endfacet
  facet normal 0.195086 0.980786 0
    outer loop
      vertex 17.0307 14.6955 3
      vertex 17.0307 14.6955 0
      vertex 17 14.7016 3
    endloop
  endfacet
  facet normal 0.195091 0.980785 -0
    outer loop
      vertex 17.0307 14.6955 4.03073
      vertex 15.5 15 8
      vertex 17.0307 14.6955 8
    endloop
  endfacet
  facet normal 0.195087 0.980786 -1.3974e-06
    outer loop
      vertex 17 14.7016 4
      vertex 15.5 15 8
      vertex 17.0307 14.6955 4.03073
    endloop
  endfacet
  facet normal 0.195091 0.980785 0
    outer loop
      vertex 15.5 15 0
      vertex 17 14.7016 4
      vertex 17 14.7016 3
    endloop
  endfacet
  facet normal 0.195091 0.980785 5.14361e-08
    outer loop
      vertex 15.5 15 0
      vertex 17 14.7016 3
      vertex 17.0307 14.6955 0
    endloop
  endfacet
  facet normal 0.195091 0.980785 0
    outer loop
      vertex 17 14.7016 4
      vertex 15.5 15 0
      vertex 15.5 15 8
    endloop
  endfacet
  facet normal 0 -1 0
    outer loop
      vertex -15.5 -15 8
      vertex -4 -15 5
      vertex -4 -15 8
    endloop
  endfacet
  facet normal 0 -1 -0
    outer loop
      vertex -4 -15 5
      vertex -15.5 -15 0
      vertex 4 -15 5
    endloop
  endfacet
  facet normal 0 -1 0
    outer loop
      vertex -15.5 -15 0
      vertex -4 -15 5
      vertex -15.5 -15 8
    endloop
  endfacet
  facet normal 0 -1 0
    outer loop
      vertex 4 -15 5
      vertex 15.5 -15 8
      vertex 4 -15 8
    endloop
  endfacet
  facet normal 0 -1 0
    outer loop
      vertex 4 -15 5
      vertex 15.5 -15 0
      vertex 15.5 -15 8
    endloop
  endfacet
  facet normal 0 -1 0
    outer loop
      vertex 15.5 -15 0
      vertex 4 -15 5
      vertex -15.5 -15 0
    endloop
  endfacet
  facet normal 0 1 0
    outer loop
      vertex 15.5 15 8
      vertex 4 15 5
      vertex 4 15 8
    endloop
  endfacet
  facet normal 0 1 0
    outer loop
      vertex 4 15 5
      vertex 15.5 15 0
      vertex -4 15 5
    endloop
  endfacet
  facet normal 0 1 -0
    outer loop
      vertex 15.5 15 0
      vertex 4 15 5
      vertex 15.5 15 8
    endloop
  endfacet
  facet normal 0 1 -0
    outer loop
      vertex -4 15 5
      vertex -15.5 15 8
      vertex -4 15 8
    endloop
  endfacet
  facet normal 0 1 0
    outer loop
      vertex -4 15 5
      vertex -15.5 15 0
      vertex -15.5 15 8
    endloop
  endfacet
  facet normal 0 1 0
    outer loop
      vertex -15.5 15 0
      vertex -4 15 5
      vertex 15.5 15 0
    endloop
  endfacet
  facet normal -1 0 0
    outer loop
      vertex -19.5 -11 6.5
      vertex -19.5 11 8
      vertex -19.5 11 6.5
    endloop
  endfacet
  facet normal -1 -0 0
    outer loop
      vertex -19.5 11 8
      vertex -19.5 -11 6.5
      vertex -19.5 -11 8
    endloop
  endfacet
  facet normal -1 0 0
    outer loop
      vertex -19.5 -11 0
      vertex -19.5 11 3
      vertex -19.5 11 0
    endloop
  endfacet
  facet normal -1 -0 0
    outer loop
      vertex -19.5 11 3
      vertex -19.5 -11 0
      vertex -19.5 -11 3
    endloop
  endfacet
  facet normal 1 -0 0
    outer loop
      vertex 19.5 -11 8
      vertex 19.5 11 6.5
      vertex 19.5 11 8
    endloop
  endfacet
  facet normal 1 0 0
    outer loop
      vertex 19.5 11 6.5
      vertex 19.5 -11 8
      vertex 19.5 -11 6.5
    endloop
  endfacet
  facet normal 1 -0 0
    outer loop
      vertex 19.5 -11 3
      vertex 19.5 11 0
      vertex 19.5 11 3
    endloop
  endfacet
  facet normal 1 0 0
    outer loop
      vertex 19.5 11 0
      vertex 19.5 -11 3
      vertex 19.5 -11 0
    endloop
  endfacet
  facet normal 0 0 1
    outer loop
      vertex 15.5 7 3
      vertex 11.3097 5.45671 3
      vertex 11.5 4.5 3
    endloop
  endfacet
  facet normal 0 0 1
    outer loop
      vertex 13.0307 10.6955 3
      vertex 10.7678 6.26777 3
      vertex 11.3097 5.45671 3
    endloop
  endfacet
  facet normal 0 0 1
    outer loop
      vertex 11.5 11 3
      vertex 9.95671 6.8097 3
      vertex 10.7678 6.26777 3
    endloop
  endfacet
  facet normal 0 0 1
    outer loop
      vertex 11.5 11 3
      vertex 9 7 3
      vertex 9.95671 6.8097 3
    endloop
  endfacet
  facet normal 0 0 1
    outer loop
      vertex 11.5 11 3
      vertex 8.04329 6.8097 3
      vertex 9 7 3
    endloop
  endfacet
  facet normal 0 0 1
    outer loop
      vertex 0.956708 6.8097 3
      vertex 8.04329 6.8097 3
      vertex 11.5 11 3
    endloop
  endfacet
  facet normal 0 0 1
    outer loop
      vertex 6.5 4.5 3
      vertex 2.5 4.5 3
      vertex 6.5 -4.5 3
    endloop
  endfacet
  facet normal 0 0 1
    outer loop
      vertex 6.6903 5.45671 3
      vertex 2.5 4.5 3
      vertex 6.5 4.5 3
    endloop
  endfacet
  facet normal 0 0 1
    outer loop
      vertex 2.3097 5.45671 3
      vertex 6.6903 5.45671 3
      vertex 7.23223 6.26777 3
    endloop
  endfacet
  facet normal 0 0 1
    outer loop
      vertex 8.04329 6.8097 3
      vertex 0.956708 6.8097 3
      vertex 7.23223 6.26777 3
    endloop
  endfacet
  facet normal 0 0 1
    outer loop
      vertex 6.6903 5.45671 3
      vertex 2.3097 5.45671 3
      vertex 2.5 4.5 3
    endloop
  endfacet
  facet normal 0 0 1
    outer loop
      vertex 7.23223 6.26777 3
      vertex 1.76777 6.26777 3
      vertex 2.3097 5.45671 3
    endloop
  endfacet
  facet normal 0 0 1
    outer loop
      vertex 7.23223 6.26777 3
      vertex 0.956708 6.8097 3
      vertex 1.76777 6.26777 3
    endloop
  endfacet
  facet normal 0 0 1
    outer loop
      vertex 11.5 11 3
      vertex 0 7 3
      vertex 0.956708 6.8097 3
    endloop
  endfacet
  facet normal -0 0 1
    outer loop
      vertex -11.5 11 3
      vertex 0 7 3
      vertex 11.5 11 3
    endloop
  endfacet
  facet normal 0 0 1
    outer loop
      vertex -2.5 4.5 3
      vertex -6.5 4.5 3
      vertex -2.5 -4.5 3
    endloop
  endfacet
  facet normal 0 0 1
    outer loop
      vertex -2.3097 5.45671 3
      vertex -6.5 4.5 3
      vertex -2.5 4.5 3
    endloop
  endfacet
  facet normal 0 0 1
    outer loop
      vertex -6.6903 5.45671 3
      vertex -2.3097 5.45671 3
      vertex -1.76777 6.26777 3
    endloop
  endfacet
  facet normal 0 0 1
    outer loop
      vertex -7.23223 6.26777 3
      vertex -1.76777 6.26777 3
      vertex -0.956708 6.8097 3
    endloop
  endfacet
  facet normal 0 0 1
    outer loop
      vertex -2.3097 5.45671 3
      vertex -6.6903 5.45671 3
      vertex -6.5 4.5 3
    endloop
  endfacet
  facet normal 0 0 1
    outer loop
      vertex 0 7 3
      vertex -11.5 11 3
      vertex -0.956708 6.8097 3
    endloop
  endfacet
  facet normal 0 0 1
    outer loop
      vertex -1.76777 6.26777 3
      vertex -7.23223 6.26777 3
      vertex -6.6903 5.45671 3
    endloop
  endfacet
  facet normal 0 -0 1
    outer loop
      vertex -8.04329 6.8097 3
      vertex -0.956708 6.8097 3
      vertex -11.5 11 3
    endloop
  endfacet
  facet normal 0 0 1
    outer loop
      vertex -0.956708 6.8097 3
      vertex -8.04329 6.8097 3
      vertex -7.23223 6.26777 3
    endloop
  endfacet
  facet normal 0 0 1
    outer loop
      vertex -8.04329 6.8097 3
      vertex -11.5 11 3
      vertex -9 7 3
    endloop
  endfacet
  facet normal 0 0 1
    outer loop
      vertex -11.5 11 3
      vertex -9.95671 6.8097 3
      vertex -9 7 3
    endloop
  endfacet
  facet normal 0 0 1
    outer loop
      vertex -11.5 11 3
      vertex -10.7678 6.26777 3
      vertex -9.95671 6.8097 3
    endloop
  endfacet
  facet normal -0 0 1
    outer loop
      vertex -13.0307 10.6955 3
      vertex -10.7678 6.26777 3
      vertex -11.5 11 3
    endloop
  endfacet
  facet normal -0 0 1
    outer loop
      vertex -14.3284 9.82843 3
      vertex -10.7678 6.26777 3
      vertex -13.0307 10.6955 3
    endloop
  endfacet
  facet normal -0 0 1
    outer loop
      vertex -15.1955 8.53073 3
      vertex -10.7678 6.26777 3
      vertex -14.3284 9.82843 3
    endloop
  endfacet
  facet normal 0 0 1
    outer loop
      vertex -11.5 4.5 3
      vertex -15.5 7 3
      vertex -11.5 -4.5 3
    endloop
  endfacet
  facet normal -0 0 1
    outer loop
      vertex -15.5 7 3
      vertex -10.7678 6.26777 3
      vertex -15.1955 8.53073 3
    endloop
  endfacet
  facet normal 0 0 1
    outer loop
      vertex -15.5 -7 3
      vertex -11.5 -4.5 3
      vertex -15.5 7 3
    endloop
  endfacet
  facet normal 0 0 1
    outer loop
      vertex -10.7678 6.26777 3
      vertex -15.5 7 3
      vertex -11.3097 5.45671 3
    endloop
  endfacet
  facet normal 0 -0 1
    outer loop
      vertex -15.1955 -8.53073 3
      vertex -11.5 -4.5 3
      vertex -15.5 -7 3
    endloop
  endfacet
  facet normal 0 0 1
    outer loop
      vertex -11.3097 5.45671 3
      vertex -15.5 7 3
      vertex -11.5 4.5 3
    endloop
  endfacet
  facet normal 0 0 1
    outer loop
      vertex -11.5 -4.5 3
      vertex -13.0307 -10.6955 3
      vertex -11.5 -11 3
    endloop
  endfacet
  facet normal 0 0 1
    outer loop
      vertex -11.5 -4.5 3
      vertex -14.3284 -9.82843 3
      vertex -13.0307 -10.6955 3
    endloop
  endfacet
  facet normal 0 0 1
    outer loop
      vertex -11.5 -4.5 3
      vertex -15.1955 -8.53073 3
      vertex -14.3284 -9.82843 3
    endloop
  endfacet
  facet normal 0 0 1
    outer loop
      vertex 11.3097 5.45671 3
      vertex 15.5 7 3
      vertex 15.1955 8.53073 3
    endloop
  endfacet
  facet normal 0 0 1
    outer loop
      vertex 15.5 7 3
      vertex 11.5 4.5 3
      vertex 15.5 -7 3
    endloop
  endfacet
  facet normal 0 0 1
    outer loop
      vertex 11.3097 5.45671 3
      vertex 15.1955 8.53073 3
      vertex 14.3284 9.82843 3
    endloop
  endfacet
  facet normal -0 0 1
    outer loop
      vertex 11.5 -4.5 3
      vertex 15.5 -7 3
      vertex 11.5 4.5 3
    endloop
  endfacet
  facet normal 0 0 1
    outer loop
      vertex 11.3097 5.45671 3
      vertex 14.3284 9.82843 3
      vertex 13.0307 10.6955 3
    endloop
  endfacet
  facet normal -0 0 1
    outer loop
      vertex 11.3097 -5.45671 3
      vertex 15.5 -7 3
      vertex 11.5 -4.5 3
    endloop
  endfacet
  facet normal 0 0 1
    outer loop
      vertex 10.7678 6.26777 3
      vertex 13.0307 10.6955 3
      vertex 11.5 11 3
    endloop
  endfacet
  facet normal -0 0 1
    outer loop
      vertex 10.7678 -6.26777 3
      vertex 15.5 -7 3
      vertex 11.3097 -5.45671 3
    endloop
  endfacet
  facet normal 0 0 1
    outer loop
      vertex 15.5 -7 3
      vertex 10.7678 -6.26777 3
      vertex 15.1955 -8.53073 3
    endloop
  endfacet
  facet normal 0 0 1
    outer loop
      vertex 15.1955 -8.53073 3
      vertex 10.7678 -6.26777 3
      vertex 14.3284 -9.82843 3
    endloop
  endfacet
  facet normal 0 0 1
    outer loop
      vertex 14.3284 -9.82843 3
      vertex 10.7678 -6.26777 3
      vertex 13.0307 -10.6955 3
    endloop
  endfacet
  facet normal 0 0 1
    outer loop
      vertex 13.0307 -10.6955 3
      vertex 10.7678 -6.26777 3
      vertex 11.5 -11 3
    endloop
  endfacet
  facet normal -0 0 1
    outer loop
      vertex 9.95671 -6.8097 3
      vertex 11.5 -11 3
      vertex 10.7678 -6.26777 3
    endloop
  endfacet
  facet normal -0 0 1
    outer loop
      vertex 9 -7 3
      vertex 11.5 -11 3
      vertex 9.95671 -6.8097 3
    endloop
  endfacet
  facet normal 0 0 1
    outer loop
      vertex 8.04329 -6.8097 3
      vertex 11.5 -11 3
      vertex 9 -7 3
    endloop
  endfacet
  facet normal 0 0 1
    outer loop
      vertex 0.956708 -6.8097 3
      vertex 8.04329 -6.8097 3
      vertex 7.23223 -6.26777 3
    endloop
  endfacet
  facet normal 0 0 1
    outer loop
      vertex 2.5 -4.5 3
      vertex 6.5 -4.5 3
      vertex 2.5 4.5 3
    endloop
  endfacet
  facet normal 0 0 1
    outer loop
      vertex 6.5 -4.5 3
      vertex 2.5 -4.5 3
      vertex 6.6903 -5.45671 3
    endloop
  endfacet
  facet normal 0 0 1
    outer loop
      vertex 2.3097 -5.45671 3
      vertex 6.6903 -5.45671 3
      vertex 2.5 -4.5 3
    endloop
  endfacet
  facet normal 0 0 1
    outer loop
      vertex 6.6903 -5.45671 3
      vertex 2.3097 -5.45671 3
      vertex 7.23223 -6.26777 3
    endloop
  endfacet
  facet normal 0 0 1
    outer loop
      vertex 1.76777 -6.26777 3
      vertex 7.23223 -6.26777 3
      vertex 2.3097 -5.45671 3
    endloop
  endfacet
  facet normal 0 0 1
    outer loop
      vertex 0.956708 -6.8097 3
      vertex 7.23223 -6.26777 3
      vertex 1.76777 -6.26777 3
    endloop
  endfacet
  facet normal 0 0 1
    outer loop
      vertex 8.04329 -6.8097 3
      vertex 0.956708 -6.8097 3
      vertex 11.5 -11 3
    endloop
  endfacet
  facet normal -0 0 1
    outer loop
      vertex 0 -7 3
      vertex 11.5 -11 3
      vertex 0.956708 -6.8097 3
    endloop
  endfacet
  facet normal 0 0 1
    outer loop
      vertex -11.5 -11 3
      vertex 0 -7 3
      vertex -0.956708 -6.8097 3
    endloop
  endfacet
  facet normal 0 0 1
    outer loop
      vertex -6.5 -4.5 3
      vertex -2.5 -4.5 3
      vertex -6.5 4.5 3
    endloop
  endfacet
  facet normal 0 0 1
    outer loop
      vertex -2.5 -4.5 3
      vertex -6.5 -4.5 3
      vertex -2.3097 -5.45671 3
    endloop
  endfacet
  facet normal 0 0 1
    outer loop
      vertex -6.6903 -5.45671 3
      vertex -2.3097 -5.45671 3
      vertex -6.5 -4.5 3
    endloop
  endfacet
  facet normal 0 0 1
    outer loop
      vertex -2.3097 -5.45671 3
      vertex -6.6903 -5.45671 3
      vertex -1.76777 -6.26777 3
    endloop
  endfacet
  facet normal 0 0 1
    outer loop
      vertex -7.23223 -6.26777 3
      vertex -1.76777 -6.26777 3
      vertex -6.6903 -5.45671 3
    endloop
  endfacet
  facet normal 0 0 1
    outer loop
      vertex -1.76777 -6.26777 3
      vertex -7.23223 -6.26777 3
      vertex -0.956708 -6.8097 3
    endloop
  endfacet
  facet normal 0 0 1
    outer loop
      vertex -8.04329 -6.8097 3
      vertex -0.956708 -6.8097 3
      vertex -7.23223 -6.26777 3
    endloop
  endfacet
  facet normal 0 0 1
    outer loop
      vertex -0.956708 -6.8097 3
      vertex -8.04329 -6.8097 3
      vertex -11.5 -11 3
    endloop
  endfacet
  facet normal 0 0 1
    outer loop
      vertex -11.5 -11 3
      vertex -8.04329 -6.8097 3
      vertex -9 -7 3
    endloop
  endfacet
  facet normal 0 0 1
    outer loop
      vertex 0 -7 3
      vertex -11.5 -11 3
      vertex 11.5 -11 3
    endloop
  endfacet
  facet normal 0 0 1
    outer loop
      vertex -9.95671 -6.8097 3
      vertex -11.5 -11 3
      vertex -9 -7 3
    endloop
  endfacet
  facet normal 0 0 1
    outer loop
      vertex -10.7678 -6.26777 3
      vertex -11.5 -11 3
      vertex -9.95671 -6.8097 3
    endloop
  endfacet
  facet normal 0 0 1
    outer loop
      vertex -11.3097 -5.45671 3
      vertex -11.5 -11 3
      vertex -10.7678 -6.26777 3
    endloop
  endfacet
  facet normal 0 0 1
    outer loop
      vertex -11.5 -11 3
      vertex -11.3097 -5.45671 3
      vertex -11.5 -4.5 3
    endloop
  endfacet
  facet normal 0.55557 0.83147 -0
    outer loop
      vertex -13.0307 -10.6955 3
      vertex -14.3284 -9.82843 8
      vertex -13.0307 -10.6955 8
    endloop
  endfacet
  facet normal 0.55557 0.83147 0
    outer loop
      vertex -14.3284 -9.82843 8
      vertex -13.0307 -10.6955 3
      vertex -14.3284 -9.82843 3
    endloop
  endfacet
  facet normal 0.980785 0.195091 0
    outer loop
      vertex -15.1955 -8.53073 8
      vertex -15.5 -7 3
      vertex -15.5 -7 8
    endloop
  endfacet
  facet normal 0.980785 0.195091 0
    outer loop
      vertex -15.5 -7 3
      vertex -15.1955 -8.53073 8
      vertex -15.1955 -8.53073 3
    endloop
  endfacet
  facet normal 0.195091 0.980785 -0
    outer loop
      vertex -11.5 -11 3
      vertex -13.0307 -10.6955 8
      vertex -11.5 -11 8
    endloop
  endfacet
  facet normal 0.195091 0.980785 0
    outer loop
      vertex -13.0307 -10.6955 8
      vertex -11.5 -11 3
      vertex -13.0307 -10.6955 3
    endloop
  endfacet
  facet normal 0.83147 0.55557 0
    outer loop
      vertex -14.3284 -9.82843 8
      vertex -15.1955 -8.53073 3
      vertex -15.1955 -8.53073 8
    endloop
  endfacet
  facet normal 0.83147 0.55557 0
    outer loop
      vertex -15.1955 -8.53073 3
      vertex -14.3284 -9.82843 8
      vertex -14.3284 -9.82843 3
    endloop
  endfacet
  facet normal 0.980785 -0.195091 0
    outer loop
      vertex -15.5 7 8
      vertex -15.1955 8.53073 3
      vertex -15.1955 8.53073 8
    endloop
  endfacet
  facet normal 0.980785 -0.195091 0
    outer loop
      vertex -15.1955 8.53073 3
      vertex -15.5 7 8
      vertex -15.5 7 3
    endloop
  endfacet
  facet normal 0.55557 -0.83147 0
    outer loop
      vertex -14.3284 9.82843 3
      vertex -13.0307 10.6955 8
      vertex -14.3284 9.82843 8
    endloop
  endfacet
  facet normal 0.55557 -0.83147 0
    outer loop
      vertex -13.0307 10.6955 8
      vertex -14.3284 9.82843 3
      vertex -13.0307 10.6955 3
    endloop
  endfacet
  facet normal 0.83147 -0.55557 0
    outer loop
      vertex -15.1955 8.53073 8
      vertex -14.3284 9.82843 3
      vertex -14.3284 9.82843 8
    endloop
  endfacet
  facet normal 0.83147 -0.55557 0
    outer loop
      vertex -14.3284 9.82843 3
      vertex -15.1955 8.53073 8
      vertex -15.1955 8.53073 3
    endloop
  endfacet
  facet normal 0.195091 -0.980785 0
    outer loop
      vertex -13.0307 10.6955 3
      vertex -11.5 11 8
      vertex -13.0307 10.6955 8
    endloop
  endfacet
  facet normal 0.195091 -0.980785 0
    outer loop
      vertex -11.5 11 8
      vertex -13.0307 10.6955 3
      vertex -11.5 11 3
    endloop
  endfacet
  facet normal -0.980785 0.195091 0
    outer loop
      vertex 15.1955 -8.53073 3
      vertex 15.5 -7 8
      vertex 15.5 -7 3
    endloop
  endfacet
  facet normal -0.980785 0.195091 0
    outer loop
      vertex 15.5 -7 8
      vertex 15.1955 -8.53073 3
      vertex 15.1955 -8.53073 8
    endloop
  endfacet
  facet normal -0.55557 0.83147 0
    outer loop
      vertex 14.3284 -9.82843 3
      vertex 13.0307 -10.6955 8
      vertex 14.3284 -9.82843 8
    endloop
  endfacet
  facet normal -0.55557 0.83147 0
    outer loop
      vertex 13.0307 -10.6955 8
      vertex 14.3284 -9.82843 3
      vertex 13.0307 -10.6955 3
    endloop
  endfacet
  facet normal -0.83147 0.55557 0
    outer loop
      vertex 14.3284 -9.82843 3
      vertex 15.1955 -8.53073 8
      vertex 15.1955 -8.53073 3
    endloop
  endfacet
  facet normal -0.83147 0.55557 0
    outer loop
      vertex 15.1955 -8.53073 8
      vertex 14.3284 -9.82843 3
      vertex 14.3284 -9.82843 8
    endloop
  endfacet
  facet normal -0.195091 0.980785 0
    outer loop
      vertex 13.0307 -10.6955 3
      vertex 11.5 -11 8
      vertex 13.0307 -10.6955 8
    endloop
  endfacet
  facet normal -0.195091 0.980785 0
    outer loop
      vertex 11.5 -11 8
      vertex 13.0307 -10.6955 3
      vertex 11.5 -11 3
    endloop
  endfacet
  facet normal -0.980785 -0.195091 0
    outer loop
      vertex 15.5 7 3
      vertex 15.1955 8.53073 8
      vertex 15.1955 8.53073 3
    endloop
  endfacet
  facet normal -0.980785 -0.195091 0
    outer loop
      vertex 15.1955 8.53073 8
      vertex 15.5 7 3
      vertex 15.5 7 8
    endloop
  endfacet
  facet normal -0.195091 -0.980785 0
    outer loop
      vertex 11.5 11 3
      vertex 13.0307 10.6955 8
      vertex 11.5 11 8
    endloop
  endfacet
  facet normal -0.195091 -0.980785 -0
    outer loop
      vertex 13.0307 10.6955 8
      vertex 11.5 11 3
      vertex 13.0307 10.6955 3
    endloop
  endfacet
  facet normal -0.55557 -0.83147 0
    outer loop
      vertex 13.0307 10.6955 3
      vertex 14.3284 9.82843 8
      vertex 13.0307 10.6955 8
    endloop
  endfacet
  facet normal -0.55557 -0.83147 -0
    outer loop
      vertex 14.3284 9.82843 8
      vertex 13.0307 10.6955 3
      vertex 14.3284 9.82843 3
    endloop
  endfacet
  facet normal -0.83147 -0.55557 0
    outer loop
      vertex 15.1955 8.53073 3
      vertex 14.3284 9.82843 8
      vertex 14.3284 9.82843 3
    endloop
  endfacet
  facet normal -0.83147 -0.55557 0
    outer loop
      vertex 14.3284 9.82843 8
      vertex 15.1955 8.53073 3
      vertex 15.1955 8.53073 8
    endloop
  endfacet
  facet normal 0 1 -0
    outer loop
      vertex 11.5 -11 3
      vertex -11.5 -11 8
      vertex 11.5 -11 8
    endloop
  endfacet
  facet normal 0 1 0
    outer loop
      vertex -11.5 -11 8
      vertex 11.5 -11 3
      vertex -11.5 -11 3
    endloop
  endfacet
  facet normal 0 -1 0
    outer loop
      vertex -11.5 11 3
      vertex 11.5 11 8
      vertex -11.5 11 8
    endloop
  endfacet
  facet normal 0 -1 -0
    outer loop
      vertex 11.5 11 8
      vertex -11.5 11 3
      vertex 11.5 11 3
    endloop
  endfacet
  facet normal 1 -0 0
    outer loop
      vertex -15.5 -7 8
      vertex -15.5 7 3
      vertex -15.5 7 8
    endloop
  endfacet
  facet normal 1 0 0
    outer loop
      vertex -15.5 7 3
      vertex -15.5 -7 8
      vertex -15.5 -7 3
    endloop
  endfacet
  facet normal -1 0 0
    outer loop
      vertex 15.5 -7 3
      vertex 15.5 7 8
      vertex 15.5 7 3
    endloop
  endfacet
  facet normal -1 -0 0
    outer loop
      vertex 15.5 7 8
      vertex 15.5 -7 3
      vertex 15.5 -7 8
    endloop
  endfacet
  facet normal -0.195091 0.980785 0
    outer loop
      vertex -8.04329 -6.8097 0
      vertex -9 -7 3
      vertex -8.04329 -6.8097 3
    endloop
  endfacet
  facet normal -0.195091 0.980785 0
    outer loop
      vertex -9 -7 3
      vertex -8.04329 -6.8097 0
      vertex -9 -7 0
    endloop
  endfacet
  facet normal 0.195091 0.980785 -0
    outer loop
      vertex -9 -7 0
      vertex -9.95671 -6.8097 3
      vertex -9 -7 3
    endloop
  endfacet
  facet normal 0.195091 0.980785 0
    outer loop
      vertex -9.95671 -6.8097 3
      vertex -9 -7 0
      vertex -9.95671 -6.8097 0
    endloop
  endfacet
  facet normal 0.980785 0.195091 0
    outer loop
      vertex -11.3097 -5.45671 3
      vertex -11.5 -4.5 0
      vertex -11.5 -4.5 3
    endloop
  endfacet
  facet normal 0.980785 0.195091 0
    outer loop
      vertex -11.5 -4.5 0
      vertex -11.3097 -5.45671 3
      vertex -11.3097 -5.45671 0
    endloop
  endfacet
  facet normal 0.555569 0.83147 -0
    outer loop
      vertex -9.95671 -6.8097 0
      vertex -10.7678 -6.26777 3
      vertex -9.95671 -6.8097 3
    endloop
  endfacet
  facet normal 0.555569 0.83147 0
    outer loop
      vertex -10.7678 -6.26777 3
      vertex -9.95671 -6.8097 0
      vertex -10.7678 -6.26777 0
    endloop
  endfacet
  facet normal 0.83147 0.555569 0
    outer loop
      vertex -10.7678 -6.26777 3
      vertex -11.3097 -5.45671 0
      vertex -11.3097 -5.45671 3
    endloop
  endfacet
  facet normal 0.83147 0.555569 0
    outer loop
      vertex -11.3097 -5.45671 0
      vertex -10.7678 -6.26777 3
      vertex -10.7678 -6.26777 0
    endloop
  endfacet
  facet normal -0.83147 0.555569 0
    outer loop
      vertex -7.23223 -6.26777 0
      vertex -6.6903 -5.45671 3
      vertex -6.6903 -5.45671 0
    endloop
  endfacet
  facet normal -0.83147 0.555569 0
    outer loop
      vertex -6.6903 -5.45671 3
      vertex -7.23223 -6.26777 0
      vertex -7.23223 -6.26777 3
    endloop
  endfacet
  facet normal -0.555569 0.83147 0
    outer loop
      vertex -7.23223 -6.26777 0
      vertex -8.04329 -6.8097 3
      vertex -7.23223 -6.26777 3
    endloop
  endfacet
  facet normal -0.555569 0.83147 0
    outer loop
      vertex -8.04329 -6.8097 3
      vertex -7.23223 -6.26777 0
      vertex -8.04329 -6.8097 0
    endloop
  endfacet
  facet normal -0.980785 0.195091 0
    outer loop
      vertex -6.6903 -5.45671 0
      vertex -6.5 -4.5 3
      vertex -6.5 -4.5 0
    endloop
  endfacet
  facet normal -0.980785 0.195091 0
    outer loop
      vertex -6.5 -4.5 3
      vertex -6.6903 -5.45671 0
      vertex -6.6903 -5.45671 3
    endloop
  endfacet
  facet normal -0.980785 -0.195091 0
    outer loop
      vertex -6.5 4.5 0
      vertex -6.6903 5.45671 3
      vertex -6.6903 5.45671 0
    endloop
  endfacet
  facet normal -0.980785 -0.195091 0
    outer loop
      vertex -6.6903 5.45671 3
      vertex -6.5 4.5 0
      vertex -6.5 4.5 3
    endloop
  endfacet
  facet normal 0.195091 -0.980785 0
    outer loop
      vertex -9.95671 6.8097 0
      vertex -9 7 3
      vertex -9.95671 6.8097 3
    endloop
  endfacet
  facet normal 0.195091 -0.980785 0
    outer loop
      vertex -9 7 3
      vertex -9.95671 6.8097 0
      vertex -9 7 0
    endloop
  endfacet
  facet normal -0.555569 -0.83147 0
    outer loop
      vertex -8.04329 6.8097 0
      vertex -7.23223 6.26777 3
      vertex -8.04329 6.8097 3
    endloop
  endfacet
  facet normal -0.555569 -0.83147 -0
    outer loop
      vertex -7.23223 6.26777 3
      vertex -8.04329 6.8097 0
      vertex -7.23223 6.26777 0
    endloop
  endfacet
  facet normal -0.83147 -0.555569 0
    outer loop
      vertex -6.6903 5.45671 0
      vertex -7.23223 6.26777 3
      vertex -7.23223 6.26777 0
    endloop
  endfacet
  facet normal -0.83147 -0.555569 0
    outer loop
      vertex -7.23223 6.26777 3
      vertex -6.6903 5.45671 0
      vertex -6.6903 5.45671 3
    endloop
  endfacet
  facet normal -0.195091 -0.980785 0
    outer loop
      vertex -9 7 0
      vertex -8.04329 6.8097 3
      vertex -9 7 3
    endloop
  endfacet
  facet normal -0.195091 -0.980785 -0
    outer loop
      vertex -8.04329 6.8097 3
      vertex -9 7 0
      vertex -8.04329 6.8097 0
    endloop
  endfacet
  facet normal 0.83147 -0.555569 0
    outer loop
      vertex -11.3097 5.45671 3
      vertex -10.7678 6.26777 0
      vertex -10.7678 6.26777 3
    endloop
  endfacet
  facet normal 0.83147 -0.555569 0
    outer loop
      vertex -10.7678 6.26777 0
      vertex -11.3097 5.45671 3
      vertex -11.3097 5.45671 0
    endloop
  endfacet
  facet normal 0.980785 -0.195091 0
    outer loop
      vertex -11.5 4.5 3
      vertex -11.3097 5.45671 0
      vertex -11.3097 5.45671 3
    endloop
  endfacet
  facet normal 0.980785 -0.195091 0
    outer loop
      vertex -11.3097 5.45671 0
      vertex -11.5 4.5 3
      vertex -11.5 4.5 0
    endloop
  endfacet
  facet normal 0.555569 -0.83147 0
    outer loop
      vertex -10.7678 6.26777 0
      vertex -9.95671 6.8097 3
      vertex -10.7678 6.26777 3
    endloop
  endfacet
  facet normal 0.555569 -0.83147 0
    outer loop
      vertex -9.95671 6.8097 3
      vertex -10.7678 6.26777 0
      vertex -9.95671 6.8097 0
    endloop
  endfacet
  facet normal 1 -0 0
    outer loop
      vertex -11.5 -4.5 3
      vertex -11.5 4.5 0
      vertex -11.5 4.5 3
    endloop
  endfacet
  facet normal 1 0 0
    outer loop
      vertex -11.5 4.5 0
      vertex -11.5 -4.5 3
      vertex -11.5 -4.5 0
    endloop
  endfacet
  facet normal -1 0 0
    outer loop
      vertex -6.5 -4.5 0
      vertex -6.5 4.5 3
      vertex -6.5 4.5 0
    endloop
  endfacet
  facet normal -1 -0 0
    outer loop
      vertex -6.5 4.5 3
      vertex -6.5 -4.5 0
      vertex -6.5 -4.5 3
    endloop
  endfacet
  facet normal -0.195091 0.980785 0
    outer loop
      vertex 0.956708 -6.8097 0
      vertex 0 -7 3
      vertex 0.956708 -6.8097 3
    endloop
  endfacet
  facet normal -0.195091 0.980785 0
    outer loop
      vertex 0 -7 3
      vertex 0.956708 -6.8097 0
      vertex 0 -7 0
    endloop
  endfacet
  facet normal 0.195091 0.980785 -0
    outer loop
      vertex 0 -7 0
      vertex -0.956708 -6.8097 3
      vertex 0 -7 3
    endloop
  endfacet
  facet normal 0.195091 0.980785 0
    outer loop
      vertex -0.956708 -6.8097 3
      vertex 0 -7 0
      vertex -0.956708 -6.8097 0
    endloop
  endfacet
  facet normal 0.980785 0.195091 0
    outer loop
      vertex -2.3097 -5.45671 3
      vertex -2.5 -4.5 0
      vertex -2.5 -4.5 3
    endloop
  endfacet
  facet normal 0.980785 0.195091 0
    outer loop
      vertex -2.5 -4.5 0
      vertex -2.3097 -5.45671 3
      vertex -2.3097 -5.45671 0
    endloop
  endfacet
  facet normal 0.555569 0.83147 -0
    outer loop
      vertex -0.956708 -6.8097 0
      vertex -1.76777 -6.26777 3
      vertex -0.956708 -6.8097 3
    endloop
  endfacet
  facet normal 0.555569 0.83147 0
    outer loop
      vertex -1.76777 -6.26777 3
      vertex -0.956708 -6.8097 0
      vertex -1.76777 -6.26777 0
    endloop
  endfacet
  facet normal 0.83147 0.555569 0
    outer loop
      vertex -1.76777 -6.26777 3
      vertex -2.3097 -5.45671 0
      vertex -2.3097 -5.45671 3
    endloop
  endfacet
  facet normal 0.83147 0.555569 0
    outer loop
      vertex -2.3097 -5.45671 0
      vertex -1.76777 -6.26777 3
      vertex -1.76777 -6.26777 0
    endloop
  endfacet
  facet normal -0.83147 0.555569 0
    outer loop
      vertex 1.76777 -6.26777 0
      vertex 2.3097 -5.45671 3
      vertex 2.3097 -5.45671 0
    endloop
  endfacet
  facet normal -0.83147 0.555569 0
    outer loop
      vertex 2.3097 -5.45671 3
      vertex 1.76777 -6.26777 0
      vertex 1.76777 -6.26777 3
    endloop
  endfacet
  facet normal -0.555569 0.83147 0
    outer loop
      vertex 1.76777 -6.26777 0
      vertex 0.956708 -6.8097 3
      vertex 1.76777 -6.26777 3
    endloop
  endfacet
  facet normal -0.555569 0.83147 0
    outer loop
      vertex 0.956708 -6.8097 3
      vertex 1.76777 -6.26777 0
      vertex 0.956708 -6.8097 0
    endloop
  endfacet
  facet normal -0.980785 0.195091 0
    outer loop
      vertex 2.3097 -5.45671 0
      vertex 2.5 -4.5 3
      vertex 2.5 -4.5 0
    endloop
  endfacet
  facet normal -0.980785 0.195091 0
    outer loop
      vertex 2.5 -4.5 3
      vertex 2.3097 -5.45671 0
      vertex 2.3097 -5.45671 3
    endloop
  endfacet
  facet normal -0.980785 -0.195091 0
    outer loop
      vertex 2.5 4.5 0
      vertex 2.3097 5.45671 3
      vertex 2.3097 5.45671 0
    endloop
  endfacet
  facet normal -0.980785 -0.195091 0
    outer loop
      vertex 2.3097 5.45671 3
      vertex 2.5 4.5 0
      vertex 2.5 4.5 3
    endloop
  endfacet
  facet normal 0.195091 -0.980785 0
    outer loop
      vertex -0.956708 6.8097 0
      vertex 0 7 3
      vertex -0.956708 6.8097 3
    endloop
  endfacet
  facet normal 0.195091 -0.980785 0
    outer loop
      vertex 0 7 3
      vertex -0.956708 6.8097 0
      vertex 0 7 0
    endloop
  endfacet
  facet normal -0.555569 -0.83147 0
    outer loop
      vertex 0.956708 6.8097 0
      vertex 1.76777 6.26777 3
      vertex 0.956708 6.8097 3
    endloop
  endfacet
  facet normal -0.555569 -0.83147 -0
    outer loop
      vertex 1.76777 6.26777 3
      vertex 0.956708 6.8097 0
      vertex 1.76777 6.26777 0
    endloop
  endfacet
  facet normal -0.83147 -0.555569 0
    outer loop
      vertex 2.3097 5.45671 0
      vertex 1.76777 6.26777 3
      vertex 1.76777 6.26777 0
    endloop
  endfacet
  facet normal -0.83147 -0.555569 0
    outer loop
      vertex 1.76777 6.26777 3
      vertex 2.3097 5.45671 0
      vertex 2.3097 5.45671 3
    endloop
  endfacet
  facet normal -0.195091 -0.980785 0
    outer loop
      vertex 0 7 0
      vertex 0.956708 6.8097 3
      vertex 0 7 3
    endloop
  endfacet
  facet normal -0.195091 -0.980785 -0
    outer loop
      vertex 0.956708 6.8097 3
      vertex 0 7 0
      vertex 0.956708 6.8097 0
    endloop
  endfacet
  facet normal 0.83147 -0.555569 0
    outer loop
      vertex -2.3097 5.45671 3
      vertex -1.76777 6.26777 0
      vertex -1.76777 6.26777 3
    endloop
  endfacet
  facet normal 0.83147 -0.555569 0
    outer loop
      vertex -1.76777 6.26777 0
      vertex -2.3097 5.45671 3
      vertex -2.3097 5.45671 0
    endloop
  endfacet
  facet normal 0.980785 -0.195091 0
    outer loop
      vertex -2.5 4.5 3
      vertex -2.3097 5.45671 0
      vertex -2.3097 5.45671 3
    endloop
  endfacet
  facet normal 0.980785 -0.195091 0
    outer loop
      vertex -2.3097 5.45671 0
      vertex -2.5 4.5 3
      vertex -2.5 4.5 0
    endloop
  endfacet
  facet normal 0.555569 -0.83147 0
    outer loop
      vertex -1.76777 6.26777 0
      vertex -0.956708 6.8097 3
      vertex -1.76777 6.26777 3
    endloop
  endfacet
  facet normal 0.555569 -0.83147 0
    outer loop
      vertex -0.956708 6.8097 3
      vertex -1.76777 6.26777 0
      vertex -0.956708 6.8097 0
    endloop
  endfacet
  facet normal 1 -0 0
    outer loop
      vertex -2.5 -4.5 3
      vertex -2.5 4.5 0
      vertex -2.5 4.5 3
    endloop
  endfacet
  facet normal 1 0 0
    outer loop
      vertex -2.5 4.5 0
      vertex -2.5 -4.5 3
      vertex -2.5 -4.5 0
    endloop
  endfacet
  facet normal -1 0 0
    outer loop
      vertex 2.5 -4.5 0
      vertex 2.5 4.5 3
      vertex 2.5 4.5 0
    endloop
  endfacet
  facet normal -1 -0 0
    outer loop
      vertex 2.5 4.5 3
      vertex 2.5 -4.5 0
      vertex 2.5 -4.5 3
    endloop
  endfacet
  facet normal -0.195091 0.980785 0
    outer loop
      vertex 9.95671 -6.8097 0
      vertex 9 -7 3
      vertex 9.95671 -6.8097 3
    endloop
  endfacet
  facet normal -0.195091 0.980785 0
    outer loop
      vertex 9 -7 3
      vertex 9.95671 -6.8097 0
      vertex 9 -7 0
    endloop
  endfacet
  facet normal 0.195091 0.980785 -0
    outer loop
      vertex 9 -7 0
      vertex 8.04329 -6.8097 3
      vertex 9 -7 3
    endloop
  endfacet
  facet normal 0.195091 0.980785 0
    outer loop
      vertex 8.04329 -6.8097 3
      vertex 9 -7 0
      vertex 8.04329 -6.8097 0
    endloop
  endfacet
  facet normal 0.980785 0.195091 0
    outer loop
      vertex 6.6903 -5.45671 3
      vertex 6.5 -4.5 0
      vertex 6.5 -4.5 3
    endloop
  endfacet
  facet normal 0.980785 0.195091 0
    outer loop
      vertex 6.5 -4.5 0
      vertex 6.6903 -5.45671 3
      vertex 6.6903 -5.45671 0
    endloop
  endfacet
  facet normal 0.555569 0.83147 -0
    outer loop
      vertex 8.04329 -6.8097 0
      vertex 7.23223 -6.26777 3
      vertex 8.04329 -6.8097 3
    endloop
  endfacet
  facet normal 0.555569 0.83147 0
    outer loop
      vertex 7.23223 -6.26777 3
      vertex 8.04329 -6.8097 0
      vertex 7.23223 -6.26777 0
    endloop
  endfacet
  facet normal 0.83147 0.555569 0
    outer loop
      vertex 7.23223 -6.26777 3
      vertex 6.6903 -5.45671 0
      vertex 6.6903 -5.45671 3
    endloop
  endfacet
  facet normal 0.83147 0.555569 0
    outer loop
      vertex 6.6903 -5.45671 0
      vertex 7.23223 -6.26777 3
      vertex 7.23223 -6.26777 0
    endloop
  endfacet
  facet normal -0.83147 0.555569 0
    outer loop
      vertex 10.7678 -6.26777 0
      vertex 11.3097 -5.45671 3
      vertex 11.3097 -5.45671 0
    endloop
  endfacet
  facet normal -0.83147 0.555569 0
    outer loop
      vertex 11.3097 -5.45671 3
      vertex 10.7678 -6.26777 0
      vertex 10.7678 -6.26777 3
    endloop
  endfacet
  facet normal -0.555569 0.83147 0
    outer loop
      vertex 10.7678 -6.26777 0
      vertex 9.95671 -6.8097 3
      vertex 10.7678 -6.26777 3
    endloop
  endfacet
  facet normal -0.555569 0.83147 0
    outer loop
      vertex 9.95671 -6.8097 3
      vertex 10.7678 -6.26777 0
      vertex 9.95671 -6.8097 0
    endloop
  endfacet
  facet normal -0.980785 0.195091 0
    outer loop
      vertex 11.3097 -5.45671 0
      vertex 11.5 -4.5 3
      vertex 11.5 -4.5 0
    endloop
  endfacet
  facet normal -0.980785 0.195091 0
    outer loop
      vertex 11.5 -4.5 3
      vertex 11.3097 -5.45671 0
      vertex 11.3097 -5.45671 3
    endloop
  endfacet
  facet normal -0.980785 -0.195091 0
    outer loop
      vertex 11.5 4.5 0
      vertex 11.3097 5.45671 3
      vertex 11.3097 5.45671 0
    endloop
  endfacet
  facet normal -0.980785 -0.195091 0
    outer loop
      vertex 11.3097 5.45671 3
      vertex 11.5 4.5 0
      vertex 11.5 4.5 3
    endloop
  endfacet
  facet normal 0.195091 -0.980785 0
    outer loop
      vertex 8.04329 6.8097 0
      vertex 9 7 3
      vertex 8.04329 6.8097 3
    endloop
  endfacet
  facet normal 0.195091 -0.980785 0
    outer loop
      vertex 9 7 3
      vertex 8.04329 6.8097 0
      vertex 9 7 0
    endloop
  endfacet
  facet normal -0.555569 -0.83147 0
    outer loop
      vertex 9.95671 6.8097 0
      vertex 10.7678 6.26777 3
      vertex 9.95671 6.8097 3
    endloop
  endfacet
  facet normal -0.555569 -0.83147 -0
    outer loop
      vertex 10.7678 6.26777 3
      vertex 9.95671 6.8097 0
      vertex 10.7678 6.26777 0
    endloop
  endfacet
  facet normal -0.83147 -0.555569 0
    outer loop
      vertex 11.3097 5.45671 0
      vertex 10.7678 6.26777 3
      vertex 10.7678 6.26777 0
    endloop
  endfacet
  facet normal -0.83147 -0.555569 0
    outer loop
      vertex 10.7678 6.26777 3
      vertex 11.3097 5.45671 0
      vertex 11.3097 5.45671 3
    endloop
  endfacet
  facet normal -0.195091 -0.980785 0
    outer loop
      vertex 9 7 0
      vertex 9.95671 6.8097 3
      vertex 9 7 3
    endloop
  endfacet
  facet normal -0.195091 -0.980785 -0
    outer loop
      vertex 9.95671 6.8097 3
      vertex 9 7 0
      vertex 9.95671 6.8097 0
    endloop
  endfacet
  facet normal 0.83147 -0.555569 0
    outer loop
      vertex 6.6903 5.45671 3
      vertex 7.23223 6.26777 0
      vertex 7.23223 6.26777 3
    endloop
  endfacet
  facet normal 0.83147 -0.555569 0
    outer loop
      vertex 7.23223 6.26777 0
      vertex 6.6903 5.45671 3
      vertex 6.6903 5.45671 0
    endloop
  endfacet
  facet normal 0.980785 -0.195091 0
    outer loop
      vertex 6.5 4.5 3
      vertex 6.6903 5.45671 0
      vertex 6.6903 5.45671 3
    endloop
  endfacet
  facet normal 0.980785 -0.195091 0
    outer loop
      vertex 6.6903 5.45671 0
      vertex 6.5 4.5 3
      vertex 6.5 4.5 0
    endloop
  endfacet
  facet normal 0.555569 -0.83147 0
    outer loop
      vertex 7.23223 6.26777 0
      vertex 8.04329 6.8097 3
      vertex 7.23223 6.26777 3
    endloop
  endfacet
  facet normal 0.555569 -0.83147 0
    outer loop
      vertex 8.04329 6.8097 3
      vertex 7.23223 6.26777 0
      vertex 8.04329 6.8097 0
    endloop
  endfacet
  facet normal 1 -0 0
    outer loop
      vertex 6.5 -4.5 3
      vertex 6.5 4.5 0
      vertex 6.5 4.5 3
    endloop
  endfacet
  facet normal 1 0 0
    outer loop
      vertex 6.5 4.5 0
      vertex 6.5 -4.5 3
      vertex 6.5 -4.5 0
    endloop
  endfacet
  facet normal -1 0 0
    outer loop
      vertex 11.5 -4.5 0
      vertex 11.5 4.5 3
      vertex 11.5 4.5 0
    endloop
  endfacet
  facet normal -1 -0 0
    outer loop
      vertex 11.5 4.5 3
      vertex 11.5 -4.5 0
      vertex 11.5 -4.5 3
    endloop
  endfacet
  facet normal 0 0 1
    outer loop
      vertex -18.3284 13.8284 3
      vertex -17 14.7016 3
      vertex -17.0307 14.6955 3
    endloop
  endfacet
  facet normal 0 0 1
    outer loop
      vertex -17 14.7016 3
      vertex -19.5 11 3
      vertex -17 -14.7016 3
    endloop
  endfacet
  facet normal 0 0 1
    outer loop
      vertex -17 14.7016 3
      vertex -18.3284 13.8284 3
      vertex -19.5 11 3
    endloop
  endfacet
  facet normal -0 0 1
    outer loop
      vertex -19.5 -11 3
      vertex -17 -14.7016 3
      vertex -19.5 11 3
    endloop
  endfacet
  facet normal 0 0 1
    outer loop
      vertex -19.5 11 3
      vertex -18.3284 13.8284 3
      vertex -19.1955 12.5307 3
    endloop
  endfacet
  facet normal -0 -0 1
    outer loop
      vertex -18.3284 -13.8284 3
      vertex -17 -14.7016 3
      vertex -19.5 -11 3
    endloop
  endfacet
  facet normal 0 0 1
    outer loop
      vertex -17 -14.7016 3
      vertex -18.3284 -13.8284 3
      vertex -17.0307 -14.6955 3
    endloop
  endfacet
  facet normal 0 0 1
    outer loop
      vertex -18.3284 -13.8284 3
      vertex -19.5 -11 3
      vertex -19.1955 -12.5307 3
    endloop
  endfacet
  facet normal -0.707107 0 -0.707107
    outer loop
      vertex -17 14.7016 4
      vertex -18.3284 13.8284 5.32843
      vertex -17.0307 14.6955 4.03073
    endloop
  endfacet
  facet normal -0.707107 9.26642e-07 -0.707106
    outer loop
      vertex -17 14.7016 4
      vertex -19.1955 12.5307 6.19552
      vertex -18.3284 13.8284 5.32843
    endloop
  endfacet
  facet normal -0.707106 -6.24455e-07 -0.707107
    outer loop
      vertex -17 14.7016 4
      vertex -19.5 11 6.5
      vertex -19.1955 12.5307 6.19552
    endloop
  endfacet
  facet normal -0.707107 0 -0.707107
    outer loop
      vertex -17 14.7016 4
      vertex -19.5 -11 6.5
      vertex -19.5 11 6.5
    endloop
  endfacet
  facet normal -0.707107 0 -0.707107
    outer loop
      vertex -17 -14.7016 4
      vertex -19.5 -11 6.5
      vertex -17 14.7016 4
    endloop
  endfacet
  facet normal -0.707106 6.24455e-07 -0.707107
    outer loop
      vertex -19.5 -11 6.5
      vertex -17 -14.7016 4
      vertex -19.1955 -12.5307 6.19552
    endloop
  endfacet
  facet normal -0.707107 -9.26642e-07 -0.707106
    outer loop
      vertex -19.1955 -12.5307 6.19552
      vertex -17 -14.7016 4
      vertex -18.3284 -13.8284 5.32843
    endloop
  endfacet
  facet normal -0.707107 0 -0.707107
    outer loop
      vertex -18.3284 -13.8284 5.32843
      vertex -17 -14.7016 4
      vertex -17.0307 -14.6955 4.03073
    endloop
  endfacet
  facet normal -1 0 0
    outer loop
      vertex -17 -14.7016 3
      vertex -17 14.7016 4
      vertex -17 14.7016 3
    endloop
  endfacet
  facet normal -1 -0 0
    outer loop
      vertex -17 14.7016 4
      vertex -17 -14.7016 3
      vertex -17 -14.7016 4
    endloop
  endfacet
  facet normal 0.707107 0 -0.707107
    outer loop
      vertex 18.3284 13.8284 5.32843
      vertex 17 14.7016 4
      vertex 17.0307 14.6955 4.03073
    endloop
  endfacet
  facet normal 0.707107 9.26642e-07 -0.707106
    outer loop
      vertex 19.1955 12.5307 6.19552
      vertex 17 14.7016 4
      vertex 18.3284 13.8284 5.32843
    endloop
  endfacet
  facet normal 0.707106 -6.24455e-07 -0.707107
    outer loop
      vertex 19.5 11 6.5
      vertex 17 14.7016 4
      vertex 19.1955 12.5307 6.19552
    endloop
  endfacet
  facet normal 0.707107 0 -0.707107
    outer loop
      vertex 19.5 -11 6.5
      vertex 17 14.7016 4
      vertex 19.5 11 6.5
    endloop
  endfacet
  facet normal 0.707106 6.24455e-07 -0.707107
    outer loop
      vertex 17 -14.7016 4
      vertex 19.5 -11 6.5
      vertex 19.1955 -12.5307 6.19552
    endloop
  endfacet
  facet normal 0.707107 -9.26642e-07 -0.707106
    outer loop
      vertex 17 -14.7016 4
      vertex 19.1955 -12.5307 6.19552
      vertex 18.3284 -13.8284 5.32843
    endloop
  endfacet
  facet normal 0.707107 0 -0.707107
    outer loop
      vertex 17 -14.7016 4
      vertex 18.3284 -13.8284 5.32843
      vertex 17.0307 -14.6955 4.03073
    endloop
  endfacet
  facet normal 0.707107 0 -0.707107
    outer loop
      vertex 19.5 -11 6.5
      vertex 17 -14.7016 4
      vertex 17 14.7016 4
    endloop
  endfacet
  facet normal 0 0 1
    outer loop
      vertex 17 14.7016 3
      vertex 19.5 11 3
      vertex 19.1955 12.5307 3
    endloop
  endfacet
  facet normal 0 0 1
    outer loop
      vertex 19.5 11 3
      vertex 17 14.7016 3
      vertex 19.5 -11 3
    endloop
  endfacet
  facet normal 0 0 1
    outer loop
      vertex 17 14.7016 3
      vertex 19.1955 12.5307 3
      vertex 18.3284 13.8284 3
    endloop
  endfacet
  facet normal 0 0 1
    outer loop
      vertex 17 -14.7016 3
      vertex 19.5 -11 3
      vertex 17 14.7016 3
    endloop
  endfacet
  facet normal 0 0 1
    outer loop
      vertex 17 14.7016 3
      vertex 18.3284 13.8284 3
      vertex 17.0307 14.6955 3
    endloop
  endfacet
  facet normal 0 0 1
    outer loop
      vertex 19.5 -11 3
      vertex 17 -14.7016 3
      vertex 19.1955 -12.5307 3
    endloop
  endfacet
  facet normal 0 0 1
    outer loop
      vertex 19.1955 -12.5307 3
      vertex 17 -14.7016 3
      vertex 18.3284 -13.8284 3
    endloop
  endfacet
  facet normal 0 0 1
    outer loop
      vertex 18.3284 -13.8284 3
      vertex 17 -14.7016 3
      vertex 17.0307 -14.6955 3
    endloop
  endfacet
  facet normal 1 -0 0
    outer loop
      vertex 17 -14.7016 4
      vertex 17 14.7016 3
      vertex 17 14.7016 4
    endloop
  endfacet
  facet normal 1 0 0
    outer loop
      vertex 17 14.7016 3
      vertex 17 -14.7016 4
      vertex 17 -14.7016 3
    endloop
  endfacet
  facet normal 1 -1.58946e-07 1.58946e-07
    outer loop
      vertex -4 -15 5
      vertex -4 -12 8
      vertex -4 -15 8
    endloop
  endfacet
  facet normal 0 -0.707107 0.707107
    outer loop
      vertex -4 -15 5
      vertex 4 -12 8
      vertex -4 -12 8
    endloop
  endfacet
  facet normal 0 -0.707107 0.707107
    outer loop
      vertex 4 -12 8
      vertex -4 -15 5
      vertex 4 -15 5
    endloop
  endfacet
  facet normal -1 0 0
    outer loop
      vertex 4 -15 8
      vertex 4 -12 8
      vertex 4 -15 5
    endloop
  endfacet
  facet normal -1 1.58946e-07 1.58946e-07
    outer loop
      vertex 4 15 8
      vertex 4 15 5
      vertex 4 12 8
    endloop
  endfacet
  facet normal 1 0 -0
    outer loop
      vertex -4 15 5
      vertex -4 15 8
      vertex -4 12 8
    endloop
  endfacet
  facet normal 0 0.707107 0.707107
    outer loop
      vertex 4 15 5
      vertex -4 12 8
      vertex 4 12 8
    endloop
  endfacet
  facet normal 0 0.707107 0.707107
    outer loop
      vertex -4 12 8
      vertex 4 15 5
      vertex -4 15 5
    endloop
  endfacet
endsolid OpenSCAD_Model
