solid OpenSCAD_Model
  facet normal -0.959493 -0.281732 0
    outer loop
      vertex -5.75 21.5 -7
      vertex -6.26593 23.2571 35
      vertex -6.26593 23.2571 -7
    endloop
  endfacet
  facet normal -0.959493 -0.281732 0
    outer loop
      vertex -6.26593 23.2571 35
      vertex -5.75 21.5 -7
      vertex -5.75 21.5 35
    endloop
  endfacet
  facet normal -0.959493 -0.281732 0
    outer loop
      vertex -5.75 21.5 42
      vertex -6.26593 23.2571 45
      vertex -6.26593 23.2571 42
    endloop
  endfacet
  facet normal -0.959493 -0.281732 0
    outer loop
      vertex -6.26593 23.2571 45
      vertex -5.75 21.5 42
      vertex -5.75 21.5 45
    endloop
  endfacet
  facet normal 1 -0 0
    outer loop
      vertex -12.1184 20.5844 35
      vertex -12.1184 22.4156 -7
      vertex -12.1184 22.4156 35
    endloop
  endfacet
  facet normal 1 0 0
    outer loop
      vertex -12.1184 22.4156 -7
      vertex -12.1184 20.5844 35
      vertex -12.1184 20.5844 -7
    endloop
  endfacet
  facet normal 1 -0 0
    outer loop
      vertex -12.1184 20.5844 45
      vertex -12.1184 22.4156 42
      vertex -12.1184 22.4156 45
    endloop
  endfacet
  facet normal 1 0 0
    outer loop
      vertex -12.1184 22.4156 42
      vertex -12.1184 20.5844 45
      vertex -12.1184 20.5844 42
    endloop
  endfacet
  facet normal -0.142315 -0.989821 0
    outer loop
      vertex -9.46252 24.7169 -7
      vertex -7.6499 24.4563 35
      vertex -9.46252 24.7169 35
    endloop
  endfacet
  facet normal -0.142315 -0.989821 -0
    outer loop
      vertex -7.6499 24.4563 35
      vertex -9.46252 24.7169 -7
      vertex -7.6499 24.4563 -7
    endloop
  endfacet
  facet normal -0.142315 -0.989821 0
    outer loop
      vertex -9.46252 24.7169 42
      vertex -7.6499 24.4563 45
      vertex -9.46252 24.7169 45
    endloop
  endfacet
  facet normal -0.142315 -0.989821 -0
    outer loop
      vertex -7.6499 24.4563 45
      vertex -9.46252 24.7169 42
      vertex -7.6499 24.4563 42
    endloop
  endfacet
  facet normal -0.654861 -0.75575 0
    outer loop
      vertex -7.6499 24.4563 -7
      vertex -6.26593 23.2571 35
      vertex -7.6499 24.4563 35
    endloop
  endfacet
  facet normal -0.654861 -0.75575 -0
    outer loop
      vertex -6.26593 23.2571 35
      vertex -7.6499 24.4563 -7
      vertex -6.26593 23.2571 -7
    endloop
  endfacet
  facet normal -0.654861 -0.75575 0
    outer loop
      vertex -7.6499 24.4563 42
      vertex -6.26593 23.2571 45
      vertex -7.6499 24.4563 45
    endloop
  endfacet
  facet normal -0.654861 -0.75575 -0
    outer loop
      vertex -6.26593 23.2571 45
      vertex -7.6499 24.4563 42
      vertex -6.26593 23.2571 42
    endloop
  endfacet
  facet normal -0.654861 0.75575 0
    outer loop
      vertex -6.26593 19.7429 -7
      vertex -7.6499 18.5437 35
      vertex -6.26593 19.7429 35
    endloop
  endfacet
  facet normal -0.654861 0.75575 0
    outer loop
      vertex -7.6499 18.5437 35
      vertex -6.26593 19.7429 -7
      vertex -7.6499 18.5437 -7
    endloop
  endfacet
  facet normal -0.654861 0.75575 0
    outer loop
      vertex -6.26593 19.7429 42
      vertex -7.6499 18.5437 45
      vertex -6.26593 19.7429 45
    endloop
  endfacet
  facet normal -0.654861 0.75575 0
    outer loop
      vertex -7.6499 18.5437 45
      vertex -6.26593 19.7429 42
      vertex -7.6499 18.5437 42
    endloop
  endfacet
  facet normal 0.841254 0.540641 0
    outer loop
      vertex -11.1283 19.0438 35
      vertex -12.1184 20.5844 -7
      vertex -12.1184 20.5844 35
    endloop
  endfacet
  facet normal 0.841254 0.540641 0
    outer loop
      vertex -12.1184 20.5844 -7
      vertex -11.1283 19.0438 35
      vertex -11.1283 19.0438 -7
    endloop
  endfacet
  facet normal 0.841254 0.540641 0
    outer loop
      vertex -11.1283 19.0438 45
      vertex -12.1184 20.5844 42
      vertex -12.1184 20.5844 45
    endloop
  endfacet
  facet normal 0.841254 0.540641 0
    outer loop
      vertex -12.1184 20.5844 42
      vertex -11.1283 19.0438 45
      vertex -11.1283 19.0438 42
    endloop
  endfacet
  facet normal 0.415415 -0.909632 0
    outer loop
      vertex -11.1283 23.9562 -7
      vertex -9.46252 24.7169 35
      vertex -11.1283 23.9562 35
    endloop
  endfacet
  facet normal 0.415415 -0.909632 0
    outer loop
      vertex -9.46252 24.7169 35
      vertex -11.1283 23.9562 -7
      vertex -9.46252 24.7169 -7
    endloop
  endfacet
  facet normal 0.415415 -0.909632 0
    outer loop
      vertex -11.1283 23.9562 42
      vertex -9.46252 24.7169 45
      vertex -11.1283 23.9562 45
    endloop
  endfacet
  facet normal 0.415415 -0.909632 0
    outer loop
      vertex -9.46252 24.7169 45
      vertex -11.1283 23.9562 42
      vertex -9.46252 24.7169 42
    endloop
  endfacet
  facet normal 0.841253 -0.540641 0
    outer loop
      vertex -12.1184 22.4156 35
      vertex -11.1283 23.9562 -7
      vertex -11.1283 23.9562 35
    endloop
  endfacet
  facet normal 0.841253 -0.540641 0
    outer loop
      vertex -11.1283 23.9562 -7
      vertex -12.1184 22.4156 35
      vertex -12.1184 22.4156 -7
    endloop
  endfacet
  facet normal 0.841253 -0.540641 0
    outer loop
      vertex -12.1184 22.4156 45
      vertex -11.1283 23.9562 42
      vertex -11.1283 23.9562 45
    endloop
  endfacet
  facet normal 0.841253 -0.540641 0
    outer loop
      vertex -11.1283 23.9562 42
      vertex -12.1184 22.4156 45
      vertex -12.1184 22.4156 42
    endloop
  endfacet
  facet normal -0.959493 0.281732 0
    outer loop
      vertex -6.26593 19.7429 -7
      vertex -5.75 21.5 35
      vertex -5.75 21.5 -7
    endloop
  endfacet
  facet normal -0.959493 0.281732 0
    outer loop
      vertex -5.75 21.5 35
      vertex -6.26593 19.7429 -7
      vertex -6.26593 19.7429 35
    endloop
  endfacet
  facet normal -0.959493 0.281732 0
    outer loop
      vertex -6.26593 19.7429 42
      vertex -5.75 21.5 45
      vertex -5.75 21.5 42
    endloop
  endfacet
  facet normal -0.959493 0.281732 0
    outer loop
      vertex -5.75 21.5 45
      vertex -6.26593 19.7429 42
      vertex -6.26593 19.7429 45
    endloop
  endfacet
  facet normal -0.142314 0.989822 0
    outer loop
      vertex -7.6499 18.5437 -7
      vertex -9.46252 18.2831 35
      vertex -7.6499 18.5437 35
    endloop
  endfacet
  facet normal -0.142314 0.989822 0
    outer loop
      vertex -9.46252 18.2831 35
      vertex -7.6499 18.5437 -7
      vertex -9.46252 18.2831 -7
    endloop
  endfacet
  facet normal -0.142314 0.989822 0
    outer loop
      vertex -7.6499 18.5437 42
      vertex -9.46252 18.2831 45
      vertex -7.6499 18.5437 45
    endloop
  endfacet
  facet normal -0.142314 0.989822 0
    outer loop
      vertex -9.46252 18.2831 45
      vertex -7.6499 18.5437 42
      vertex -9.46252 18.2831 42
    endloop
  endfacet
  facet normal 0.415415 0.909632 -0
    outer loop
      vertex -9.46252 18.2831 -7
      vertex -11.1283 19.0438 35
      vertex -9.46252 18.2831 35
    endloop
  endfacet
  facet normal 0.415415 0.909632 0
    outer loop
      vertex -11.1283 19.0438 35
      vertex -9.46252 18.2831 -7
      vertex -11.1283 19.0438 -7
    endloop
  endfacet
  facet normal 0.415415 0.909632 -0
    outer loop
      vertex -9.46252 18.2831 42
      vertex -11.1283 19.0438 45
      vertex -9.46252 18.2831 45
    endloop
  endfacet
  facet normal 0.415415 0.909632 0
    outer loop
      vertex -11.1283 19.0438 45
      vertex -9.46252 18.2831 42
      vertex -11.1283 19.0438 42
    endloop
  endfacet
  facet normal -0.959493 -0.281733 0
    outer loop
      vertex 12.25 21.5 -7
      vertex 11.7341 23.2571 35
      vertex 11.7341 23.2571 -7
    endloop
  endfacet
  facet normal -0.959493 -0.281733 0
    outer loop
      vertex 11.7341 23.2571 35
      vertex 12.25 21.5 -7
      vertex 12.25 21.5 35
    endloop
  endfacet
  facet normal -0.959493 -0.281733 0
    outer loop
      vertex 12.25 21.5 42
      vertex 11.7341 23.2571 45
      vertex 11.7341 23.2571 42
    endloop
  endfacet
  facet normal -0.959493 -0.281733 0
    outer loop
      vertex 11.7341 23.2571 45
      vertex 12.25 21.5 42
      vertex 12.25 21.5 45
    endloop
  endfacet
  facet normal 1 -0 0
    outer loop
      vertex 5.88165 20.5844 35
      vertex 5.88165 22.4156 -7
      vertex 5.88165 22.4156 35
    endloop
  endfacet
  facet normal 1 0 0
    outer loop
      vertex 5.88165 22.4156 -7
      vertex 5.88165 20.5844 35
      vertex 5.88165 20.5844 -7
    endloop
  endfacet
  facet normal 1 -0 0
    outer loop
      vertex 5.88165 20.5844 45
      vertex 5.88165 22.4156 42
      vertex 5.88165 22.4156 45
    endloop
  endfacet
  facet normal 1 0 0
    outer loop
      vertex 5.88165 22.4156 42
      vertex 5.88165 20.5844 45
      vertex 5.88165 20.5844 42
    endloop
  endfacet
  facet normal -0.142315 -0.989821 0
    outer loop
      vertex 8.53748 24.7169 -7
      vertex 10.3501 24.4563 35
      vertex 8.53748 24.7169 35
    endloop
  endfacet
  facet normal -0.142315 -0.989821 -0
    outer loop
      vertex 10.3501 24.4563 35
      vertex 8.53748 24.7169 -7
      vertex 10.3501 24.4563 -7
    endloop
  endfacet
  facet normal -0.142315 -0.989821 0
    outer loop
      vertex 8.53748 24.7169 42
      vertex 10.3501 24.4563 45
      vertex 8.53748 24.7169 45
    endloop
  endfacet
  facet normal -0.142315 -0.989821 -0
    outer loop
      vertex 10.3501 24.4563 45
      vertex 8.53748 24.7169 42
      vertex 10.3501 24.4563 42
    endloop
  endfacet
  facet normal -0.654861 -0.75575 0
    outer loop
      vertex 10.3501 24.4563 -7
      vertex 11.7341 23.2571 35
      vertex 10.3501 24.4563 35
    endloop
  endfacet
  facet normal -0.654861 -0.75575 -0
    outer loop
      vertex 11.7341 23.2571 35
      vertex 10.3501 24.4563 -7
      vertex 11.7341 23.2571 -7
    endloop
  endfacet
  facet normal -0.654861 -0.75575 0
    outer loop
      vertex 10.3501 24.4563 42
      vertex 11.7341 23.2571 45
      vertex 10.3501 24.4563 45
    endloop
  endfacet
  facet normal -0.654861 -0.75575 -0
    outer loop
      vertex 11.7341 23.2571 45
      vertex 10.3501 24.4563 42
      vertex 11.7341 23.2571 42
    endloop
  endfacet
  facet normal -0.959493 0.281733 0
    outer loop
      vertex 11.7341 19.7429 -7
      vertex 12.25 21.5 35
      vertex 12.25 21.5 -7
    endloop
  endfacet
  facet normal -0.959493 0.281733 0
    outer loop
      vertex 12.25 21.5 35
      vertex 11.7341 19.7429 -7
      vertex 11.7341 19.7429 35
    endloop
  endfacet
  facet normal -0.959493 0.281733 0
    outer loop
      vertex 11.7341 19.7429 42
      vertex 12.25 21.5 45
      vertex 12.25 21.5 42
    endloop
  endfacet
  facet normal -0.959493 0.281733 0
    outer loop
      vertex 12.25 21.5 45
      vertex 11.7341 19.7429 42
      vertex 11.7341 19.7429 45
    endloop
  endfacet
  facet normal -0.654861 0.75575 0
    outer loop
      vertex 11.7341 19.7429 -7
      vertex 10.3501 18.5437 35
      vertex 11.7341 19.7429 35
    endloop
  endfacet
  facet normal -0.654861 0.75575 0
    outer loop
      vertex 10.3501 18.5437 35
      vertex 11.7341 19.7429 -7
      vertex 10.3501 18.5437 -7
    endloop
  endfacet
  facet normal -0.654861 0.75575 0
    outer loop
      vertex 11.7341 19.7429 42
      vertex 10.3501 18.5437 45
      vertex 11.7341 19.7429 45
    endloop
  endfacet
  facet normal -0.654861 0.75575 0
    outer loop
      vertex 10.3501 18.5437 45
      vertex 11.7341 19.7429 42
      vertex 10.3501 18.5437 42
    endloop
  endfacet
  facet normal 0.841254 0.540641 0
    outer loop
      vertex 6.8717 19.0438 35
      vertex 5.88165 20.5844 -7
      vertex 5.88165 20.5844 35
    endloop
  endfacet
  facet normal 0.841254 0.540641 0
    outer loop
      vertex 5.88165 20.5844 -7
      vertex 6.8717 19.0438 35
      vertex 6.8717 19.0438 -7
    endloop
  endfacet
  facet normal 0.841254 0.540641 0
    outer loop
      vertex 6.8717 19.0438 45
      vertex 5.88165 20.5844 42
      vertex 5.88165 20.5844 45
    endloop
  endfacet
  facet normal 0.841254 0.540641 0
    outer loop
      vertex 5.88165 20.5844 42
      vertex 6.8717 19.0438 45
      vertex 6.8717 19.0438 42
    endloop
  endfacet
  facet normal 0.415415 -0.909632 0
    outer loop
      vertex 6.8717 23.9562 -7
      vertex 8.53748 24.7169 35
      vertex 6.8717 23.9562 35
    endloop
  endfacet
  facet normal 0.415415 -0.909632 0
    outer loop
      vertex 8.53748 24.7169 35
      vertex 6.8717 23.9562 -7
      vertex 8.53748 24.7169 -7
    endloop
  endfacet
  facet normal 0.415415 -0.909632 0
    outer loop
      vertex 6.8717 23.9562 42
      vertex 8.53748 24.7169 45
      vertex 6.8717 23.9562 45
    endloop
  endfacet
  facet normal 0.415415 -0.909632 0
    outer loop
      vertex 8.53748 24.7169 45
      vertex 6.8717 23.9562 42
      vertex 8.53748 24.7169 42
    endloop
  endfacet
  facet normal 0.841253 -0.540641 0
    outer loop
      vertex 5.88165 22.4156 35
      vertex 6.8717 23.9562 -7
      vertex 6.8717 23.9562 35
    endloop
  endfacet
  facet normal 0.841253 -0.540641 0
    outer loop
      vertex 6.8717 23.9562 -7
      vertex 5.88165 22.4156 35
      vertex 5.88165 22.4156 -7
    endloop
  endfacet
  facet normal 0.841253 -0.540641 0
    outer loop
      vertex 5.88165 22.4156 45
      vertex 6.8717 23.9562 42
      vertex 6.8717 23.9562 45
    endloop
  endfacet
  facet normal 0.841253 -0.540641 0
    outer loop
      vertex 6.8717 23.9562 42
      vertex 5.88165 22.4156 45
      vertex 5.88165 22.4156 42
    endloop
  endfacet
  facet normal -0.142314 0.989822 0
    outer loop
      vertex 10.3501 18.5437 -7
      vertex 8.53748 18.2831 35
      vertex 10.3501 18.5437 35
    endloop
  endfacet
  facet normal -0.142314 0.989822 0
    outer loop
      vertex 8.53748 18.2831 35
      vertex 10.3501 18.5437 -7
      vertex 8.53748 18.2831 -7
    endloop
  endfacet
  facet normal -0.142314 0.989822 0
    outer loop
      vertex 10.3501 18.5437 42
      vertex 8.53748 18.2831 45
      vertex 10.3501 18.5437 45
    endloop
  endfacet
  facet normal -0.142314 0.989822 0
    outer loop
      vertex 8.53748 18.2831 45
      vertex 10.3501 18.5437 42
      vertex 8.53748 18.2831 42
    endloop
  endfacet
  facet normal 0.415415 0.909632 -0
    outer loop
      vertex 8.53748 18.2831 -7
      vertex 6.8717 19.0438 35
      vertex 8.53748 18.2831 35
    endloop
  endfacet
  facet normal 0.415415 0.909632 0
    outer loop
      vertex 6.8717 19.0438 35
      vertex 8.53748 18.2831 -7
      vertex 6.8717 19.0438 -7
    endloop
  endfacet
  facet normal 0.415415 0.909632 -0
    outer loop
      vertex 8.53748 18.2831 42
      vertex 6.8717 19.0438 45
      vertex 8.53748 18.2831 45
    endloop
  endfacet
  facet normal 0.415415 0.909632 0
    outer loop
      vertex 6.8717 19.0438 45
      vertex 8.53748 18.2831 42
      vertex 6.8717 19.0438 42
    endloop
  endfacet
  facet normal 1 -0 0
    outer loop
      vertex -14.25 14 40
      vertex -14.25 29 35
      vertex -14.25 29 40
    endloop
  endfacet
  facet normal 1 0 0
    outer loop
      vertex -14.25 29 35
      vertex -14.25 14 40
      vertex -14.25 14 35
    endloop
  endfacet
  facet normal 0 0 -1
    outer loop
      vertex -2.25 14 42
      vertex -5.75 21.5 42
      vertex -2.25 29 42
    endloop
  endfacet
  facet normal 0 0 -1
    outer loop
      vertex -2.25 14 42
      vertex -6.26593 19.7429 42
      vertex -5.75 21.5 42
    endloop
  endfacet
  facet normal 0 0 -1
    outer loop
      vertex -2.25 14 42
      vertex -7.6499 18.5437 42
      vertex -6.26593 19.7429 42
    endloop
  endfacet
  facet normal 0 0 -1
    outer loop
      vertex -12.5 14 42
      vertex -7.6499 18.5437 42
      vertex -2.25 14 42
    endloop
  endfacet
  facet normal 0 0 -1
    outer loop
      vertex -7.6499 18.5437 42
      vertex -12.5 14 42
      vertex -9.46252 18.2831 42
    endloop
  endfacet
  facet normal -0 0 -1
    outer loop
      vertex -11.1283 19.0438 42
      vertex -15.75 14 42
      vertex -12.1184 20.5844 42
    endloop
  endfacet
  facet normal 0 0 -1
    outer loop
      vertex -15.75 14 42
      vertex -11.1283 19.0438 42
      vertex -12.5 14 42
    endloop
  endfacet
  facet normal -0 0 -1
    outer loop
      vertex -9.46252 18.2831 42
      vertex -12.5 14 42
      vertex -11.1283 19.0438 42
    endloop
  endfacet
  facet normal 0 0 -1
    outer loop
      vertex -6.26593 23.2571 42
      vertex -2.25 29 42
      vertex -5.75 21.5 42
    endloop
  endfacet
  facet normal 0 0 -1
    outer loop
      vertex -7.6499 24.4563 42
      vertex -2.25 29 42
      vertex -6.26593 23.2571 42
    endloop
  endfacet
  facet normal 0 0 -1
    outer loop
      vertex -9.46252 24.7169 42
      vertex -2.25 29 42
      vertex -7.6499 24.4563 42
    endloop
  endfacet
  facet normal 0 0 -1
    outer loop
      vertex -15.75 29 42
      vertex -9.46252 24.7169 42
      vertex -11.1283 23.9562 42
    endloop
  endfacet
  facet normal -0 0 -1
    outer loop
      vertex -12.1184 20.5844 42
      vertex -15.75 14 42
      vertex -12.1184 22.4156 42
    endloop
  endfacet
  facet normal 0 0 -1
    outer loop
      vertex -9.46252 24.7169 42
      vertex -15.75 29 42
      vertex -2.25 29 42
    endloop
  endfacet
  facet normal 0 0 -1
    outer loop
      vertex -12.1184 22.4156 42
      vertex -15.75 29 42
      vertex -11.1283 23.9562 42
    endloop
  endfacet
  facet normal 0 0 -1
    outer loop
      vertex -15.75 29 42
      vertex -12.1184 22.4156 42
      vertex -15.75 14 42
    endloop
  endfacet
  facet normal -1 0 0
    outer loop
      vertex -3.75 14 35
      vertex -3.75 29 40
      vertex -3.75 29 35
    endloop
  endfacet
  facet normal -1 -0 0
    outer loop
      vertex -3.75 29 40
      vertex -3.75 14 35
      vertex -3.75 14 40
    endloop
  endfacet
  facet normal 0 0 1
    outer loop
      vertex -3.75 29 35
      vertex -5.75 21.5 35
      vertex -3.75 14 35
    endloop
  endfacet
  facet normal 0 0 1
    outer loop
      vertex -3.75 29 35
      vertex -6.26593 23.2571 35
      vertex -5.75 21.5 35
    endloop
  endfacet
  facet normal 0 0 1
    outer loop
      vertex -3.75 29 35
      vertex -7.6499 24.4563 35
      vertex -6.26593 23.2571 35
    endloop
  endfacet
  facet normal 0 0 1
    outer loop
      vertex -3.75 29 35
      vertex -9.46252 24.7169 35
      vertex -7.6499 24.4563 35
    endloop
  endfacet
  facet normal -0 0 1
    outer loop
      vertex -14.25 29 35
      vertex -9.46252 24.7169 35
      vertex -3.75 29 35
    endloop
  endfacet
  facet normal 0 0 1
    outer loop
      vertex -14.25 14 35
      vertex -12.1184 20.5844 35
      vertex -12.1184 22.4156 35
    endloop
  endfacet
  facet normal 0 0 1
    outer loop
      vertex -9.46252 24.7169 35
      vertex -14.25 29 35
      vertex -11.1283 23.9562 35
    endloop
  endfacet
  facet normal 0 0 1
    outer loop
      vertex -14.25 29 35
      vertex -12.1184 22.4156 35
      vertex -11.1283 23.9562 35
    endloop
  endfacet
  facet normal 0 0 1
    outer loop
      vertex -14.25 14 35
      vertex -12.1184 22.4156 35
      vertex -14.25 29 35
    endloop
  endfacet
  facet normal 0 0 1
    outer loop
      vertex -12.1184 20.5844 35
      vertex -14.25 14 35
      vertex -12.5 14 35
    endloop
  endfacet
  facet normal -0 0 1
    outer loop
      vertex -6.26593 19.7429 35
      vertex -3.75 14 35
      vertex -5.75 21.5 35
    endloop
  endfacet
  facet normal -0 0 1
    outer loop
      vertex -7.6499 18.5437 35
      vertex -3.75 14 35
      vertex -6.26593 19.7429 35
    endloop
  endfacet
  facet normal -0 0 1
    outer loop
      vertex -9.46252 18.2831 35
      vertex -3.75 14 35
      vertex -7.6499 18.5437 35
    endloop
  endfacet
  facet normal 0 0 1
    outer loop
      vertex -12.5 14 35
      vertex -9.46252 18.2831 35
      vertex -11.1283 19.0438 35
    endloop
  endfacet
  facet normal 0 0 1
    outer loop
      vertex -9.46252 18.2831 35
      vertex -12.5 14 35
      vertex -3.75 14 35
    endloop
  endfacet
  facet normal 0 0 1
    outer loop
      vertex -12.5 14 35
      vertex -11.1283 19.0438 35
      vertex -12.1184 20.5844 35
    endloop
  endfacet
  facet normal 1 -0 0
    outer loop
      vertex -15.75 14 42
      vertex -15.75 29 40
      vertex -15.75 29 42
    endloop
  endfacet
  facet normal 1 0 0
    outer loop
      vertex -15.75 29 40
      vertex -15.75 14 42
      vertex -15.75 14 40
    endloop
  endfacet
  facet normal -1 0 0
    outer loop
      vertex -2.25 14 40
      vertex -2.25 29 42
      vertex -2.25 29 40
    endloop
  endfacet
  facet normal -1 -0 0
    outer loop
      vertex -2.25 29 42
      vertex -2.25 14 40
      vertex -2.25 14 42
    endloop
  endfacet
  facet normal -0 0 1
    outer loop
      vertex -15.75 29 40
      vertex -14.25 14 40
      vertex -14.25 29 40
    endloop
  endfacet
  facet normal 0 0 1
    outer loop
      vertex -14.25 14 40
      vertex -15.75 29 40
      vertex -15.75 14 40
    endloop
  endfacet
  facet normal -0 0 1
    outer loop
      vertex -3.75 29 40
      vertex -2.25 14 40
      vertex -2.25 29 40
    endloop
  endfacet
  facet normal 0 0 1
    outer loop
      vertex -2.25 14 40
      vertex -3.75 29 40
      vertex -3.75 14 40
    endloop
  endfacet
  facet normal 1 -0 0
    outer loop
      vertex 3.75 14 40
      vertex 3.75 29 35
      vertex 3.75 29 40
    endloop
  endfacet
  facet normal 1 0 0
    outer loop
      vertex 3.75 29 35
      vertex 3.75 14 40
      vertex 3.75 14 35
    endloop
  endfacet
  facet normal 0 0 -1
    outer loop
      vertex 15.75 14 42
      vertex 12.25 21.5 42
      vertex 15.75 29 42
    endloop
  endfacet
  facet normal 0 0 -1
    outer loop
      vertex 15.75 14 42
      vertex 11.7341 19.7429 42
      vertex 12.25 21.5 42
    endloop
  endfacet
  facet normal 0 0 -1
    outer loop
      vertex 15.75 14 42
      vertex 10.3501 18.5437 42
      vertex 11.7341 19.7429 42
    endloop
  endfacet
  facet normal 0 0 -1
    outer loop
      vertex 15.75 14 42
      vertex 8.53748 18.2831 42
      vertex 10.3501 18.5437 42
    endloop
  endfacet
  facet normal 0 0 -1
    outer loop
      vertex 2.5 14 42
      vertex 8.53748 18.2831 42
      vertex 15.75 14 42
    endloop
  endfacet
  facet normal -0 0 -1
    outer loop
      vertex 6.8717 19.0438 42
      vertex 2.5 14 42
      vertex 5.88165 20.5844 42
    endloop
  endfacet
  facet normal -0 0 -1
    outer loop
      vertex 8.53748 18.2831 42
      vertex 2.5 14 42
      vertex 6.8717 19.0438 42
    endloop
  endfacet
  facet normal 0 0 -1
    outer loop
      vertex 11.7341 23.2571 42
      vertex 15.75 29 42
      vertex 12.25 21.5 42
    endloop
  endfacet
  facet normal 0 0 -1
    outer loop
      vertex 10.3501 24.4563 42
      vertex 15.75 29 42
      vertex 11.7341 23.2571 42
    endloop
  endfacet
  facet normal 0 0 -1
    outer loop
      vertex 8.53748 24.7169 42
      vertex 15.75 29 42
      vertex 10.3501 24.4563 42
    endloop
  endfacet
  facet normal 0 0 -1
    outer loop
      vertex 2.25 29 42
      vertex 8.53748 24.7169 42
      vertex 6.8717 23.9562 42
    endloop
  endfacet
  facet normal 0 0 -1
    outer loop
      vertex 2.25 14 42
      vertex 5.88165 20.5844 42
      vertex 2.5 14 42
    endloop
  endfacet
  facet normal -0 0 -1
    outer loop
      vertex 5.88165 20.5844 42
      vertex 2.25 14 42
      vertex 5.88165 22.4156 42
    endloop
  endfacet
  facet normal 0 0 -1
    outer loop
      vertex 8.53748 24.7169 42
      vertex 2.25 29 42
      vertex 15.75 29 42
    endloop
  endfacet
  facet normal 0 0 -1
    outer loop
      vertex 5.88165 22.4156 42
      vertex 2.25 29 42
      vertex 6.8717 23.9562 42
    endloop
  endfacet
  facet normal 0 0 -1
    outer loop
      vertex 2.25 29 42
      vertex 5.88165 22.4156 42
      vertex 2.25 14 42
    endloop
  endfacet
  facet normal -1 0 0
    outer loop
      vertex 14.25 14 35
      vertex 14.25 29 40
      vertex 14.25 29 35
    endloop
  endfacet
  facet normal -1 -0 0
    outer loop
      vertex 14.25 29 40
      vertex 14.25 14 35
      vertex 14.25 14 40
    endloop
  endfacet
  facet normal 0 0 1
    outer loop
      vertex 14.25 29 35
      vertex 12.25 21.5 35
      vertex 14.25 14 35
    endloop
  endfacet
  facet normal 0 0 1
    outer loop
      vertex 14.25 29 35
      vertex 11.7341 23.2571 35
      vertex 12.25 21.5 35
    endloop
  endfacet
  facet normal 0 0 1
    outer loop
      vertex 14.25 29 35
      vertex 10.3501 24.4563 35
      vertex 11.7341 23.2571 35
    endloop
  endfacet
  facet normal 0 0 1
    outer loop
      vertex 14.25 29 35
      vertex 8.53748 24.7169 35
      vertex 10.3501 24.4563 35
    endloop
  endfacet
  facet normal -0 0 1
    outer loop
      vertex 3.75 29 35
      vertex 8.53748 24.7169 35
      vertex 14.25 29 35
    endloop
  endfacet
  facet normal 0 0 1
    outer loop
      vertex 5.88165 22.4156 35
      vertex 3.75 29 35
      vertex 5.88165 20.5844 35
    endloop
  endfacet
  facet normal 0 0 1
    outer loop
      vertex 6.8717 23.9562 35
      vertex 3.75 29 35
      vertex 5.88165 22.4156 35
    endloop
  endfacet
  facet normal 0 0 1
    outer loop
      vertex 8.53748 24.7169 35
      vertex 3.75 29 35
      vertex 6.8717 23.9562 35
    endloop
  endfacet
  facet normal -0 0 1
    outer loop
      vertex 11.7341 19.7429 35
      vertex 14.25 14 35
      vertex 12.25 21.5 35
    endloop
  endfacet
  facet normal -0 0 1
    outer loop
      vertex 10.3501 18.5437 35
      vertex 14.25 14 35
      vertex 11.7341 19.7429 35
    endloop
  endfacet
  facet normal -0 0 1
    outer loop
      vertex 8.53748 18.2831 35
      vertex 14.25 14 35
      vertex 10.3501 18.5437 35
    endloop
  endfacet
  facet normal 0 0 1
    outer loop
      vertex 3.75 14 35
      vertex 8.53748 18.2831 35
      vertex 6.8717 19.0438 35
    endloop
  endfacet
  facet normal 0 0 1
    outer loop
      vertex 8.53748 18.2831 35
      vertex 3.75 14 35
      vertex 14.25 14 35
    endloop
  endfacet
  facet normal 0 0 1
    outer loop
      vertex 5.88165 20.5844 35
      vertex 3.75 14 35
      vertex 6.8717 19.0438 35
    endloop
  endfacet
  facet normal 0 0 1
    outer loop
      vertex 3.75 14 35
      vertex 5.88165 20.5844 35
      vertex 3.75 29 35
    endloop
  endfacet
  facet normal 1 -0 0
    outer loop
      vertex 2.25 14 42
      vertex 2.25 29 40
      vertex 2.25 29 42
    endloop
  endfacet
  facet normal 1 0 0
    outer loop
      vertex 2.25 29 40
      vertex 2.25 14 42
      vertex 2.25 14 40
    endloop
  endfacet
  facet normal -1 0 0
    outer loop
      vertex 15.75 14 40
      vertex 15.75 29 42
      vertex 15.75 29 40
    endloop
  endfacet
  facet normal -1 -0 0
    outer loop
      vertex 15.75 29 42
      vertex 15.75 14 40
      vertex 15.75 14 42
    endloop
  endfacet
  facet normal 0 0 1
    outer loop
      vertex 3.75 29 40
      vertex 2.5 14 40
      vertex 3.75 14 40
    endloop
  endfacet
  facet normal -0 0 1
    outer loop
      vertex 2.25 29 40
      vertex 2.5 14 40
      vertex 3.75 29 40
    endloop
  endfacet
  facet normal 0 0 1
    outer loop
      vertex 2.5 14 40
      vertex 2.25 29 40
      vertex 2.25 14 40
    endloop
  endfacet
  facet normal -0 0 1
    outer loop
      vertex 14.25 29 40
      vertex 15.75 14 40
      vertex 15.75 29 40
    endloop
  endfacet
  facet normal 0 0 1
    outer loop
      vertex 15.75 14 40
      vertex 14.25 29 40
      vertex 14.25 14 40
    endloop
  endfacet
  facet normal 0 0 -1
    outer loop
      vertex 18.8284 -6.32843 -7
      vertex 19.7016 -5 -7
      vertex 19.6955 -5.03073 -7
    endloop
  endfacet
  facet normal 0 0 -1
    outer loop
      vertex 17.5307 -7.19552 -7
      vertex 19.7016 -5 -7
      vertex 18.8284 -6.32843 -7
    endloop
  endfacet
  facet normal 0 0 -1
    outer loop
      vertex 16 -7.5 -7
      vertex 19.7016 -5 -7
      vertex 17.5307 -7.19552 -7
    endloop
  endfacet
  facet normal 0 0 -1
    outer loop
      vertex -16 -7.5 -7
      vertex 19.7016 -5 -7
      vertex 16 -7.5 -7
    endloop
  endfacet
  facet normal 0 0 -1
    outer loop
      vertex -19.7016 -5 -7
      vertex -16 -7.5 -7
      vertex -17.5307 -7.19552 -7
    endloop
  endfacet
  facet normal 0 0 -1
    outer loop
      vertex -19.7016 -5 -7
      vertex -17.5307 -7.19552 -7
      vertex -18.8284 -6.32843 -7
    endloop
  endfacet
  facet normal 0 0 -1
    outer loop
      vertex -19.7016 -5 -7
      vertex -18.8284 -6.32843 -7
      vertex -19.6955 -5.03073 -7
    endloop
  endfacet
  facet normal 0 0 -1
    outer loop
      vertex -16 -7.5 -7
      vertex -19.7016 -5 -7
      vertex 19.7016 -5 -7
    endloop
  endfacet
  facet normal 0 -0.707107 0.707107
    outer loop
      vertex -18.8284 -6.32843 -9.32843
      vertex -19.7016 -5 -8
      vertex -19.6955 -5.03073 -8.03073
    endloop
  endfacet
  facet normal 0 -0.707107 0.707107
    outer loop
      vertex -19.7016 -5 -8
      vertex -16 -7.5 -10.5
      vertex 19.7016 -5 -8
    endloop
  endfacet
  facet normal 0 -0.707107 0.707107
    outer loop
      vertex -19.7016 -5 -8
      vertex -18.8284 -6.32843 -9.32843
      vertex -16 -7.5 -10.5
    endloop
  endfacet
  facet normal 0 -0.707107 0.707107
    outer loop
      vertex 16 -7.5 -10.5
      vertex 19.7016 -5 -8
      vertex -16 -7.5 -10.5
    endloop
  endfacet
  facet normal 0 -0.707107 0.707107
    outer loop
      vertex -16 -7.5 -10.5
      vertex -18.8284 -6.32843 -9.32843
      vertex -17.5307 -7.19552 -10.1955
    endloop
  endfacet
  facet normal 0 -0.707107 0.707107
    outer loop
      vertex 18.8284 -6.32843 -9.32843
      vertex 19.7016 -5 -8
      vertex 16 -7.5 -10.5
    endloop
  endfacet
  facet normal 0 -0.707107 0.707107
    outer loop
      vertex 19.7016 -5 -8
      vertex 18.8284 -6.32843 -9.32843
      vertex 19.6955 -5.03073 -8.03073
    endloop
  endfacet
  facet normal 0 -0.707107 0.707107
    outer loop
      vertex 18.8284 -6.32843 -9.32843
      vertex 16 -7.5 -10.5
      vertex 17.5307 -7.19552 -10.1955
    endloop
  endfacet
  facet normal 0 -1 0
    outer loop
      vertex -19.7016 -5 -8
      vertex 19.7016 -5 -7
      vertex -19.7016 -5 -7
    endloop
  endfacet
  facet normal 0 -1 -0
    outer loop
      vertex 19.7016 -5 -7
      vertex -19.7016 -5 -8
      vertex 19.7016 -5 -8
    endloop
  endfacet
  facet normal 0 0.707107 0.707107
    outer loop
      vertex 18.8284 30.3284 -9.32843
      vertex 19.7016 29 -8
      vertex 19.6955 29.0307 -8.03073
    endloop
  endfacet
  facet normal 0 0.707107 0.707107
    outer loop
      vertex 19.7016 29 -8
      vertex 16 31.5 -10.5
      vertex -19.7016 29 -8
    endloop
  endfacet
  facet normal 0 0.707107 0.707107
    outer loop
      vertex 19.7016 29 -8
      vertex 18.8284 30.3284 -9.32843
      vertex 16 31.5 -10.5
    endloop
  endfacet
  facet normal -0 0.707107 0.707107
    outer loop
      vertex -16 31.5 -10.5
      vertex -19.7016 29 -8
      vertex 16 31.5 -10.5
    endloop
  endfacet
  facet normal 8.47549e-07 0.707108 0.707106
    outer loop
      vertex 16 31.5 -10.5
      vertex 18.8284 30.3284 -9.32843
      vertex 17.5307 31.1955 -10.1955
    endloop
  endfacet
  facet normal 0 0.707107 0.707107
    outer loop
      vertex -18.8284 30.3284 -9.32843
      vertex -19.7016 29 -8
      vertex -16 31.5 -10.5
    endloop
  endfacet
  facet normal 0 0.707107 0.707107
    outer loop
      vertex -19.7016 29 -8
      vertex -18.8284 30.3284 -9.32843
      vertex -19.6955 29.0307 -8.03073
    endloop
  endfacet
  facet normal 8.47546e-07 0.707106 0.707108
    outer loop
      vertex -18.8284 30.3284 -9.32843
      vertex -16 31.5 -10.5
      vertex -17.5307 31.1955 -10.1955
    endloop
  endfacet
  facet normal 0 0 -1
    outer loop
      vertex 19.7016 29 -7
      vertex 18.8284 30.3284 -7
      vertex 19.6955 29.0307 -7
    endloop
  endfacet
  facet normal 0 0 -1
    outer loop
      vertex 19.7016 29 -7
      vertex 17.5307 31.1955 -7
      vertex 18.8284 30.3284 -7
    endloop
  endfacet
  facet normal 0 0 -1
    outer loop
      vertex 19.7016 29 -7
      vertex 16 31.5 -7
      vertex 17.5307 31.1955 -7
    endloop
  endfacet
  facet normal 0 0 -1
    outer loop
      vertex 19.7016 29 -7
      vertex -16 31.5 -7
      vertex 16 31.5 -7
    endloop
  endfacet
  facet normal 0 0 -1
    outer loop
      vertex -19.7016 29 -7
      vertex -16 31.5 -7
      vertex 19.7016 29 -7
    endloop
  endfacet
  facet normal 0 0 -1
    outer loop
      vertex -16 31.5 -7
      vertex -19.7016 29 -7
      vertex -17.5307 31.1955 -7
    endloop
  endfacet
  facet normal 0 0 -1
    outer loop
      vertex -17.5307 31.1955 -7
      vertex -19.7016 29 -7
      vertex -18.8284 30.3284 -7
    endloop
  endfacet
  facet normal 0 0 -1
    outer loop
      vertex -18.8284 30.3284 -7
      vertex -19.7016 29 -7
      vertex -19.6955 29.0307 -7
    endloop
  endfacet
  facet normal 0 1 -0
    outer loop
      vertex 19.7016 29 -8
      vertex -19.7016 29 -7
      vertex 19.7016 29 -7
    endloop
  endfacet
  facet normal 0 1 0
    outer loop
      vertex -19.7016 29 -7
      vertex 19.7016 29 -8
      vertex -19.7016 29 -8
    endloop
  endfacet
  facet normal 0 0 -1
    outer loop
      vertex 16 0.5 -12
      vertex 20 -3.5 -12
      vertex 19.6955 -5.03073 -12
    endloop
  endfacet
  facet normal 0 0 -1
    outer loop
      vertex 16 0.5 -12
      vertex 19.6955 -5.03073 -12
      vertex 18.8284 -6.32843 -12
    endloop
  endfacet
  facet normal 0 0 -1
    outer loop
      vertex 16 0.5 -12
      vertex 18.8284 -6.32843 -12
      vertex 17.5307 -7.19552 -12
    endloop
  endfacet
  facet normal 0 0 -1
    outer loop
      vertex 20 -3.5 -12
      vertex 16 0.5 -12
      vertex 20 8 -12
    endloop
  endfacet
  facet normal -0 0 -1
    outer loop
      vertex 20 8 -12
      vertex 16 0.5 -12
      vertex 17 8 -12
    endloop
  endfacet
  facet normal 0 0 -1
    outer loop
      vertex 16 0.5 -12
      vertex 17.5307 -7.19552 -12
      vertex 16 -7.5 -12
    endloop
  endfacet
  facet normal 0 0 -1
    outer loop
      vertex 16 23.5 -12
      vertex 20 27.5 -12
      vertex 20 16 -12
    endloop
  endfacet
  facet normal 0 0 -1
    outer loop
      vertex 15.6955 25.0307 -12
      vertex 20 27.5 -12
      vertex 16 23.5 -12
    endloop
  endfacet
  facet normal 0 0 -1
    outer loop
      vertex 14.8284 26.3284 -12
      vertex 20 27.5 -12
      vertex 15.6955 25.0307 -12
    endloop
  endfacet
  facet normal 0 0 -1
    outer loop
      vertex 16 23.5 -12
      vertex 20 16 -12
      vertex 17 16 -12
    endloop
  endfacet
  facet normal -0 0 -1
    outer loop
      vertex 17 8 -12
      vertex 16 0.5 -12
      vertex 17 16 -12
    endloop
  endfacet
  facet normal 0 0 -1
    outer loop
      vertex 16 23.5 -12
      vertex 17 16 -12
      vertex 16 0.5 -12
    endloop
  endfacet
  facet normal -0 0 -1
    outer loop
      vertex 20 27.5 -12
      vertex 14.8284 26.3284 -12
      vertex 19.6955 29.0307 -12
    endloop
  endfacet
  facet normal -0 0 -1
    outer loop
      vertex 19.6955 29.0307 -12
      vertex 14.8284 26.3284 -12
      vertex 18.8284 30.3284 -12
    endloop
  endfacet
  facet normal -0 0 -1
    outer loop
      vertex 18.8284 30.3284 -12
      vertex 14.8284 26.3284 -12
      vertex 17.5307 31.1955 -12
    endloop
  endfacet
  facet normal -0 0 -1
    outer loop
      vertex 17.5307 31.1955 -12
      vertex 14.8284 26.3284 -12
      vertex 16 31.5 -12
    endloop
  endfacet
  facet normal 0 0 -1
    outer loop
      vertex 13.5307 27.1955 -12
      vertex 16 31.5 -12
      vertex 14.8284 26.3284 -12
    endloop
  endfacet
  facet normal 0 0 -1
    outer loop
      vertex 12 27.5 -12
      vertex 16 31.5 -12
      vertex 13.5307 27.1955 -12
    endloop
  endfacet
  facet normal 0 0 -1
    outer loop
      vertex -12 27.5 -12
      vertex 16 31.5 -12
      vertex 12 27.5 -12
    endloop
  endfacet
  facet normal 0 0 -1
    outer loop
      vertex -12 27.5 -12
      vertex -16 31.5 -12
      vertex 16 31.5 -12
    endloop
  endfacet
  facet normal 0 0 -1
    outer loop
      vertex -13.5307 27.1955 -12
      vertex -16 31.5 -12
      vertex -12 27.5 -12
    endloop
  endfacet
  facet normal 0 0 -1
    outer loop
      vertex -14.8284 26.3284 -12
      vertex -16 31.5 -12
      vertex -13.5307 27.1955 -12
    endloop
  endfacet
  facet normal 0 0 -1
    outer loop
      vertex -20 27.5 -12
      vertex -14.8284 26.3284 -12
      vertex -15.6955 25.0307 -12
    endloop
  endfacet
  facet normal 0 0 -1
    outer loop
      vertex -20 27.5 -12
      vertex -15.6955 25.0307 -12
      vertex -16 23.5 -12
    endloop
  endfacet
  facet normal 0 0 -1
    outer loop
      vertex 16 -7.5 -12
      vertex 15.6955 -1.03073 -12
      vertex 16 0.5 -12
    endloop
  endfacet
  facet normal 0 0 -1
    outer loop
      vertex 16 -7.5 -12
      vertex 14.8284 -2.32843 -12
      vertex 15.6955 -1.03073 -12
    endloop
  endfacet
  facet normal 0 0 -1
    outer loop
      vertex 16 -7.5 -12
      vertex 13.5307 -3.19552 -12
      vertex 14.8284 -2.32843 -12
    endloop
  endfacet
  facet normal 0 0 -1
    outer loop
      vertex 16 -7.5 -12
      vertex 12 -3.5 -12
      vertex 13.5307 -3.19552 -12
    endloop
  endfacet
  facet normal 0 0 -1
    outer loop
      vertex 16 -7.5 -12
      vertex -12 -3.5 -12
      vertex 12 -3.5 -12
    endloop
  endfacet
  facet normal 0 0 -1
    outer loop
      vertex -16 -7.5 -12
      vertex -12 -3.5 -12
      vertex 16 -7.5 -12
    endloop
  endfacet
  facet normal 0 0 -1
    outer loop
      vertex -16 -7.5 -12
      vertex -13.5307 -3.19552 -12
      vertex -12 -3.5 -12
    endloop
  endfacet
  facet normal 0 0 -1
    outer loop
      vertex -16 -7.5 -12
      vertex -14.8284 -2.32843 -12
      vertex -13.5307 -3.19552 -12
    endloop
  endfacet
  facet normal 0 0 -1
    outer loop
      vertex -17.5307 -7.19552 -12
      vertex -14.8284 -2.32843 -12
      vertex -16 -7.5 -12
    endloop
  endfacet
  facet normal 0 0 -1
    outer loop
      vertex -18.8284 -6.32843 -12
      vertex -14.8284 -2.32843 -12
      vertex -17.5307 -7.19552 -12
    endloop
  endfacet
  facet normal -0 0 -1
    outer loop
      vertex -15.6955 -1.03073 -12
      vertex -20 -3.5 -12
      vertex -16 0.5 -12
    endloop
  endfacet
  facet normal 0 0 -1
    outer loop
      vertex -16 0.5 -12
      vertex -17 8 -12
      vertex -16 23.5 -12
    endloop
  endfacet
  facet normal 0 0 -1
    outer loop
      vertex -17 16 -12
      vertex -16 23.5 -12
      vertex -17 8 -12
    endloop
  endfacet
  facet normal 0 0 -1
    outer loop
      vertex -19.6955 -5.03073 -12
      vertex -14.8284 -2.32843 -12
      vertex -18.8284 -6.32843 -12
    endloop
  endfacet
  facet normal 0 0 -1
    outer loop
      vertex -20 -3.5 -12
      vertex -14.8284 -2.32843 -12
      vertex -19.6955 -5.03073 -12
    endloop
  endfacet
  facet normal -0 0 -1
    outer loop
      vertex -14.8284 -2.32843 -12
      vertex -20 -3.5 -12
      vertex -15.6955 -1.03073 -12
    endloop
  endfacet
  facet normal 0 0 -1
    outer loop
      vertex -20 8 -12
      vertex -16 0.5 -12
      vertex -20 -3.5 -12
    endloop
  endfacet
  facet normal 0 0 -1
    outer loop
      vertex -16 0.5 -12
      vertex -20 8 -12
      vertex -17 8 -12
    endloop
  endfacet
  facet normal 0 0 -1
    outer loop
      vertex -20 16 -12
      vertex -16 23.5 -12
      vertex -17 16 -12
    endloop
  endfacet
  facet normal 0 0 -1
    outer loop
      vertex -14.8284 26.3284 -12
      vertex -20 27.5 -12
      vertex -19.6955 29.0307 -12
    endloop
  endfacet
  facet normal 0 0 -1
    outer loop
      vertex -14.8284 26.3284 -12
      vertex -17.5307 31.1955 -12
      vertex -16 31.5 -12
    endloop
  endfacet
  facet normal 0 0 -1
    outer loop
      vertex -14.8284 26.3284 -12
      vertex -18.8284 30.3284 -12
      vertex -17.5307 31.1955 -12
    endloop
  endfacet
  facet normal -0 0 -1
    outer loop
      vertex -16 23.5 -12
      vertex -20 16 -12
      vertex -20 27.5 -12
    endloop
  endfacet
  facet normal 0 0 -1
    outer loop
      vertex -14.8284 26.3284 -12
      vertex -19.6955 29.0307 -12
      vertex -18.8284 30.3284 -12
    endloop
  endfacet
  facet normal -0.980785 -0.19509 0
    outer loop
      vertex -20 -3.5 -12
      vertex -19.7016 -5 -8
      vertex -20 -3.5 -4
    endloop
  endfacet
  facet normal -0.980785 -0.19509 -0
    outer loop
      vertex -19.6955 -5.03073 -8.03073
      vertex -20 -3.5 -12
      vertex -19.6955 -5.03073 -12
    endloop
  endfacet
  facet normal -0.980786 -0.195087 1.22733e-06
    outer loop
      vertex -20 -3.5 -12
      vertex -19.6955 -5.03073 -8.03073
      vertex -19.7016 -5 -8
    endloop
  endfacet
  facet normal -0.980785 -0.19509 -0
    outer loop
      vertex -19.7016 -5 -7
      vertex -20 -3.5 -4
      vertex -19.7016 -5 -8
    endloop
  endfacet
  facet normal -0.980786 -0.195086 -0
    outer loop
      vertex -19.6955 -5.03073 -4
      vertex -19.7016 -5 -7
      vertex -19.6955 -5.03073 -7
    endloop
  endfacet
  facet normal -0.980785 -0.19509 -4.51763e-08
    outer loop
      vertex -19.7016 -5 -7
      vertex -19.6955 -5.03073 -4
      vertex -20 -3.5 -4
    endloop
  endfacet
  facet normal -0.195091 -0.980785 0
    outer loop
      vertex -17.5307 -7.19552 -12
      vertex -16 -7.5 -10.5
      vertex -17.5307 -7.19552 -10.1955
    endloop
  endfacet
  facet normal -0.195091 -0.980785 -0
    outer loop
      vertex -16 -7.5 -10.5
      vertex -17.5307 -7.19552 -12
      vertex -16 -7.5 -12
    endloop
  endfacet
  facet normal -0.195091 -0.980785 0
    outer loop
      vertex -17.5307 -7.19552 -7
      vertex -16 -7.5 -4
      vertex -17.5307 -7.19552 -4
    endloop
  endfacet
  facet normal -0.195091 -0.980785 -0
    outer loop
      vertex -16 -7.5 -4
      vertex -17.5307 -7.19552 -7
      vertex -16 -7.5 -7
    endloop
  endfacet
  facet normal -0.831469 -0.555571 0
    outer loop
      vertex -18.8284 -6.32843 -7
      vertex -19.6955 -5.03073 -4
      vertex -19.6955 -5.03073 -7
    endloop
  endfacet
  facet normal -0.831469 -0.555571 0
    outer loop
      vertex -19.6955 -5.03073 -4
      vertex -18.8284 -6.32843 -7
      vertex -18.8284 -6.32843 -4
    endloop
  endfacet
  facet normal -0.831469 -0.555571 -0
    outer loop
      vertex -18.8284 -6.32843 -9.32843
      vertex -19.6955 -5.03073 -12
      vertex -18.8284 -6.32843 -12
    endloop
  endfacet
  facet normal -0.831469 -0.555571 0
    outer loop
      vertex -19.6955 -5.03073 -12
      vertex -18.8284 -6.32843 -9.32843
      vertex -19.6955 -5.03073 -8.03073
    endloop
  endfacet
  facet normal -0 0 1
    outer loop
      vertex 17.5 29 -4
      vertex 20 27.5 -4
      vertex 19.6955 29.0307 -4
    endloop
  endfacet
  facet normal 0 0 1
    outer loop
      vertex 20 27.5 -4
      vertex 17.5 29 -4
      vertex 20 -3.5 -4
    endloop
  endfacet
  facet normal 0 0 1
    outer loop
      vertex 17.5 29 -4
      vertex 19.6955 29.0307 -4
      vertex 18.8284 30.3284 -4
    endloop
  endfacet
  facet normal 0 0 1
    outer loop
      vertex 17.5 -5 -4
      vertex 20 -3.5 -4
      vertex 17.5 29 -4
    endloop
  endfacet
  facet normal 0 0 1
    outer loop
      vertex 17.5 29 -4
      vertex 18.8284 30.3284 -4
      vertex 17.5307 31.1955 -4
    endloop
  endfacet
  facet normal 0 0 1
    outer loop
      vertex 20 -3.5 -4
      vertex 17.5 -5 -4
      vertex 19.6955 -5.03073 -4
    endloop
  endfacet
  facet normal 0 0 1
    outer loop
      vertex 19.6955 -5.03073 -4
      vertex 17.5 -5 -4
      vertex 18.8284 -6.32843 -4
    endloop
  endfacet
  facet normal 0 0 1
    outer loop
      vertex 16 31.5 -4
      vertex 17.5 29 -4
      vertex 17.5307 31.1955 -4
    endloop
  endfacet
  facet normal -0 0 1
    outer loop
      vertex -16 31.5 -4
      vertex 17.5 29 -4
      vertex 16 31.5 -4
    endloop
  endfacet
  facet normal 0 0 1
    outer loop
      vertex -16 31.5 -4
      vertex -17.5 29 -4
      vertex 17.5 29 -4
    endloop
  endfacet
  facet normal -0 0 1
    outer loop
      vertex -18.8284 30.3284 -4
      vertex -17.5 29 -4
      vertex -17.5307 31.1955 -4
    endloop
  endfacet
  facet normal -0 0 1
    outer loop
      vertex -17.5307 31.1955 -4
      vertex -17.5 29 -4
      vertex -16 31.5 -4
    endloop
  endfacet
  facet normal 0 0 1
    outer loop
      vertex 18.8284 -6.32843 -4
      vertex 17.5 -5 -4
      vertex 17.5307 -7.19552 -4
    endloop
  endfacet
  facet normal 0 0 1
    outer loop
      vertex 17.5 -5 -4
      vertex 16 -7.5 -4
      vertex 17.5307 -7.19552 -4
    endloop
  endfacet
  facet normal 0 0 1
    outer loop
      vertex 17.5 -5 -4
      vertex -16 -7.5 -4
      vertex 16 -7.5 -4
    endloop
  endfacet
  facet normal -0 0 1
    outer loop
      vertex -17.5 -5 -4
      vertex -16 -7.5 -4
      vertex 17.5 -5 -4
    endloop
  endfacet
  facet normal 0 0 1
    outer loop
      vertex -17.5 -5 -4
      vertex -17.5307 -7.19552 -4
      vertex -16 -7.5 -4
    endloop
  endfacet
  facet normal 0 0 1
    outer loop
      vertex -17.5 29 -4
      vertex -20 27.5 -4
      vertex -17.5 -5 -4
    endloop
  endfacet
  facet normal -0 0 1
    outer loop
      vertex -19.6955 29.0307 -4
      vertex -17.5 29 -4
      vertex -18.8284 30.3284 -4
    endloop
  endfacet
  facet normal -0 0 1
    outer loop
      vertex -20 -3.5 -4
      vertex -17.5 -5 -4
      vertex -20 27.5 -4
    endloop
  endfacet
  facet normal 0 0 1
    outer loop
      vertex -17.5 29 -4
      vertex -19.6955 29.0307 -4
      vertex -20 27.5 -4
    endloop
  endfacet
  facet normal 0 -0 1
    outer loop
      vertex -19.6955 -5.03073 -4
      vertex -17.5 -5 -4
      vertex -20 -3.5 -4
    endloop
  endfacet
  facet normal 0 0 1
    outer loop
      vertex -17.5 -5 -4
      vertex -18.8284 -6.32843 -4
      vertex -17.5307 -7.19552 -4
    endloop
  endfacet
  facet normal 0 0 1
    outer loop
      vertex -17.5 -5 -4
      vertex -19.6955 -5.03073 -4
      vertex -18.8284 -6.32843 -4
    endloop
  endfacet
  facet normal -0.55557 -0.83147 0
    outer loop
      vertex -18.8284 -6.32843 -7
      vertex -17.5307 -7.19552 -4
      vertex -18.8284 -6.32843 -4
    endloop
  endfacet
  facet normal -0.55557 -0.83147 -0
    outer loop
      vertex -17.5307 -7.19552 -4
      vertex -18.8284 -6.32843 -7
      vertex -17.5307 -7.19552 -7
    endloop
  endfacet
  facet normal -0.55557 -0.83147 0
    outer loop
      vertex -18.8284 -6.32843 -12
      vertex -17.5307 -7.19552 -10.1955
      vertex -18.8284 -6.32843 -9.32843
    endloop
  endfacet
  facet normal -0.55557 -0.83147 -0
    outer loop
      vertex -17.5307 -7.19552 -10.1955
      vertex -18.8284 -6.32843 -12
      vertex -17.5307 -7.19552 -12
    endloop
  endfacet
  facet normal 0.195091 -0.980785 0
    outer loop
      vertex 16 -7.5 -7
      vertex 17.5307 -7.19552 -4
      vertex 16 -7.5 -4
    endloop
  endfacet
  facet normal 0.195091 -0.980785 0
    outer loop
      vertex 17.5307 -7.19552 -4
      vertex 16 -7.5 -7
      vertex 17.5307 -7.19552 -7
    endloop
  endfacet
  facet normal 0.195091 -0.980785 0
    outer loop
      vertex 17.5307 -7.19552 -12
      vertex 16 -7.5 -10.5
      vertex 16 -7.5 -12
    endloop
  endfacet
  facet normal 0.195091 -0.980785 0
    outer loop
      vertex 16 -7.5 -10.5
      vertex 17.5307 -7.19552 -12
      vertex 17.5307 -7.19552 -10.1955
    endloop
  endfacet
  facet normal 0.83147 -0.55557 0
    outer loop
      vertex 18.8284 -6.32843 -9.32843
      vertex 19.6955 -5.03073 -12
      vertex 19.6955 -5.03073 -8.03073
    endloop
  endfacet
  facet normal 0.83147 -0.55557 0
    outer loop
      vertex 19.6955 -5.03073 -12
      vertex 18.8284 -6.32843 -9.32843
      vertex 18.8284 -6.32843 -12
    endloop
  endfacet
  facet normal 0.83147 -0.55557 0
    outer loop
      vertex 18.8284 -6.32843 -4
      vertex 19.6955 -5.03073 -7
      vertex 19.6955 -5.03073 -4
    endloop
  endfacet
  facet normal 0.83147 -0.55557 0
    outer loop
      vertex 19.6955 -5.03073 -7
      vertex 18.8284 -6.32843 -4
      vertex 18.8284 -6.32843 -7
    endloop
  endfacet
  facet normal 0.55557 -0.83147 0
    outer loop
      vertex 17.5307 -7.19552 -7
      vertex 18.8284 -6.32843 -4
      vertex 17.5307 -7.19552 -4
    endloop
  endfacet
  facet normal 0.55557 -0.83147 0
    outer loop
      vertex 18.8284 -6.32843 -4
      vertex 17.5307 -7.19552 -7
      vertex 18.8284 -6.32843 -7
    endloop
  endfacet
  facet normal 0.55557 -0.83147 0
    outer loop
      vertex 18.8284 -6.32843 -12
      vertex 17.5307 -7.19552 -10.1955
      vertex 17.5307 -7.19552 -12
    endloop
  endfacet
  facet normal 0.55557 -0.83147 0
    outer loop
      vertex 17.5307 -7.19552 -10.1955
      vertex 18.8284 -6.32843 -12
      vertex 18.8284 -6.32843 -9.32843
    endloop
  endfacet
  facet normal 0.980785 -0.19509 0
    outer loop
      vertex 19.7016 -5 -8
      vertex 20 -3.5 -4
      vertex 19.7016 -5 -7
    endloop
  endfacet
  facet normal 0.980785 -0.195091 5.6587e-07
    outer loop
      vertex 19.6955 -5.03073 -4
      vertex 19.7016 -5 -7
      vertex 20 -3.5 -4
    endloop
  endfacet
  facet normal 0.980775 -0.195144 0
    outer loop
      vertex 19.7016 -5 -7
      vertex 19.6955 -5.03073 -4
      vertex 19.6955 -5.03073 -7
    endloop
  endfacet
  facet normal 0.980785 -0.19509 0
    outer loop
      vertex 20 -3.5 -4
      vertex 19.7016 -5 -8
      vertex 20 -3.5 -12
    endloop
  endfacet
  facet normal 0.980777 -0.19513 -1.53732e-05
    outer loop
      vertex 19.6955 -5.03073 -8.03073
      vertex 20 -3.5 -12
      vertex 19.7016 -5 -8
    endloop
  endfacet
  facet normal 0.980785 -0.195091 0
    outer loop
      vertex 20 -3.5 -12
      vertex 19.6955 -5.03073 -8.03073
      vertex 19.6955 -5.03073 -12
    endloop
  endfacet
  facet normal -0.980785 0.195091 0
    outer loop
      vertex -20 27.5 -12
      vertex -19.6955 29.0307 -8.03073
      vertex -19.6955 29.0307 -12
    endloop
  endfacet
  facet normal -0.980785 0.19509 0
    outer loop
      vertex -20 27.5 -4
      vertex -19.7016 29 -8
      vertex -20 27.5 -12
    endloop
  endfacet
  facet normal -0.980777 0.19513 -1.53732e-05
    outer loop
      vertex -19.6955 29.0307 -8.03073
      vertex -20 27.5 -12
      vertex -19.7016 29 -8
    endloop
  endfacet
  facet normal -0.980775 0.195144 0
    outer loop
      vertex -19.7016 29 -7
      vertex -19.6955 29.0307 -4
      vertex -19.6955 29.0307 -7
    endloop
  endfacet
  facet normal -0.980785 0.19509 0
    outer loop
      vertex -19.7016 29 -8
      vertex -20 27.5 -4
      vertex -19.7016 29 -7
    endloop
  endfacet
  facet normal -0.980785 0.195091 5.6587e-07
    outer loop
      vertex -19.7016 29 -7
      vertex -20 27.5 -4
      vertex -19.6955 29.0307 -4
    endloop
  endfacet
  facet normal -0.19509 0.980785 0
    outer loop
      vertex -17.5307 31.1955 -12
      vertex -16 31.5 -10.5
      vertex -16 31.5 -12
    endloop
  endfacet
  facet normal -0.19509 0.980785 0
    outer loop
      vertex -16 31.5 -10.5
      vertex -17.5307 31.1955 -12
      vertex -17.5307 31.1955 -10.1955
    endloop
  endfacet
  facet normal -0.19509 0.980785 0
    outer loop
      vertex -16 31.5 -7
      vertex -17.5307 31.1955 -4
      vertex -16 31.5 -4
    endloop
  endfacet
  facet normal -0.19509 0.980785 0
    outer loop
      vertex -17.5307 31.1955 -4
      vertex -16 31.5 -7
      vertex -17.5307 31.1955 -7
    endloop
  endfacet
  facet normal -0.83147 0.55557 0
    outer loop
      vertex -19.6955 29.0307 -7
      vertex -18.8284 30.3284 -4
      vertex -18.8284 30.3284 -7
    endloop
  endfacet
  facet normal -0.83147 0.55557 0
    outer loop
      vertex -18.8284 30.3284 -4
      vertex -19.6955 29.0307 -7
      vertex -19.6955 29.0307 -4
    endloop
  endfacet
  facet normal -0.83147 0.55557 0
    outer loop
      vertex -19.6955 29.0307 -12
      vertex -18.8284 30.3284 -9.32843
      vertex -18.8284 30.3284 -12
    endloop
  endfacet
  facet normal -0.83147 0.55557 0
    outer loop
      vertex -18.8284 30.3284 -9.32843
      vertex -19.6955 29.0307 -12
      vertex -19.6955 29.0307 -8.03073
    endloop
  endfacet
  facet normal -0.555571 0.831469 0
    outer loop
      vertex -18.8284 30.3284 -12
      vertex -17.5307 31.1955 -10.1955
      vertex -17.5307 31.1955 -12
    endloop
  endfacet
  facet normal -0.555571 0.831469 0
    outer loop
      vertex -17.5307 31.1955 -10.1955
      vertex -18.8284 30.3284 -12
      vertex -18.8284 30.3284 -9.32843
    endloop
  endfacet
  facet normal -0.555571 0.831469 0
    outer loop
      vertex -17.5307 31.1955 -7
      vertex -18.8284 30.3284 -4
      vertex -17.5307 31.1955 -4
    endloop
  endfacet
  facet normal -0.555571 0.831469 0
    outer loop
      vertex -18.8284 30.3284 -4
      vertex -17.5307 31.1955 -7
      vertex -18.8284 30.3284 -7
    endloop
  endfacet
  facet normal 0.195091 0.980785 -0
    outer loop
      vertex 17.5307 31.1955 -12
      vertex 16 31.5 -10.5
      vertex 17.5307 31.1955 -10.1955
    endloop
  endfacet
  facet normal 0.195091 0.980785 0
    outer loop
      vertex 16 31.5 -10.5
      vertex 17.5307 31.1955 -12
      vertex 16 31.5 -12
    endloop
  endfacet
  facet normal 0.195091 0.980785 -0
    outer loop
      vertex 17.5307 31.1955 -7
      vertex 16 31.5 -4
      vertex 17.5307 31.1955 -4
    endloop
  endfacet
  facet normal 0.195091 0.980785 0
    outer loop
      vertex 16 31.5 -4
      vertex 17.5307 31.1955 -7
      vertex 16 31.5 -7
    endloop
  endfacet
  facet normal 0.831469 0.555571 0
    outer loop
      vertex 19.6955 29.0307 -4
      vertex 18.8284 30.3284 -7
      vertex 18.8284 30.3284 -4
    endloop
  endfacet
  facet normal 0.831469 0.555571 0
    outer loop
      vertex 18.8284 30.3284 -7
      vertex 19.6955 29.0307 -4
      vertex 19.6955 29.0307 -7
    endloop
  endfacet
  facet normal 0.831469 0.555571 -0
    outer loop
      vertex 19.6955 29.0307 -12
      vertex 18.8284 30.3284 -9.32843
      vertex 19.6955 29.0307 -8.03073
    endloop
  endfacet
  facet normal 0.831469 0.555571 0
    outer loop
      vertex 18.8284 30.3284 -9.32843
      vertex 19.6955 29.0307 -12
      vertex 18.8284 30.3284 -12
    endloop
  endfacet
  facet normal 0.55557 0.83147 -0
    outer loop
      vertex 18.8284 30.3284 -7
      vertex 17.5307 31.1955 -4
      vertex 18.8284 30.3284 -4
    endloop
  endfacet
  facet normal 0.55557 0.83147 0
    outer loop
      vertex 17.5307 31.1955 -4
      vertex 18.8284 30.3284 -7
      vertex 17.5307 31.1955 -7
    endloop
  endfacet
  facet normal 0.55557 0.83147 -0
    outer loop
      vertex 18.8284 30.3284 -12
      vertex 17.5307 31.1955 -10.1955
      vertex 18.8284 30.3284 -9.32843
    endloop
  endfacet
  facet normal 0.55557 0.83147 0
    outer loop
      vertex 17.5307 31.1955 -10.1955
      vertex 18.8284 30.3284 -12
      vertex 17.5307 31.1955 -12
    endloop
  endfacet
  facet normal 0.980786 0.195086 0
    outer loop
      vertex 19.6955 29.0307 -4
      vertex 19.7016 29 -7
      vertex 19.6955 29.0307 -7
    endloop
  endfacet
  facet normal 0.980785 0.19509 0
    outer loop
      vertex 19.7016 29 -7
      vertex 20 27.5 -4
      vertex 19.7016 29 -8
    endloop
  endfacet
  facet normal 0.980785 0.19509 -4.51763e-08
    outer loop
      vertex 20 27.5 -4
      vertex 19.7016 29 -7
      vertex 19.6955 29.0307 -4
    endloop
  endfacet
  facet normal 0.980786 0.195087 1.22733e-06
    outer loop
      vertex 20 27.5 -12
      vertex 19.6955 29.0307 -8.03073
      vertex 19.7016 29 -8
    endloop
  endfacet
  facet normal 0.980785 0.19509 -0
    outer loop
      vertex 20 27.5 -12
      vertex 19.7016 29 -8
      vertex 20 27.5 -4
    endloop
  endfacet
  facet normal 0.980785 0.19509 0
    outer loop
      vertex 19.6955 29.0307 -8.03073
      vertex 20 27.5 -12
      vertex 19.6955 29.0307 -12
    endloop
  endfacet
  facet normal 1 -0 0
    outer loop
      vertex 20 16 -9
      vertex 20 27.5 -12
      vertex 20 27.5 -4
    endloop
  endfacet
  facet normal 1 0 0
    outer loop
      vertex 20 27.5 -12
      vertex 20 16 -9
      vertex 20 16 -12
    endloop
  endfacet
  facet normal 1 0 0
    outer loop
      vertex 20 27.5 -4
      vertex 20 8 -9
      vertex 20 16 -9
    endloop
  endfacet
  facet normal 1 -0 0
    outer loop
      vertex 20 -3.5 -4
      vertex 20 8 -9
      vertex 20 27.5 -4
    endloop
  endfacet
  facet normal 1 0 0
    outer loop
      vertex 20 -3.5 -12
      vertex 20 8 -9
      vertex 20 -3.5 -4
    endloop
  endfacet
  facet normal 1 0 0
    outer loop
      vertex 20 8 -9
      vertex 20 -3.5 -12
      vertex 20 8 -12
    endloop
  endfacet
  facet normal -1 0 0
    outer loop
      vertex -20 16 -9
      vertex -20 27.5 -12
      vertex -20 16 -12
    endloop
  endfacet
  facet normal -1 0 0
    outer loop
      vertex -20 27.5 -12
      vertex -20 16 -9
      vertex -20 27.5 -4
    endloop
  endfacet
  facet normal -1 0 0
    outer loop
      vertex -20 8 -9
      vertex -20 27.5 -4
      vertex -20 16 -9
    endloop
  endfacet
  facet normal -1 0 0
    outer loop
      vertex -20 -3.5 -12
      vertex -20 8 -9
      vertex -20 8 -12
    endloop
  endfacet
  facet normal -1 0 0
    outer loop
      vertex -20 8 -9
      vertex -20 -3.5 -4
      vertex -20 27.5 -4
    endloop
  endfacet
  facet normal -1 0 0
    outer loop
      vertex -20 -3.5 -4
      vertex -20 8 -9
      vertex -20 -3.5 -12
    endloop
  endfacet
  facet normal 0 -1 0
    outer loop
      vertex -16 -7.5 -12
      vertex 16 -7.5 -10.5
      vertex -16 -7.5 -10.5
    endloop
  endfacet
  facet normal 0 -1 -0
    outer loop
      vertex 16 -7.5 -10.5
      vertex -16 -7.5 -12
      vertex 16 -7.5 -12
    endloop
  endfacet
  facet normal 0 -1 0
    outer loop
      vertex -16 -7.5 -7
      vertex 16 -7.5 -4
      vertex -16 -7.5 -4
    endloop
  endfacet
  facet normal 0 -1 -0
    outer loop
      vertex 16 -7.5 -4
      vertex -16 -7.5 -7
      vertex 16 -7.5 -7
    endloop
  endfacet
  facet normal 0 1 -0
    outer loop
      vertex 16 31.5 -12
      vertex -16 31.5 -10.5
      vertex 16 31.5 -10.5
    endloop
  endfacet
  facet normal 0 1 0
    outer loop
      vertex -16 31.5 -10.5
      vertex 16 31.5 -12
      vertex -16 31.5 -12
    endloop
  endfacet
  facet normal 0 1 -0
    outer loop
      vertex 16 31.5 -7
      vertex -16 31.5 -4
      vertex 16 31.5 -4
    endloop
  endfacet
  facet normal 0 1 0
    outer loop
      vertex -16 31.5 -4
      vertex 16 31.5 -7
      vertex -16 31.5 -7
    endloop
  endfacet
  facet normal 0 0 -1
    outer loop
      vertex 12 -3.5 -7
      vertex 16 0.5 -7
      vertex 15.6955 -1.03073 -7
    endloop
  endfacet
  facet normal 0 0 -1
    outer loop
      vertex 16 0.5 -7
      vertex 11.7341 19.7429 -7
      vertex 16 23.5 -7
    endloop
  endfacet
  facet normal 0 0 -1
    outer loop
      vertex 12 -3.5 -7
      vertex 15.6955 -1.03073 -7
      vertex 14.8284 -2.32843 -7
    endloop
  endfacet
  facet normal 0 -0 -1
    outer loop
      vertex 12.25 21.5 -7
      vertex 16 23.5 -7
      vertex 11.7341 19.7429 -7
    endloop
  endfacet
  facet normal 0 0 -1
    outer loop
      vertex 12 -3.5 -7
      vertex 14.8284 -2.32843 -7
      vertex 13.5307 -3.19552 -7
    endloop
  endfacet
  facet normal 0 0 -1
    outer loop
      vertex 11.7341 23.2571 -7
      vertex 16 23.5 -7
      vertex 12.25 21.5 -7
    endloop
  endfacet
  facet normal -0 0 -1
    outer loop
      vertex 15.6955 25.0307 -7
      vertex 11.7341 23.2571 -7
      vertex 14.8284 26.3284 -7
    endloop
  endfacet
  facet normal -0 0 -1
    outer loop
      vertex 16 0.5 -7
      vertex 12 -3.5 -7
      vertex 8.53748 18.2831 -7
    endloop
  endfacet
  facet normal -0 0 -1
    outer loop
      vertex 16 23.5 -7
      vertex 11.7341 23.2571 -7
      vertex 15.6955 25.0307 -7
    endloop
  endfacet
  facet normal 0 0 -1
    outer loop
      vertex 16 0.5 -7
      vertex 10.3501 18.5437 -7
      vertex 11.7341 19.7429 -7
    endloop
  endfacet
  facet normal 0 0 -1
    outer loop
      vertex 16 0.5 -7
      vertex 8.53748 18.2831 -7
      vertex 10.3501 18.5437 -7
    endloop
  endfacet
  facet normal 0 0 -1
    outer loop
      vertex 12 -3.5 -7
      vertex 6.8717 19.0438 -7
      vertex 8.53748 18.2831 -7
    endloop
  endfacet
  facet normal 0 0 -1
    outer loop
      vertex -7.6499 18.5437 -7
      vertex 6.8717 19.0438 -7
      vertex 12 -3.5 -7
    endloop
  endfacet
  facet normal 0 0 -1
    outer loop
      vertex 5.88165 20.5844 -7
      vertex -5.75 21.5 -7
      vertex 5.88165 22.4156 -7
    endloop
  endfacet
  facet normal 0 -0 -1
    outer loop
      vertex -6.26593 19.7429 -7
      vertex 6.8717 19.0438 -7
      vertex -7.6499 18.5437 -7
    endloop
  endfacet
  facet normal -0 0 -1
    outer loop
      vertex 5.88165 20.5844 -7
      vertex -6.26593 19.7429 -7
      vertex -5.75 21.5 -7
    endloop
  endfacet
  facet normal 0 0 -1
    outer loop
      vertex 6.8717 19.0438 -7
      vertex -6.26593 19.7429 -7
      vertex 5.88165 20.5844 -7
    endloop
  endfacet
  facet normal 0 0 -1
    outer loop
      vertex -12 -3.5 -7
      vertex -7.6499 18.5437 -7
      vertex 12 -3.5 -7
    endloop
  endfacet
  facet normal 0 0 -1
    outer loop
      vertex -16 0.5 -7
      vertex -7.6499 18.5437 -7
      vertex -12 -3.5 -7
    endloop
  endfacet
  facet normal 0 0 -1
    outer loop
      vertex -7.6499 18.5437 -7
      vertex -16 0.5 -7
      vertex -9.46252 18.2831 -7
    endloop
  endfacet
  facet normal -0 0 -1
    outer loop
      vertex -9.46252 18.2831 -7
      vertex -16 0.5 -7
      vertex -11.1283 19.0438 -7
    endloop
  endfacet
  facet normal 0 0 -1
    outer loop
      vertex -16 23.5 -7
      vertex -11.1283 19.0438 -7
      vertex -16 0.5 -7
    endloop
  endfacet
  facet normal 0 0 -1
    outer loop
      vertex -16 0.5 -7
      vertex -12 -3.5 -7
      vertex -13.5307 -3.19552 -7
    endloop
  endfacet
  facet normal -0 0 -1
    outer loop
      vertex 14.8284 26.3284 -7
      vertex 11.7341 23.2571 -7
      vertex 13.5307 27.1955 -7
    endloop
  endfacet
  facet normal -0 0 -1
    outer loop
      vertex 13.5307 27.1955 -7
      vertex 11.7341 23.2571 -7
      vertex 12 27.5 -7
    endloop
  endfacet
  facet normal 0 0 -1
    outer loop
      vertex 10.3501 24.4563 -7
      vertex 12 27.5 -7
      vertex 11.7341 23.2571 -7
    endloop
  endfacet
  facet normal 0 0 -1
    outer loop
      vertex 8.53748 24.7169 -7
      vertex 12 27.5 -7
      vertex 10.3501 24.4563 -7
    endloop
  endfacet
  facet normal 0 0 -1
    outer loop
      vertex 6.8717 23.9562 -7
      vertex 12 27.5 -7
      vertex 8.53748 24.7169 -7
    endloop
  endfacet
  facet normal 0 0 -1
    outer loop
      vertex -6.26593 23.2571 -7
      vertex 5.88165 22.4156 -7
      vertex -5.75 21.5 -7
    endloop
  endfacet
  facet normal 0 0 -1
    outer loop
      vertex 5.88165 22.4156 -7
      vertex -6.26593 23.2571 -7
      vertex 6.8717 23.9562 -7
    endloop
  endfacet
  facet normal 0 0 -1
    outer loop
      vertex -7.6499 24.4563 -7
      vertex 6.8717 23.9562 -7
      vertex -6.26593 23.2571 -7
    endloop
  endfacet
  facet normal 0 0 -1
    outer loop
      vertex 6.8717 23.9562 -7
      vertex -7.6499 24.4563 -7
      vertex 12 27.5 -7
    endloop
  endfacet
  facet normal 0 0 -1
    outer loop
      vertex -12 27.5 -7
      vertex -7.6499 24.4563 -7
      vertex -9.46252 24.7169 -7
    endloop
  endfacet
  facet normal 0 0 -1
    outer loop
      vertex -7.6499 24.4563 -7
      vertex -12 27.5 -7
      vertex 12 27.5 -7
    endloop
  endfacet
  facet normal 0 0 -1
    outer loop
      vertex -11.1283 23.9562 -7
      vertex -12 27.5 -7
      vertex -9.46252 24.7169 -7
    endloop
  endfacet
  facet normal 0 0 -1
    outer loop
      vertex -15.6955 25.0307 -7
      vertex -11.1283 23.9562 -7
      vertex -12.1184 22.4156 -7
    endloop
  endfacet
  facet normal 0 0 -1
    outer loop
      vertex -11.1283 19.0438 -7
      vertex -16 23.5 -7
      vertex -12.1184 20.5844 -7
    endloop
  endfacet
  facet normal 0 0 -1
    outer loop
      vertex -12.1184 20.5844 -7
      vertex -16 23.5 -7
      vertex -12.1184 22.4156 -7
    endloop
  endfacet
  facet normal 0 0 -1
    outer loop
      vertex -16 0.5 -7
      vertex -13.5307 -3.19552 -7
      vertex -14.8284 -2.32843 -7
    endloop
  endfacet
  facet normal 0 -0 -1
    outer loop
      vertex -15.6955 25.0307 -7
      vertex -12.1184 22.4156 -7
      vertex -16 23.5 -7
    endloop
  endfacet
  facet normal 0 0 -1
    outer loop
      vertex -16 0.5 -7
      vertex -14.8284 -2.32843 -7
      vertex -15.6955 -1.03073 -7
    endloop
  endfacet
  facet normal 0 0 -1
    outer loop
      vertex -11.1283 23.9562 -7
      vertex -13.5307 27.1955 -7
      vertex -12 27.5 -7
    endloop
  endfacet
  facet normal 0 0 -1
    outer loop
      vertex -11.1283 23.9562 -7
      vertex -14.8284 26.3284 -7
      vertex -13.5307 27.1955 -7
    endloop
  endfacet
  facet normal 0 0 -1
    outer loop
      vertex -11.1283 23.9562 -7
      vertex -15.6955 25.0307 -7
      vertex -14.8284 26.3284 -7
    endloop
  endfacet
  facet normal 0.83147 0.55557 0
    outer loop
      vertex -14.8284 -2.32843 -7
      vertex -15.6955 -1.03073 -12
      vertex -15.6955 -1.03073 -7
    endloop
  endfacet
  facet normal 0.83147 0.55557 0
    outer loop
      vertex -15.6955 -1.03073 -12
      vertex -14.8284 -2.32843 -7
      vertex -14.8284 -2.32843 -12
    endloop
  endfacet
  facet normal 0.195091 0.980785 -0
    outer loop
      vertex -12 -3.5 -12
      vertex -13.5307 -3.19552 -7
      vertex -12 -3.5 -7
    endloop
  endfacet
  facet normal 0.195091 0.980785 0
    outer loop
      vertex -13.5307 -3.19552 -7
      vertex -12 -3.5 -12
      vertex -13.5307 -3.19552 -12
    endloop
  endfacet
  facet normal 0.980785 0.195091 0
    outer loop
      vertex -15.6955 -1.03073 -7
      vertex -16 0.5 -12
      vertex -16 0.5 -7
    endloop
  endfacet
  facet normal 0.980785 0.195091 0
    outer loop
      vertex -16 0.5 -12
      vertex -15.6955 -1.03073 -7
      vertex -15.6955 -1.03073 -12
    endloop
  endfacet
  facet normal 0.55557 0.83147 -0
    outer loop
      vertex -13.5307 -3.19552 -12
      vertex -14.8284 -2.32843 -7
      vertex -13.5307 -3.19552 -7
    endloop
  endfacet
  facet normal 0.55557 0.83147 0
    outer loop
      vertex -14.8284 -2.32843 -7
      vertex -13.5307 -3.19552 -12
      vertex -14.8284 -2.32843 -12
    endloop
  endfacet
  facet normal -0.195091 0.980785 0
    outer loop
      vertex 13.5307 -3.19552 -12
      vertex 12 -3.5 -7
      vertex 13.5307 -3.19552 -7
    endloop
  endfacet
  facet normal -0.195091 0.980785 0
    outer loop
      vertex 12 -3.5 -7
      vertex 13.5307 -3.19552 -12
      vertex 12 -3.5 -12
    endloop
  endfacet
  facet normal -0.980785 0.195091 0
    outer loop
      vertex 15.6955 -1.03073 -12
      vertex 16 0.5 -7
      vertex 16 0.5 -12
    endloop
  endfacet
  facet normal -0.980785 0.195091 0
    outer loop
      vertex 16 0.5 -7
      vertex 15.6955 -1.03073 -12
      vertex 15.6955 -1.03073 -7
    endloop
  endfacet
  facet normal -0.55557 0.83147 0
    outer loop
      vertex 14.8284 -2.32843 -12
      vertex 13.5307 -3.19552 -7
      vertex 14.8284 -2.32843 -7
    endloop
  endfacet
  facet normal -0.55557 0.83147 0
    outer loop
      vertex 13.5307 -3.19552 -7
      vertex 14.8284 -2.32843 -12
      vertex 13.5307 -3.19552 -12
    endloop
  endfacet
  facet normal -0.83147 0.55557 0
    outer loop
      vertex 14.8284 -2.32843 -12
      vertex 15.6955 -1.03073 -7
      vertex 15.6955 -1.03073 -12
    endloop
  endfacet
  facet normal -0.83147 0.55557 0
    outer loop
      vertex 15.6955 -1.03073 -7
      vertex 14.8284 -2.32843 -12
      vertex 14.8284 -2.32843 -7
    endloop
  endfacet
  facet normal 0.980785 -0.195091 0
    outer loop
      vertex -16 23.5 -7
      vertex -15.6955 25.0307 -12
      vertex -15.6955 25.0307 -7
    endloop
  endfacet
  facet normal 0.980785 -0.195091 0
    outer loop
      vertex -15.6955 25.0307 -12
      vertex -16 23.5 -7
      vertex -16 23.5 -12
    endloop
  endfacet
  facet normal 0.19509 -0.980785 0
    outer loop
      vertex -13.5307 27.1955 -12
      vertex -12 27.5 -7
      vertex -13.5307 27.1955 -7
    endloop
  endfacet
  facet normal 0.19509 -0.980785 0
    outer loop
      vertex -12 27.5 -7
      vertex -13.5307 27.1955 -12
      vertex -12 27.5 -12
    endloop
  endfacet
  facet normal 0.83147 -0.55557 0
    outer loop
      vertex -15.6955 25.0307 -7
      vertex -14.8284 26.3284 -12
      vertex -14.8284 26.3284 -7
    endloop
  endfacet
  facet normal 0.83147 -0.55557 0
    outer loop
      vertex -14.8284 26.3284 -12
      vertex -15.6955 25.0307 -7
      vertex -15.6955 25.0307 -12
    endloop
  endfacet
  facet normal 0.555571 -0.831469 0
    outer loop
      vertex -14.8284 26.3284 -12
      vertex -13.5307 27.1955 -7
      vertex -14.8284 26.3284 -7
    endloop
  endfacet
  facet normal 0.555571 -0.831469 0
    outer loop
      vertex -13.5307 27.1955 -7
      vertex -14.8284 26.3284 -12
      vertex -13.5307 27.1955 -12
    endloop
  endfacet
  facet normal -0.195091 -0.980785 0
    outer loop
      vertex 12 27.5 -12
      vertex 13.5307 27.1955 -7
      vertex 12 27.5 -7
    endloop
  endfacet
  facet normal -0.195091 -0.980785 -0
    outer loop
      vertex 13.5307 27.1955 -7
      vertex 12 27.5 -12
      vertex 13.5307 27.1955 -12
    endloop
  endfacet
  facet normal -0.980785 -0.195091 0
    outer loop
      vertex 16 23.5 -12
      vertex 15.6955 25.0307 -7
      vertex 15.6955 25.0307 -12
    endloop
  endfacet
  facet normal -0.980785 -0.195091 0
    outer loop
      vertex 15.6955 25.0307 -7
      vertex 16 23.5 -12
      vertex 16 23.5 -7
    endloop
  endfacet
  facet normal -0.83147 -0.55557 0
    outer loop
      vertex 15.6955 25.0307 -12
      vertex 14.8284 26.3284 -7
      vertex 14.8284 26.3284 -12
    endloop
  endfacet
  facet normal -0.83147 -0.55557 0
    outer loop
      vertex 14.8284 26.3284 -7
      vertex 15.6955 25.0307 -12
      vertex 15.6955 25.0307 -7
    endloop
  endfacet
  facet normal -0.55557 -0.83147 0
    outer loop
      vertex 13.5307 27.1955 -12
      vertex 14.8284 26.3284 -7
      vertex 13.5307 27.1955 -7
    endloop
  endfacet
  facet normal -0.55557 -0.83147 -0
    outer loop
      vertex 14.8284 26.3284 -7
      vertex 13.5307 27.1955 -12
      vertex 14.8284 26.3284 -12
    endloop
  endfacet
  facet normal -1 0 0
    outer loop
      vertex 16 0.5 -12
      vertex 16 23.5 -7
      vertex 16 23.5 -12
    endloop
  endfacet
  facet normal -1 -0 0
    outer loop
      vertex 16 23.5 -7
      vertex 16 0.5 -12
      vertex 16 0.5 -7
    endloop
  endfacet
  facet normal 1 -0 0
    outer loop
      vertex -16 0.5 -7
      vertex -16 23.5 -12
      vertex -16 23.5 -7
    endloop
  endfacet
  facet normal 1 0 0
    outer loop
      vertex -16 23.5 -12
      vertex -16 0.5 -7
      vertex -16 0.5 -12
    endloop
  endfacet
  facet normal 0 1 -0
    outer loop
      vertex 12 -3.5 -12
      vertex -12 -3.5 -7
      vertex 12 -3.5 -7
    endloop
  endfacet
  facet normal 0 1 0
    outer loop
      vertex -12 -3.5 -7
      vertex 12 -3.5 -12
      vertex -12 -3.5 -12
    endloop
  endfacet
  facet normal 0 -1 0
    outer loop
      vertex -12 27.5 -12
      vertex 12 27.5 -7
      vertex -12 27.5 -7
    endloop
  endfacet
  facet normal 0 -1 -0
    outer loop
      vertex 12 27.5 -7
      vertex -12 27.5 -12
      vertex 12 27.5 -12
    endloop
  endfacet
  facet normal -3.17891e-07 1 -3.17891e-07
    outer loop
      vertex -17 8 -12
      vertex -20 8 -12
      vertex -20 8 -9
    endloop
  endfacet
  facet normal -0.707107 0 -0.707107
    outer loop
      vertex -17 8 -12
      vertex -20 16 -9
      vertex -17 16 -12
    endloop
  endfacet
  facet normal -0.707107 -0 -0.707107
    outer loop
      vertex -20 16 -9
      vertex -17 8 -12
      vertex -20 8 -9
    endloop
  endfacet
  facet normal 0 -1 0
    outer loop
      vertex -20 16 -12
      vertex -17 16 -12
      vertex -20 16 -9
    endloop
  endfacet
  facet normal 3.17891e-07 -1 -3.17891e-07
    outer loop
      vertex 20 16 -12
      vertex 20 16 -9
      vertex 17 16 -12
    endloop
  endfacet
  facet normal 0 1 0
    outer loop
      vertex 20 8 -9
      vertex 20 8 -12
      vertex 17 8 -12
    endloop
  endfacet
  facet normal 0.707107 0 -0.707107
    outer loop
      vertex 20 8 -9
      vertex 17 16 -12
      vertex 20 16 -9
    endloop
  endfacet
  facet normal 0.707107 0 -0.707107
    outer loop
      vertex 17 16 -12
      vertex 20 8 -9
      vertex 17 8 -12
    endloop
  endfacet
  facet normal -1 0 0
    outer loop
      vertex -17.5 29 -4
      vertex -17.5 14 5
      vertex -17.5 29 45
    endloop
  endfacet
  facet normal -1 0 0
    outer loop
      vertex -17.5 29 -4
      vertex -17.5 9 0
      vertex -17.5 14 5
    endloop
  endfacet
  facet normal -1 0 0
    outer loop
      vertex -17.5 -5 -4
      vertex -17.5 9 0
      vertex -17.5 29 -4
    endloop
  endfacet
  facet normal -1 -0 0
    outer loop
      vertex -17.5 9 0
      vertex -17.5 -5 -4
      vertex -17.5 0 0
    endloop
  endfacet
  facet normal -1 0 0
    outer loop
      vertex -17.5 -5 -4
      vertex -17.5 -2 2
      vertex -17.5 0 0
    endloop
  endfacet
  facet normal -1 -0 0
    outer loop
      vertex -17.5 -2 2
      vertex -17.5 -5 -4
      vertex -17.5 -5 2
    endloop
  endfacet
  facet normal -1 -0 0
    outer loop
      vertex -17.5 29 45
      vertex -17.5 14 5
      vertex -17.5 14 45
    endloop
  endfacet
  facet normal 1 0 0
    outer loop
      vertex 17.5 14 5
      vertex 17.5 29 45
      vertex 17.5 14 45
    endloop
  endfacet
  facet normal 1 0 0
    outer loop
      vertex 17.5 29 45
      vertex 17.5 14 5
      vertex 17.5 29 -4
    endloop
  endfacet
  facet normal 1 -0 0
    outer loop
      vertex 17.5 9 0
      vertex 17.5 29 -4
      vertex 17.5 14 5
    endloop
  endfacet
  facet normal 1 0 0
    outer loop
      vertex 17.5 -5 -4
      vertex 17.5 9 0
      vertex 17.5 0 0
    endloop
  endfacet
  facet normal 1 0 0
    outer loop
      vertex 17.5 -5 -4
      vertex 17.5 -2 2
      vertex 17.5 -5 2
    endloop
  endfacet
  facet normal 1 0 0
    outer loop
      vertex 17.5 9 0
      vertex 17.5 -5 -4
      vertex 17.5 29 -4
    endloop
  endfacet
  facet normal 1 0 0
    outer loop
      vertex 17.5 -2 2
      vertex 17.5 -5 -4
      vertex 17.5 0 0
    endloop
  endfacet
  facet normal 0 -1 0
    outer loop
      vertex -17.5 -5 -4
      vertex 17.5 -5 2
      vertex -17.5 -5 2
    endloop
  endfacet
  facet normal 0 -1 -0
    outer loop
      vertex 17.5 -5 2
      vertex -17.5 -5 -4
      vertex 17.5 -5 -4
    endloop
  endfacet
  facet normal 0 1 0
    outer loop
      vertex -14.25 29 40
      vertex -14.25 29 35
      vertex -15.75 29 40
    endloop
  endfacet
  facet normal 0 1 -0
    outer loop
      vertex 3.75 29 35
      vertex 2.25 29 40
      vertex 3.75 29 40
    endloop
  endfacet
  facet normal 0 1 0
    outer loop
      vertex 2.25 29 40
      vertex 3.75 29 35
      vertex -2.25 29 40
    endloop
  endfacet
  facet normal 0 1 0
    outer loop
      vertex -3.75 29 35
      vertex -2.25 29 40
      vertex 3.75 29 35
    endloop
  endfacet
  facet normal 0 1 0
    outer loop
      vertex -2.25 29 40
      vertex -3.75 29 35
      vertex -3.75 29 40
    endloop
  endfacet
  facet normal 0 1 -0
    outer loop
      vertex 2.25 29 40
      vertex -2.25 29 42
      vertex 2.25 29 42
    endloop
  endfacet
  facet normal 0 1 0
    outer loop
      vertex -2.25 29 42
      vertex 2.25 29 40
      vertex -2.25 29 40
    endloop
  endfacet
  facet normal 0 1 0
    outer loop
      vertex 2.25 29 42
      vertex 17.5 29 45
      vertex 15.75 29 42
    endloop
  endfacet
  facet normal 0 1 0
    outer loop
      vertex 17.5 29 45
      vertex 15.75 29 40
      vertex 15.75 29 42
    endloop
  endfacet
  facet normal 0 1 0
    outer loop
      vertex 15.75 29 40
      vertex 14.25 29 35
      vertex 14.25 29 40
    endloop
  endfacet
  facet normal 0 1 -0
    outer loop
      vertex 17.5 29 -4
      vertex 15.75 29 40
      vertex 17.5 29 45
    endloop
  endfacet
  facet normal 0 1 0
    outer loop
      vertex 17.5 29 -4
      vertex 3.75 29 35
      vertex 14.25 29 35
    endloop
  endfacet
  facet normal 0 1 0
    outer loop
      vertex 3.75 29 35
      vertex 17.5 29 -4
      vertex -3.75 29 35
    endloop
  endfacet
  facet normal 0 1 0
    outer loop
      vertex -17.5 29 -4
      vertex -3.75 29 35
      vertex 17.5 29 -4
    endloop
  endfacet
  facet normal 0 1 0
    outer loop
      vertex 15.75 29 40
      vertex 17.5 29 -4
      vertex 14.25 29 35
    endloop
  endfacet
  facet normal 0 1 0
    outer loop
      vertex 17.5 29 45
      vertex 2.25 29 42
      vertex -17.5 29 45
    endloop
  endfacet
  facet normal 0 1 -0
    outer loop
      vertex -2.25 29 42
      vertex -17.5 29 45
      vertex 2.25 29 42
    endloop
  endfacet
  facet normal 0 1 -0
    outer loop
      vertex -15.75 29 42
      vertex -17.5 29 45
      vertex -2.25 29 42
    endloop
  endfacet
  facet normal 0 1 -0
    outer loop
      vertex -15.75 29 40
      vertex -17.5 29 45
      vertex -15.75 29 42
    endloop
  endfacet
  facet normal 0 1 0
    outer loop
      vertex -17.5 29 -4
      vertex -15.75 29 40
      vertex -14.25 29 35
    endloop
  endfacet
  facet normal 0 1 0
    outer loop
      vertex -15.75 29 40
      vertex -17.5 29 -4
      vertex -17.5 29 45
    endloop
  endfacet
  facet normal 0 1 0
    outer loop
      vertex -3.75 29 35
      vertex -17.5 29 -4
      vertex -14.25 29 35
    endloop
  endfacet
  facet normal -0 0 1
    outer loop
      vertex -12.5 14 20
      vertex -12 14 20
      vertex 2.5 14 20
    endloop
  endfacet
  facet normal 0 -1 0
    outer loop
      vertex -12.5 14 35
      vertex -12.5 14 20
      vertex -3.75 14 35
    endloop
  endfacet
  facet normal 0 -1 0
    outer loop
      vertex -3.75 14 35
      vertex -2.25 14 40
      vertex -3.75 14 40
    endloop
  endfacet
  facet normal 0 -1 -0
    outer loop
      vertex -2.25 14 40
      vertex -3.75 14 35
      vertex 2.25 14 40
    endloop
  endfacet
  facet normal 0 -1 -0
    outer loop
      vertex 2.25 14 40
      vertex -3.75 14 35
      vertex 2.5 14 40
    endloop
  endfacet
  facet normal 0 -1 0
    outer loop
      vertex 2.5 14 20
      vertex -3.75 14 35
      vertex -12.5 14 20
    endloop
  endfacet
  facet normal 0 -1 0
    outer loop
      vertex -3.75 14 35
      vertex 2.5 14 20
      vertex 2.5 14 40
    endloop
  endfacet
  facet normal 0 -1 0
    outer loop
      vertex -2.25 14 40
      vertex 2.25 14 42
      vertex -2.25 14 42
    endloop
  endfacet
  facet normal 0 -1 -0
    outer loop
      vertex 2.25 14 42
      vertex -2.25 14 40
      vertex 2.25 14 40
    endloop
  endfacet
  facet normal 0 -1 0
    outer loop
      vertex -2.25 14 42
      vertex -12.5 14 45
      vertex -12.5 14 42
    endloop
  endfacet
  facet normal 0 -1 0
    outer loop
      vertex -12.5 14 45
      vertex -2.25 14 42
      vertex 2.5 14 45
    endloop
  endfacet
  facet normal 0 -1 0
    outer loop
      vertex 2.25 14 42
      vertex 2.5 14 45
      vertex -2.25 14 42
    endloop
  endfacet
  facet normal 0 -1 -0
    outer loop
      vertex 2.5 14 45
      vertex 2.25 14 42
      vertex 2.5 14 42
    endloop
  endfacet
  facet normal 0 -1 0
    outer loop
      vertex -17.5 14 5
      vertex -16 14 45
      vertex -17.5 14 45
    endloop
  endfacet
  facet normal 0 -1 -0
    outer loop
      vertex -16 14 45
      vertex -17.5 14 5
      vertex -16 14 5
    endloop
  endfacet
  facet normal -0 0 1
    outer loop
      vertex -17.5 -2 2
      vertex 17.5 -5 2
      vertex 17.5 -2 2
    endloop
  endfacet
  facet normal 0 0 1
    outer loop
      vertex 17.5 -5 2
      vertex -17.5 -2 2
      vertex -17.5 -5 2
    endloop
  endfacet
  facet normal 0 0.707107 0.707107
    outer loop
      vertex 17.5 0 0
      vertex -17.5 -2 2
      vertex 17.5 -2 2
    endloop
  endfacet
  facet normal 0 0.707107 0.707107
    outer loop
      vertex -17.5 -2 2
      vertex 17.5 0 0
      vertex -17.5 0 0
    endloop
  endfacet
  facet normal -0 0 1
    outer loop
      vertex -12 9 0
      vertex 17.5 0 0
      vertex 17.5 9 0
    endloop
  endfacet
  facet normal 0 0 1
    outer loop
      vertex -17.5 0 0
      vertex -12 9 0
      vertex -16 9 0
    endloop
  endfacet
  facet normal 0 0 1
    outer loop
      vertex -17.5 0 0
      vertex -16 9 0
      vertex -17.5 9 0
    endloop
  endfacet
  facet normal 0 0 1
    outer loop
      vertex -12 9 0
      vertex -17.5 0 0
      vertex 17.5 0 0
    endloop
  endfacet
  facet normal 0 -0.707107 0.707107
    outer loop
      vertex -17.5 9 0
      vertex -16 14 5
      vertex -17.5 14 5
    endloop
  endfacet
  facet normal 0 -0.707107 0.707107
    outer loop
      vertex -16 14 5
      vertex -17.5 9 0
      vertex -16 9 0
    endloop
  endfacet
  facet normal -2.72478e-07 -1 -2.27065e-08
    outer loop
      vertex -16 14 45
      vertex -15.75 14 42
      vertex -12.5 14 45
    endloop
  endfacet
  facet normal 0 -1 0
    outer loop
      vertex -16 14 45
      vertex -15.75 14 40
      vertex -15.75 14 42
    endloop
  endfacet
  facet normal 0 -1 0
    outer loop
      vertex -15.75 14 40
      vertex -14.25 14 35
      vertex -14.25 14 40
    endloop
  endfacet
  facet normal -5.44957e-07 -1 0
    outer loop
      vertex -14.25 14 35
      vertex -12.5 14 20
      vertex -12.5 14 35
    endloop
  endfacet
  facet normal 0 -1 0
    outer loop
      vertex -16 14 5
      vertex -14.25 14 35
      vertex -15.75 14 40
    endloop
  endfacet
  facet normal 0 -1 0
    outer loop
      vertex -16 14 5
      vertex -15.75 14 40
      vertex -16 14 45
    endloop
  endfacet
  facet normal -3.63305e-07 -1 2.11928e-08
    outer loop
      vertex -14.25 14 35
      vertex -16 14 5
      vertex -12.5 14 20
    endloop
  endfacet
  facet normal -2.38419e-07 -1 -7.9473e-09
    outer loop
      vertex -12 14 5
      vertex -12.5 14 20
      vertex -16 14 5
    endloop
  endfacet
  facet normal 0 -1 0
    outer loop
      vertex -12.5 14 20
      vertex -12 14 5
      vertex -12 14 20
    endloop
  endfacet
  facet normal -2.93438e-07 -1 -0
    outer loop
      vertex -12.5 14 45
      vertex -15.75 14 42
      vertex -12.5 14 42
    endloop
  endfacet
  facet normal -1.68587e-07 -0.707107 0.707107
    outer loop
      vertex -16 9 0
      vertex -12 14 5
      vertex -16 14 5
    endloop
  endfacet
  facet normal -1.68587e-07 -0.707107 0.707107
    outer loop
      vertex -12 14 5
      vertex -16 9 0
      vertex -12 9 0
    endloop
  endfacet
  facet normal 0 -1 0
    outer loop
      vertex 2.5 14 40
      vertex 3.75 14 35
      vertex 3.75 14 40
    endloop
  endfacet
  facet normal 0 -1 -0
    outer loop
      vertex 3.75 14 35
      vertex 2.5 14 20
      vertex 14.25 14 35
    endloop
  endfacet
  facet normal 0 -1 0
    outer loop
      vertex 2.5 14 20
      vertex 3.75 14 35
      vertex 2.5 14 40
    endloop
  endfacet
  facet normal 0 -1 0
    outer loop
      vertex 14.25 14 40
      vertex 14.25 14 35
      vertex 15.75 14 40
    endloop
  endfacet
  facet normal 0 -1 0
    outer loop
      vertex 15.75 14 42
      vertex 2.5 14 45
      vertex 2.5 14 42
    endloop
  endfacet
  facet normal 0 -1 0
    outer loop
      vertex 2.5 14 45
      vertex 15.75 14 42
      vertex 17.5 14 45
    endloop
  endfacet
  facet normal 0 -1 0
    outer loop
      vertex 15.75 14 40
      vertex 17.5 14 45
      vertex 15.75 14 42
    endloop
  endfacet
  facet normal 0 -1 0
    outer loop
      vertex 17.5 14 5
      vertex 15.75 14 40
      vertex 14.25 14 35
    endloop
  endfacet
  facet normal 0 -1 0
    outer loop
      vertex 15.75 14 40
      vertex 17.5 14 5
      vertex 17.5 14 45
    endloop
  endfacet
  facet normal 0 -1 0
    outer loop
      vertex 2.5 14 20
      vertex 17.5 14 5
      vertex 14.25 14 35
    endloop
  endfacet
  facet normal 0 -1 0
    outer loop
      vertex 17.5 14 5
      vertex 2.5 14 20
      vertex -12 14 5
    endloop
  endfacet
  facet normal 0 -1 0
    outer loop
      vertex -12 14 20
      vertex -12 14 5
      vertex 2.5 14 20
    endloop
  endfacet
  facet normal 0 -0.707107 0.707107
    outer loop
      vertex -12 9 0
      vertex 17.5 14 5
      vertex -12 14 5
    endloop
  endfacet
  facet normal 0 -0.707107 0.707107
    outer loop
      vertex 17.5 14 5
      vertex -12 9 0
      vertex 17.5 9 0
    endloop
  endfacet
  facet normal 0 0 1
    outer loop
      vertex 17.5 29 45
      vertex 12.25 21.5 45
      vertex 17.5 14 45
    endloop
  endfacet
  facet normal 0 0 1
    outer loop
      vertex 17.5 29 45
      vertex 11.7341 23.2571 45
      vertex 12.25 21.5 45
    endloop
  endfacet
  facet normal 0 0 1
    outer loop
      vertex 17.5 29 45
      vertex 10.3501 24.4563 45
      vertex 11.7341 23.2571 45
    endloop
  endfacet
  facet normal 0 0 1
    outer loop
      vertex 17.5 29 45
      vertex 8.53748 24.7169 45
      vertex 10.3501 24.4563 45
    endloop
  endfacet
  facet normal 0 0 1
    outer loop
      vertex -7.6499 24.4563 45
      vertex 8.53748 24.7169 45
      vertex 17.5 29 45
    endloop
  endfacet
  facet normal -0 0 1
    outer loop
      vertex -5.75 21.5 45
      vertex 5.88165 20.5844 45
      vertex 5.88165 22.4156 45
    endloop
  endfacet
  facet normal 0 0 1
    outer loop
      vertex 5.88165 20.5844 45
      vertex -5.75 21.5 45
      vertex 2.5 14 45
    endloop
  endfacet
  facet normal -0 0 1
    outer loop
      vertex -6.26593 23.2571 45
      vertex 5.88165 22.4156 45
      vertex 6.8717 23.9562 45
    endloop
  endfacet
  facet normal 0 0 1
    outer loop
      vertex 8.53748 24.7169 45
      vertex -7.6499 24.4563 45
      vertex 6.8717 23.9562 45
    endloop
  endfacet
  facet normal 0 0 1
    outer loop
      vertex 5.88165 22.4156 45
      vertex -6.26593 23.2571 45
      vertex -5.75 21.5 45
    endloop
  endfacet
  facet normal 0 0 1
    outer loop
      vertex 6.8717 23.9562 45
      vertex -7.6499 24.4563 45
      vertex -6.26593 23.2571 45
    endloop
  endfacet
  facet normal -0 0 1
    outer loop
      vertex -17.5 29 45
      vertex -7.6499 24.4563 45
      vertex 17.5 29 45
    endloop
  endfacet
  facet normal 0 0 1
    outer loop
      vertex -17.5 14 45
      vertex -12.1184 20.5844 45
      vertex -12.1184 22.4156 45
    endloop
  endfacet
  facet normal 0 0 1
    outer loop
      vertex -12.1184 20.5844 45
      vertex -16 14 45
      vertex -12.5 14 45
    endloop
  endfacet
  facet normal 0 0 1
    outer loop
      vertex -7.6499 24.4563 45
      vertex -17.5 29 45
      vertex -9.46252 24.7169 45
    endloop
  endfacet
  facet normal 0 0 1
    outer loop
      vertex -17.5 29 45
      vertex -11.1283 23.9562 45
      vertex -9.46252 24.7169 45
    endloop
  endfacet
  facet normal 0 0 1
    outer loop
      vertex -17.5 29 45
      vertex -12.1184 22.4156 45
      vertex -11.1283 23.9562 45
    endloop
  endfacet
  facet normal 0 0 1
    outer loop
      vertex -17.5 14 45
      vertex -12.1184 22.4156 45
      vertex -17.5 29 45
    endloop
  endfacet
  facet normal 0 0 1
    outer loop
      vertex -12.1184 20.5844 45
      vertex -17.5 14 45
      vertex -16 14 45
    endloop
  endfacet
  facet normal -0 0 1
    outer loop
      vertex 11.7341 19.7429 45
      vertex 17.5 14 45
      vertex 12.25 21.5 45
    endloop
  endfacet
  facet normal -0 0 1
    outer loop
      vertex 10.3501 18.5437 45
      vertex 17.5 14 45
      vertex 11.7341 19.7429 45
    endloop
  endfacet
  facet normal -0 0 1
    outer loop
      vertex 8.53748 18.2831 45
      vertex 17.5 14 45
      vertex 10.3501 18.5437 45
    endloop
  endfacet
  facet normal 0 0 1
    outer loop
      vertex 2.5 14 45
      vertex 8.53748 18.2831 45
      vertex 6.8717 19.0438 45
    endloop
  endfacet
  facet normal 0 0 1
    outer loop
      vertex 2.5 14 45
      vertex 6.8717 19.0438 45
      vertex 5.88165 20.5844 45
    endloop
  endfacet
  facet normal 0 0 1
    outer loop
      vertex 8.53748 18.2831 45
      vertex 2.5 14 45
      vertex 17.5 14 45
    endloop
  endfacet
  facet normal -0 0 1
    outer loop
      vertex -6.26593 19.7429 45
      vertex 2.5 14 45
      vertex -5.75 21.5 45
    endloop
  endfacet
  facet normal -0 0 1
    outer loop
      vertex -7.6499 18.5437 45
      vertex 2.5 14 45
      vertex -6.26593 19.7429 45
    endloop
  endfacet
  facet normal 0 0 1
    outer loop
      vertex -12.5 14 45
      vertex -7.6499 18.5437 45
      vertex -9.46252 18.2831 45
    endloop
  endfacet
  facet normal 0 0 1
    outer loop
      vertex -7.6499 18.5437 45
      vertex -12.5 14 45
      vertex 2.5 14 45
    endloop
  endfacet
  facet normal 0 0 1
    outer loop
      vertex -11.1283 19.0438 45
      vertex -12.5 14 45
      vertex -9.46252 18.2831 45
    endloop
  endfacet
  facet normal 0 0 1
    outer loop
      vertex -12.5 14 45
      vertex -11.1283 19.0438 45
      vertex -12.1184 20.5844 45
    endloop
  endfacet
endsolid OpenSCAD_Model
